<svg width="14" height="13" viewBox="0 0 14 13" fill="none" xmlns="http://www.w3.org/2000/svg">
<path d="M1.90137 1.0625H6.90137C7.0174 1.0625 7.12889 1.10936 7.21094 1.19141C7.29271 1.27333 7.33876 1.38425 7.33887 1.5C7.33887 1.61594 7.29286 1.72754 7.21094 1.80957C7.12889 1.89162 7.0174 1.9375 6.90137 1.9375H1.83887V12.0625H11.9639V7C11.964 6.88425 12.01 6.77333 12.0918 6.69141C12.1738 6.60936 12.2853 6.5625 12.4014 6.5625C12.5174 6.5625 12.6289 6.60936 12.7109 6.69141C12.7927 6.77333 12.8388 6.88425 12.8389 7V12C12.8389 12.2485 12.7401 12.4873 12.5645 12.6631C12.3886 12.8389 12.15 12.9375 11.9014 12.9375H1.90137C1.65273 12.9375 1.4141 12.8389 1.23828 12.6631C1.06259 12.4873 0.963867 12.2485 0.963867 12V2C0.963971 1.75164 1.06274 1.51359 1.23828 1.33789C1.4141 1.16208 1.65273 1.0625 1.90137 1.0625ZM10.9014 0.5625C10.9589 0.5625 11.0162 0.573686 11.0693 0.595703C11.1222 0.617686 11.1704 0.649915 11.2109 0.69043L13.2109 2.69043C13.2516 2.73106 13.2836 2.7799 13.3057 2.83301C13.3276 2.88599 13.3388 2.94265 13.3389 3C13.3389 3.05749 13.3277 3.11486 13.3057 3.16797C13.2947 3.19433 13.2814 3.21953 13.2656 3.24316L13.2109 3.30957L7.21094 9.30957C7.17041 9.35006 7.12225 9.38234 7.06934 9.4043C7.01623 9.42625 6.95884 9.43755 6.90137 9.4375H4.90137C4.78533 9.4375 4.67384 9.39162 4.5918 9.30957C4.50987 9.22754 4.46387 9.11594 4.46387 9V7L4.47266 6.91504C4.47821 6.88704 4.48612 6.85952 4.49707 6.83301C4.51903 6.7799 4.55118 6.73109 4.5918 6.69043L10.5918 0.69043C10.6323 0.649915 10.6805 0.617686 10.7334 0.595703C10.7865 0.573686 10.8439 0.5625 10.9014 0.5625ZM5.33887 7.18164V8.5625H6.7207L10.7832 4.5L10.7383 4.45605L9.40137 3.11914L5.33887 7.18164ZM10.0645 2.45605L10.0195 2.5L11.4014 3.88184L12.2832 3L12.2383 2.95605L10.9014 1.61914L10.0645 2.45605Z" fill="#8A8D93" stroke="#8A8D93" stroke-width="0.125"/>
</svg>
