<svg width="80" height="80" viewBox="0 0 80 80" fill="none" xmlns="http://www.w3.org/2000/svg">
<rect x="9.97522" y="5.6665" width="57.0109" height="68.0016" rx="2.86523" fill="#E5E7EB"/>
<rect x="0.000488281" width="57.0109" height="73.6684" rx="2.86523" fill="#F3F4F6"/>
<rect x="5.70288" y="5.66565" width="22.8044" height="22.5675" rx="1.43262" fill="#DDE1E8"/>
<path fill-rule="evenodd" clip-rule="evenodd" d="M17.1058 11.3075C16.3187 11.3075 15.6805 11.9456 15.6805 12.7328V15.5389H12.8144C12.0354 15.5389 11.4039 16.1704 11.4039 16.9494C11.4039 17.7284 12.0354 18.3598 12.8144 18.3598H15.6805V21.166C15.6805 21.9531 16.3187 22.5912 17.1058 22.5912C17.893 22.5912 18.5311 21.9531 18.5311 21.166V18.3598H21.3956C22.1746 18.3598 22.8061 17.7284 22.8061 16.9494C22.8061 16.1704 22.1746 15.5389 21.3956 15.5389H18.5311V12.7328C18.5311 11.9456 17.893 11.3075 17.1058 11.3075Z" fill="#B0B4C1"/>
<rect x="5.70288" y="42.401" width="12.8274" height="2.82093" rx="1.41047" fill="#B0B4C1"/>
<rect x="5.70288" y="50.9069" width="28.5054" height="2.82093" rx="1.41047" fill="#B0B4C1"/>
<rect x="5.70288" y="59.4133" width="34.2065" height="2.82093" rx="1.41047" fill="#B0B4C1"/>
<rect x="24.2065" y="42.4011" width="9.9769" height="2.82093" rx="1.41047" fill="#9CA3AF"/>
<rect x="52.3091" y="47.4647" width="27.0782" height="25.5006" fill="#DDE1E8"/>
<path fill-rule="evenodd" clip-rule="evenodd" d="M65.8458 53.1305C65.0587 53.1305 64.4206 53.7686 64.4206 54.5558V58.797H60.1361C59.3536 58.797 58.7194 59.4313 58.7194 60.2137C58.7194 60.9961 59.3536 61.6304 60.1361 61.6304H64.4206V65.8722C64.4206 66.6594 65.0587 67.2975 65.8458 67.2975C66.633 67.2975 67.2711 66.6594 67.2711 65.8722V61.6304H71.5554C72.3378 61.6304 72.9721 60.9961 72.9721 60.2137C72.9721 59.4313 72.3378 58.797 71.5554 58.797H67.2711V54.5558C67.2711 53.7686 66.633 53.1305 65.8458 53.1305Z" fill="#B0B4C1"/>
<path d="M51.494 33.1503C51.494 31.5678 52.7768 30.285 54.3593 30.285H77.1342C78.7166 30.285 79.9995 31.5678 79.9995 33.1503V37.3526C79.9995 38.1438 79.3581 38.7852 78.5668 38.7852H52.9266C52.1354 38.7852 51.494 38.1438 51.494 37.3526V33.1503Z" fill="#DDE1E8"/>
<path d="M52.3091 45.1208L55.2939 38.7852L76.5704 38.785L79.3873 45.1208V48.0006H52.3091V45.1208Z" fill="#B0B4C1"/>
<path d="M52.3091 71.3695H79.3873V77.1352C79.3873 78.7176 78.1045 80.0005 76.5221 80.0005H55.1743C53.5919 80.0005 52.3091 78.7176 52.3091 77.1352V71.3695Z" fill="#9CA3AF"/>
</svg>
