<svg width="41" height="40" viewBox="0 0 41 40" fill="none" xmlns="http://www.w3.org/2000/svg">
<rect x="0.966797" y="0.3125" width="39.375" height="39.375" rx="19.6875" fill="#FFF8F1"/>
<rect x="0.966797" y="0.3125" width="39.375" height="39.375" rx="19.6875" stroke="#FF5A1F" stroke-width="0.625"/>
<g clip-path="url(#clip0_7184_35159)">
<path d="M20.6543 12.0004C20.3781 12.0004 20.1548 11.7762 20.1548 11.5001V8.50024C20.1548 8.2241 20.3782 8.00037 20.6543 8.00037C20.9311 8.00037 21.1545 8.2241 21.1545 8.50024V11.5001C21.1545 11.7762 20.9311 12.0004 20.6543 12.0004ZM20.6543 31.9996C20.3789 31.9996 20.1548 31.7755 20.1548 31.5001V28.5003C20.1548 28.2234 20.3789 27.9993 20.655 27.9993C20.9312 27.9993 21.1545 28.2234 21.1545 28.5003V31.5001C21.1545 31.7755 20.9311 31.9996 20.6543 31.9996Z" fill="#FF8A4C"/>
<path d="M14.9981 14.3433C14.8025 14.5385 14.4861 14.5385 14.2913 14.3433L12.1695 12.2219C11.9747 12.0267 11.9747 11.7103 12.1695 11.5151C12.216 11.4686 12.2711 11.4318 12.3318 11.4066C12.3925 11.3814 12.4576 11.3685 12.5233 11.3685C12.589 11.3685 12.6541 11.3814 12.7148 11.4066C12.7755 11.4318 12.8306 11.4686 12.8771 11.5151L14.9981 13.6361C15.1936 13.8313 15.1936 14.1481 14.9981 14.3433ZM29.14 28.4849C29.0935 28.5314 29.0384 28.5683 28.9777 28.5934C28.917 28.6186 28.8519 28.6315 28.7862 28.6315C28.7205 28.6315 28.6554 28.6186 28.5947 28.5934C28.534 28.5683 28.4789 28.5314 28.4325 28.4849L26.3114 26.3638C26.1158 26.1682 26.1158 25.8519 26.3114 25.657C26.3578 25.6106 26.413 25.5737 26.4737 25.5485C26.5344 25.5233 26.5995 25.5104 26.6652 25.5104C26.7309 25.5104 26.796 25.5233 26.8567 25.5485C26.9174 25.5737 26.9725 25.6106 27.0189 25.657L29.14 27.7781C29.3348 27.9729 29.3348 28.2893 29.14 28.4849Z" fill="#FF8A4C"/>
<path d="M12.6552 20C12.6552 20.2761 12.4311 20.4999 12.1549 20.4999H9.15504C8.87889 20.4999 8.65554 20.2761 8.65479 20C8.65479 19.7239 8.87889 19.5001 9.15504 19.5001H12.1549C12.431 19.5001 12.6552 19.7239 12.6552 20ZM32.654 20C32.654 20.2761 32.4306 20.4999 32.1545 20.4999H29.1547C28.8785 20.4999 28.6544 20.2761 28.6544 20C28.6544 19.7239 28.8785 19.5001 29.1547 19.5001H32.1545C32.4307 19.5001 32.654 19.7239 32.654 20Z" fill="#FF8A4C"/>
<path d="M20.6545 26.4993C17.0709 26.4993 14.1553 23.5843 14.1553 20C14.1553 16.416 17.0709 13.5003 20.6545 13.5003C24.2389 13.5003 27.1546 16.416 27.1546 20C27.1546 23.5843 24.2389 26.4993 20.6545 26.4993Z" fill="#FCD9BD"/>
<path d="M14.9981 26.3642C15.1936 26.1686 15.1936 25.8522 14.9981 25.6574C14.8025 25.4619 14.4861 25.4619 14.2913 25.6574L12.1695 27.7785C11.9747 27.9733 11.9747 28.2897 12.1695 28.4852C12.216 28.5317 12.2711 28.5686 12.3318 28.5938C12.3925 28.619 12.4576 28.6319 12.5233 28.6319C12.589 28.6319 12.6541 28.619 12.7148 28.5938C12.7755 28.5686 12.8306 28.5317 12.8771 28.4852L14.9981 26.3642Z" fill="#FF8A4C"/>
<path d="M29.14 12.2222C29.3348 12.0271 29.3348 11.7107 29.14 11.5151C28.9444 11.32 28.628 11.32 28.4325 11.5151L26.3114 13.6365C26.1158 13.8317 26.1158 14.1484 26.3114 14.3436C26.507 14.5388 26.8234 14.5388 27.0182 14.3436L29.14 12.2222Z" fill="#FF8A4C"/>
<path d="M20.6543 13.0001C16.7887 13.0001 13.6548 16.134 13.6548 20C13.6548 23.8656 16.7887 27.0003 20.6543 27.0003C24.5206 27.0003 27.6546 23.8656 27.6546 20C27.6546 16.134 24.5206 13.0001 20.6543 13.0001ZM24.8971 24.2421C23.7641 25.3758 22.2575 25.9998 20.6543 25.9998C19.0518 25.9998 17.5453 25.3758 16.4123 24.2421C15.2792 23.1098 14.6545 21.6025 14.6545 20C14.6545 18.3975 15.2792 16.8906 16.4123 15.7576C17.5453 14.6242 19.0518 14.0002 20.6543 14.0002C22.2575 14.0002 23.7641 14.6242 24.8971 15.7576C26.0301 16.8906 26.6541 18.3975 26.6541 20C26.6541 21.6025 26.0301 23.1098 24.8971 24.2421Z" fill="#FF8A4C"/>
</g>
<defs>
<clipPath id="clip0_7184_35159">
<rect width="24" height="24" fill="white" transform="translate(8.6543 8)"/>
</clipPath>
</defs>
</svg>
