<svg width="19" height="18" viewBox="0 0 19 18" fill="none" xmlns="http://www.w3.org/2000/svg">
<g clip-path="url(#clip0_2362_385256)">
<path d="M10.1001 17.8127C9.16256 17.8127 8.18756 17.6627 7.21256 17.3252C2.63756 15.7502 0.200061 10.7252 1.77506 6.11271C3.35006 1.53771 8.37506 -0.899793 12.9876 0.675207C15.1251 1.42521 16.8876 2.92521 17.9001 4.91271C18.0501 5.17521 17.9376 5.51271 17.6751 5.62521C17.4126 5.77521 17.0751 5.66271 16.9626 5.40021C16.0626 3.63771 14.5251 2.32521 12.6501 1.68771C8.60006 0.300207 4.17506 2.43771 2.78756 6.48771C1.40006 10.5377 3.53756 14.9252 7.55006 16.3127C11.5626 17.7002 15.9876 15.5627 17.3751 11.5502C17.4876 11.2502 17.7876 11.1377 18.0501 11.2127C18.3501 11.3252 18.4626 11.6252 18.3876 11.8877C17.1876 15.5252 13.7376 17.8127 10.1001 17.8127Z" fill="#8A8D93"/>
<path d="M17.5626 5.85039L14.45 5.81289C14.15 5.81289 13.925 5.55039 13.925 5.25039C13.925 4.95039 14.1875 4.72539 14.4875 4.72539L17.0751 4.76289L17.1125 2.17539C17.1125 1.87539 17.3375 1.65039 17.675 1.65039C17.975 1.65039 18.2001 1.91289 18.2001 2.21289L18.1251 5.28789C18.1251 5.43789 18.05 5.55039 17.975 5.66289C17.8625 5.77539 17.7125 5.85039 17.5626 5.85039Z" fill="#8A8D93"/>
<path d="M7.77505 10.2377L7.43755 9.4502H5.93755L5.60005 10.2377H4.73755L6.31255 6.6377H7.10005L8.67505 10.2377H7.77505ZM6.68755 7.7252L6.23755 8.7752H7.13755L6.68755 7.7252ZM11 9.7877C10.7375 10.0502 10.4375 10.2002 10.1 10.2002C9.72505 10.2002 9.42505 10.0877 9.20005 9.8252C8.93755 9.5627 8.82505 9.2627 8.82505 8.8502C8.82505 8.4377 8.93755 8.1002 9.20005 7.8377C9.46255 7.57519 9.76255 7.42519 10.0625 7.42519C10.4 7.42519 10.6625 7.57519 10.8875 7.8377V7.46269H11.675V9.86269C11.675 10.1252 11.6375 10.3127 11.5625 10.5377C11.4875 10.7252 11.375 10.8752 11.225 10.9877C10.925 11.2127 10.5875 11.3252 10.2125 11.3252C9.98755 11.3252 9.80005 11.2877 9.57505 11.2127C9.35005 11.1377 9.16255 11.0627 9.01255 10.9127L9.31255 10.3127C9.57505 10.5002 9.83755 10.6127 10.1375 10.6127C10.4375 10.6127 10.6625 10.5377 10.8125 10.3877C10.925 10.3127 11 10.0877 11 9.7877ZM10.8875 8.8127C10.8875 8.5877 10.8125 8.4002 10.7 8.2877C10.5875 8.1752 10.4375 8.1002 10.25 8.1002C10.0625 8.1002 9.91255 8.1752 9.76255 8.2877C9.61255 8.4002 9.57505 8.5877 9.57505 8.8127C9.57505 9.0377 9.65005 9.2252 9.76255 9.3377C9.87505 9.4877 10.0625 9.5252 10.25 9.5252C10.4375 9.5252 10.5875 9.4502 10.7 9.3377C10.85 9.2252 10.8875 9.0377 10.8875 8.8127ZM14.7875 9.86269C14.4875 10.1627 14.1125 10.3127 13.7 10.3127C13.2875 10.3127 12.9125 10.2002 12.65 9.9377C12.3875 9.6752 12.2375 9.3377 12.2375 8.8877C12.2375 8.4377 12.3875 8.1002 12.65 7.8377C12.9125 7.57519 13.25 7.46269 13.625 7.46269C14 7.46269 14.3375 7.57519 14.6 7.80019C14.8625 8.02519 15.0125 8.36269 15.0125 8.73769V9.1502H12.9875C13.025 9.30019 13.1 9.4127 13.2125 9.5252C13.3625 9.6377 13.5125 9.67519 13.6625 9.67519C13.925 9.67519 14.15 9.6002 14.3375 9.4127L14.7875 9.86269ZM14.075 8.2127C13.9625 8.13769 13.85 8.0627 13.7 8.0627C13.55 8.0627 13.4 8.1002 13.2875 8.2127C13.175 8.2877 13.1 8.4377 13.0625 8.5877H14.2625C14.225 8.4377 14.15 8.2877 14.075 8.2127Z" fill="#8A8D93"/>
</g>
<defs>
<clipPath id="clip0_2362_385256">
<rect width="18" height="18" fill="white" transform="translate(0.875)"/>
</clipPath>
</defs>
</svg>
