<svg width="20" height="16" viewBox="0 0 20 16" fill="none" xmlns="http://www.w3.org/2000/svg">
<path d="M19.1249 8.00001C19.1249 8.29838 19.0064 8.58452 18.7954 8.7955C18.5844 9.00648 18.2983 9.12501 17.9999 9.12501H4.21866L9.04866 13.9541C9.26 14.1654 9.37874 14.4521 9.37874 14.7509C9.37874 15.0498 9.26 15.3365 9.04866 15.5478C8.83732 15.7592 8.55067 15.8779 8.25179 15.8779C7.9529 15.8779 7.66625 15.7592 7.45491 15.5478L0.704911 8.79782C0.600031 8.6933 0.516814 8.56911 0.460033 8.43237C0.403252 8.29562 0.374023 8.14901 0.374023 8.00094C0.374023 7.85288 0.403252 7.70627 0.460033 7.56952C0.516814 7.43278 0.600031 7.30859 0.704911 7.20407L7.45491 0.454069C7.55956 0.349422 7.68379 0.266411 7.82052 0.209777C7.95725 0.153142 8.10379 0.123993 8.25179 0.123993C8.39978 0.123993 8.54632 0.153142 8.68305 0.209777C8.81978 0.266411 8.94401 0.349422 9.04866 0.454069C9.15331 0.558716 9.23632 0.68295 9.29295 0.819679C9.34959 0.956407 9.37874 1.10295 9.37874 1.25094C9.37874 1.39894 9.34959 1.54548 9.29295 1.68221C9.23632 1.81894 9.15331 1.94317 9.04866 2.04782L4.21866 6.87501H17.9999C18.2983 6.87501 18.5844 6.99353 18.7954 7.20451C19.0064 7.41549 19.1249 7.70164 19.1249 8.00001Z" fill="#2B4360"/>
</svg>
