<svg width="25" height="25" viewBox="0 0 25 25" fill="none" xmlns="http://www.w3.org/2000/svg">
<path d="M18.914 6.33984V16.0898C18.914 16.2888 18.835 16.4795 18.6943 16.6202C18.5537 16.7608 18.3629 16.8398 18.164 16.8398C17.9651 16.8398 17.7743 16.7608 17.6337 16.6202C17.493 16.4795 17.414 16.2888 17.414 16.0898V8.15016L6.69462 18.8705C6.55389 19.0112 6.36301 19.0903 6.16399 19.0903C5.96497 19.0903 5.7741 19.0112 5.63337 18.8705C5.49264 18.7297 5.41357 18.5389 5.41357 18.3398C5.41357 18.1408 5.49264 17.9499 5.63337 17.8092L16.3537 7.08984H8.41399C8.21508 7.08984 8.02431 7.01083 7.88366 6.87017C7.74301 6.72952 7.66399 6.53876 7.66399 6.33984C7.66399 6.14093 7.74301 5.95017 7.88366 5.80951C8.02431 5.66886 8.21508 5.58984 8.41399 5.58984H18.164C18.3629 5.58984 18.5537 5.66886 18.6943 5.80951C18.835 5.95017 18.914 6.14093 18.914 6.33984Z" fill="#2B4360"/>
</svg>
