<svg width="17" height="18" viewBox="0 0 17 18" fill="none" xmlns="http://www.w3.org/2000/svg">
<path d="M16.2891 8.75041C16.2891 8.25313 16.0915 7.77621 15.7399 7.42458C15.3883 7.07295 14.9113 6.87541 14.4141 6.87541H8.78906V6.17228C9.32551 6.03294 9.80059 5.7196 10.1399 5.28134C10.4792 4.84308 10.6635 4.30466 10.6641 3.75041C10.6641 1.56291 8.59844 0.163687 8.51094 0.105094C8.40823 0.0365692 8.28753 0 8.16406 0C8.0406 0 7.91989 0.0365692 7.81719 0.105094C7.72969 0.163687 5.66406 1.56291 5.66406 3.75041C5.66459 4.30466 5.84894 4.84308 6.18823 5.28134C6.52753 5.7196 7.00261 6.03294 7.53906 6.17228V6.87541H1.91406C1.41678 6.87541 0.939868 7.07295 0.588237 7.42458C0.236607 7.77621 0.0390625 8.25313 0.0390625 8.75041V10.5731C0.0397037 11.2549 0.25874 11.9186 0.664062 12.4668V15.6254C0.664062 16.1227 0.861607 16.5996 1.21324 16.9512C1.56487 17.3029 2.04178 17.5004 2.53906 17.5004H13.7891C14.2863 17.5004 14.7633 17.3029 15.1149 16.9512C15.4665 16.5996 15.6641 16.1227 15.6641 15.6254V12.4668C16.0694 11.9186 16.2884 11.2549 16.2891 10.5731V8.75041ZM6.91406 3.75041C6.91406 2.69025 7.69531 1.83947 8.16406 1.42306C8.63281 1.83947 9.41406 2.69025 9.41406 3.75041C9.41406 4.08193 9.28237 4.39987 9.04795 4.63429C8.81353 4.86871 8.49558 5.00041 8.16406 5.00041C7.83254 5.00041 7.5146 4.86871 7.28018 4.63429C7.04576 4.39987 6.91406 4.08193 6.91406 3.75041ZM1.28906 8.75041C1.28906 8.58465 1.35491 8.42567 1.47212 8.30846C1.58933 8.19125 1.7483 8.12541 1.91406 8.12541H14.4141C14.5798 8.12541 14.7388 8.19125 14.856 8.30846C14.9732 8.42567 15.0391 8.58465 15.0391 8.75041V10.5731C15.0391 11.6082 14.2219 12.4723 13.2172 12.4996C12.9666 12.5067 12.7171 12.4635 12.4835 12.3725C12.2499 12.2815 12.0369 12.1446 11.8572 11.9699C11.6774 11.7951 11.5345 11.5861 11.4369 11.3552C11.3393 11.1243 11.2891 10.8761 11.2891 10.6254C11.2891 10.4596 11.2232 10.3007 11.106 10.1835C10.9888 10.0663 10.8298 10.0004 10.6641 10.0004C10.4983 10.0004 10.3393 10.0663 10.2221 10.1835C10.1049 10.3007 10.0391 10.4596 10.0391 10.6254C10.0391 11.1227 9.84152 11.5996 9.48989 11.9512C9.13826 12.3029 8.66134 12.5004 8.16406 12.5004C7.66678 12.5004 7.18987 12.3029 6.83824 11.9512C6.48661 11.5996 6.28906 11.1227 6.28906 10.6254C6.28906 10.4596 6.22321 10.3007 6.106 10.1835C5.98879 10.0663 5.82982 10.0004 5.66406 10.0004C5.4983 10.0004 5.33933 10.0663 5.22212 10.1835C5.10491 10.3007 5.03906 10.4596 5.03906 10.6254C5.03916 10.8762 4.98896 11.1244 4.89143 11.3554C4.7939 11.5864 4.65102 11.7956 4.47124 11.9704C4.29146 12.1452 4.07845 12.2822 3.84479 12.3732C3.61114 12.4643 3.3616 12.5075 3.11094 12.5004C2.10625 12.4723 1.28906 11.6082 1.28906 10.5731V8.75041ZM13.7891 16.2504H2.53906C2.3733 16.2504 2.21433 16.1846 2.09712 16.0673C1.97991 15.9501 1.91406 15.7912 1.91406 15.6254V13.4817C2.27991 13.6474 2.67508 13.7388 3.07656 13.7504C3.49426 13.7634 3.91027 13.6918 4.29961 13.54C4.68895 13.3881 5.04357 13.1592 5.34219 12.8668C5.45878 12.7532 5.56639 12.6307 5.66406 12.5004C5.95515 12.8885 6.3326 13.2035 6.76652 13.4205C7.20044 13.6375 7.67892 13.7504 8.16406 13.7504C8.6492 13.7504 9.12768 13.6375 9.56161 13.4205C9.99553 13.2035 10.373 12.8885 10.6641 12.5004C10.762 12.6302 10.8699 12.7521 10.9867 12.8652C11.5681 13.4347 12.3502 13.7527 13.1641 13.7504C13.1938 13.7504 13.2234 13.7504 13.2531 13.7504C13.6541 13.7386 14.0487 13.6472 14.4141 13.4817V15.6254C14.4141 15.7912 14.3482 15.9501 14.231 16.0673C14.1138 16.1846 13.9548 16.2504 13.7891 16.2504Z" fill="#8A8D93"/>
</svg>
