<svg width="43" height="43" viewBox="0 0 43 43" fill="none" xmlns="http://www.w3.org/2000/svg">
<rect x="0.109375" y="0.339844" width="42" height="42" rx="6" fill="#E29578" fill-opacity="0.2"/>
<path d="M28.5498 25.9676C28.2312 25.9677 27.9218 25.8646 27.6716 25.675C27.4214 25.4855 27.245 25.2205 27.1708 24.9229L25.1305 16.695C25.115 16.6332 25.0801 16.5775 25.0305 16.5353C24.981 16.4932 24.9192 16.4666 24.8534 16.4593C24.7877 16.452 24.7212 16.4642 24.6629 16.4944C24.6046 16.5245 24.5574 16.5711 24.5276 16.6278L22.1301 21.2332C22.0073 21.4635 21.8196 21.656 21.5885 21.7888C21.3573 21.9216 21.0919 21.9893 20.8226 21.9843C20.5529 21.9761 20.2912 21.8943 20.0682 21.7485C19.8452 21.6027 19.67 21.3988 19.5632 21.1609L18.5977 18.9985H13.4231C13.2782 18.9985 13.1393 18.9432 13.0369 18.8448C12.9345 18.7465 12.877 18.6131 12.877 18.474C12.877 18.3349 12.9345 18.2015 13.0369 18.1031C13.1393 18.0048 13.2782 17.9495 13.4231 17.9495H18.9581C19.065 17.9495 19.1695 17.9795 19.2588 18.036C19.348 18.0925 19.418 18.173 19.46 18.2673L20.567 20.7476C20.5914 20.8018 20.6314 20.8483 20.6823 20.8815C20.7331 20.9147 20.7928 20.9334 20.8543 20.9353C20.9163 20.9397 20.9783 20.9256 21.0317 20.8949C21.085 20.8642 21.1272 20.8184 21.1525 20.7638L23.55 16.159C23.6797 15.9091 23.8864 15.7036 24.142 15.5705C24.3976 15.4375 24.6897 15.3832 24.9785 15.4152C25.2673 15.4472 25.5389 15.5638 25.7562 15.7493C25.9736 15.9347 26.1262 16.1799 26.1933 16.4516L28.2331 24.6801C28.2478 24.7396 28.2806 24.7935 28.3272 24.8352C28.3739 24.8768 28.4323 24.9042 28.4952 24.914C28.5581 24.9245 28.6228 24.9166 28.6809 24.8913C28.739 24.8661 28.7879 24.8246 28.8213 24.7724L30.7955 21.7399C30.8446 21.6644 30.9129 21.6022 30.9939 21.5591C31.0749 21.516 31.166 21.4934 31.2586 21.4934H35.5632C35.7081 21.4934 35.847 21.5486 35.9494 21.647C36.0518 21.7453 36.1094 21.8787 36.1094 22.0178C36.1094 22.1569 36.0518 22.2903 35.9494 22.3887C35.847 22.4871 35.7081 22.5423 35.5632 22.5423H31.5612L29.7475 25.3288C29.6209 25.5243 29.4445 25.6856 29.2349 25.7974C29.0253 25.9091 28.7895 25.9677 28.5498 25.9676Z" fill="#E29578" stroke="#E29578" stroke-width="0.2"/>
<path d="M24.3984 22.1814C24.3522 22.0512 24.2566 21.9444 24.1322 21.8843C24.0078 21.8241 23.8647 21.8155 23.734 21.8603C23.6033 21.9051 23.4956 21.9996 23.4342 22.1233C23.3728 22.2471 23.3627 22.3901 23.4061 22.5212C23.6646 23.2237 23.714 23.2132 23.734 23.9614C23.734 26.0479 22.9052 28.0489 21.4298 29.5243C19.9545 30.9996 17.9534 31.8285 15.867 31.8285C13.7805 31.8285 11.7794 30.9996 10.3041 29.5243C8.82872 28.0489 7.99987 26.0479 7.99987 23.9614C7.99987 19.6088 14.2621 12.7618 15.867 11.0783C17.8948 13.1938 18.7331 13.9852 20.3573 16.4244C20.4335 16.5389 20.5517 16.6189 20.6863 16.6472C20.821 16.6754 20.9613 16.6495 21.0771 16.5752C21.1929 16.5009 21.2749 16.3841 21.3053 16.2499C21.3358 16.1158 21.3123 15.975 21.2399 15.858C19.4774 13.2069 18.4666 12.2275 16.2378 9.95434C16.1394 9.85602 16.006 9.80078 15.867 9.80078C15.7279 9.80078 15.5945 9.85602 15.4962 9.95434C15.1474 10.3031 6.95093 18.5615 6.95093 23.9614C6.95093 26.3261 7.89029 28.5939 9.56237 30.266C11.2344 31.9381 13.5023 32.8774 15.867 32.8774C18.2316 32.8774 20.4995 31.9381 22.1715 30.266C23.8436 28.5939 24.783 26.3261 24.783 23.9614C24.6995 23.1026 24.6944 23.0173 24.3984 22.1814Z" fill="#E29578" stroke="#E29578" stroke-width="0.289362"/>
</svg>
