<svg width="43" height="43" viewBox="0 0 43 43" fill="none" xmlns="http://www.w3.org/2000/svg">
<rect x="0.109375" y="0.339844" width="42" height="42" rx="6" fill="#F12647" fill-opacity="0.2"/>
<path d="M21.7724 8.48956C21.6854 8.40247 21.5821 8.33338 21.4684 8.28624C21.3546 8.23911 21.2327 8.21484 21.1096 8.21484C20.9865 8.21484 20.8646 8.23911 20.7509 8.28624C20.6371 8.33338 20.5338 8.40247 20.4468 8.48956C20.0911 8.84478 11.7346 17.2914 11.7346 25.0899C11.7346 27.5763 12.7223 29.9608 14.4805 31.719C16.2386 33.4772 18.6232 34.4649 21.1096 34.4649C23.596 34.4649 25.9806 33.4772 27.7387 31.719C29.4969 29.9608 30.4846 27.5763 30.4846 25.0899C30.4846 17.2914 22.1281 8.84478 21.7724 8.48956ZM21.1096 32.5899C19.1212 32.5876 17.2149 31.7967 15.8088 30.3907C14.4028 28.9846 13.6119 27.0783 13.6096 25.0899C13.6096 19.2699 19.1641 12.657 21.1096 10.5202C23.0561 12.6561 28.6096 19.2616 28.6096 25.0899C28.6073 27.0783 27.8164 28.9846 26.4104 30.3907C25.0044 31.7967 23.098 32.5876 21.1096 32.5899Z" fill="#F12647" fill-opacity="0.7"/>
<path d="M23.9221 24.1523H22.0471V22.2773C22.0471 22.0287 21.9483 21.7902 21.7725 21.6144C21.5967 21.4386 21.3583 21.3398 21.1096 21.3398C20.861 21.3398 20.6225 21.4386 20.4467 21.6144C20.2709 21.7902 20.1721 22.0287 20.1721 22.2773V24.1523H18.2971C18.0485 24.1523 17.81 24.2511 17.6342 24.4269C17.4584 24.6027 17.3596 24.8412 17.3596 25.0898C17.3596 25.3385 17.4584 25.5769 17.6342 25.7528C17.81 25.9286 18.0485 26.0273 18.2971 26.0273H20.1721V27.9023C20.1721 28.151 20.2709 28.3894 20.4467 28.5653C20.6225 28.7411 20.861 28.8398 21.1096 28.8398C21.3583 28.8398 21.5967 28.7411 21.7725 28.5653C21.9483 28.3894 22.0471 28.151 22.0471 27.9023V26.0273H23.9221C24.1708 26.0273 24.4092 25.9286 24.585 25.7528C24.7608 25.5769 24.8596 25.3385 24.8596 25.0898C24.8596 24.8412 24.7608 24.6027 24.585 24.4269C24.4092 24.2511 24.1708 24.1523 23.9221 24.1523Z" fill="#F12647" fill-opacity="0.7"/>
</svg>
