<svg width="43" height="43" viewBox="0 0 43 43" fill="none" xmlns="http://www.w3.org/2000/svg">
<rect x="0.109375" y="0.339844" width="42" height="42" rx="6" fill="#2ECF98" fill-opacity="0.2"/>
<path fill-rule="evenodd" clip-rule="evenodd" d="M21.1104 13.8398C22.1459 13.8398 22.9854 13.0004 22.9854 11.9648C22.9854 10.9293 22.1459 10.0898 21.1104 10.0898C20.0748 10.0898 19.2354 10.9293 19.2354 11.9648C19.2354 13.0004 20.0748 13.8398 21.1104 13.8398ZM21.1104 15.0898C22.8362 15.0898 24.2354 13.6907 24.2354 11.9648C24.2354 10.239 22.8362 8.83984 21.1104 8.83984C19.3845 8.83984 17.9854 10.239 17.9854 11.9648C17.9854 13.6907 19.3845 15.0898 21.1104 15.0898Z" fill="#2ECF98"/>
<path fill-rule="evenodd" clip-rule="evenodd" d="M16.9686 17.7868C17.5582 17.899 17.9848 18.4145 17.9848 19.0148V31.9653C17.9848 32.3105 18.2646 32.5903 18.6098 32.5903H18.6641C18.9873 32.5903 19.2573 32.3438 19.2865 32.0219L19.8598 25.7153C19.8616 25.0262 20.4208 24.4685 21.1098 24.4685C21.7989 24.4685 22.358 25.0262 22.3598 25.7152L22.9331 32.0219C22.9624 32.3438 23.2323 32.5903 23.5556 32.5903H23.6098C23.955 32.5903 24.2348 32.3105 24.2348 31.9653V19.0384C24.2348 18.438 24.6616 17.9225 25.2513 17.8104C26.3488 17.6017 27.5093 17.312 28.7847 16.9404C29.1161 16.8438 29.3065 16.4968 29.2099 16.1654C29.1133 15.834 28.7664 15.6437 28.435 15.7403C25.5386 16.5844 23.3165 16.975 21.1125 16.9652C18.9063 16.9552 16.6815 16.544 13.777 15.7381C13.4443 15.6458 13.0999 15.8406 13.0076 16.1732C12.9153 16.5059 13.1101 16.8503 13.4428 16.9425C14.7135 17.2952 15.8715 17.578 16.9686 17.7868ZM20.471 32.4669C20.2501 33.2652 19.5193 33.8403 18.6641 33.8403H18.6098C17.5743 33.8403 16.7348 33.0009 16.7348 31.9653V19.0148C15.5937 18.7976 14.4006 18.5056 13.1085 18.147C12.1107 17.8702 11.5262 16.8368 11.8031 15.839C12.08 14.8412 13.1133 14.2567 14.1111 14.5336C16.967 15.326 19.0705 15.706 21.1181 15.7152C23.1591 15.7243 25.2545 15.3652 28.0852 14.5402C29.0794 14.2505 30.1202 14.8215 30.41 15.8157C30.6997 16.8098 30.1286 17.8507 29.1345 18.1404C27.8318 18.52 26.6314 18.8204 25.4848 19.0384V31.9653C25.4848 33.0009 24.6454 33.8403 23.6098 33.8403H23.5556C22.7003 33.8403 21.9695 33.2652 21.7486 32.4669C21.7284 32.3935 21.7124 32.3182 21.701 32.2414C21.6958 32.2063 21.6915 32.1708 21.6883 32.135L21.115 25.8285C21.1116 25.7917 21.11 25.7551 21.1098 25.7185C21.1097 25.7551 21.108 25.7917 21.1047 25.8285L20.5314 32.135C20.5281 32.1708 20.5239 32.2063 20.5187 32.2414C20.5073 32.3182 20.4913 32.3935 20.471 32.4669Z" fill="#2ECF98"/>
</svg>
