<svg width="81" height="81" viewBox="0 0 81 81" fill="none" xmlns="http://www.w3.org/2000/svg">
<g clip-path="url(#clip0_3886_2587)">
<path fill-rule="evenodd" clip-rule="evenodd" d="M17.6439 4.10156C18.1236 4.10156 18.5143 4.49044 18.5143 4.97191C18.5143 5.45153 18.1254 5.84226 17.6439 5.84226H14.9292C14.4496 5.84226 14.0588 5.45338 14.0588 4.97191C14.0588 4.49229 14.4477 4.10156 14.9292 4.10156H17.6439ZM17.6439 8.75701C18.1236 8.75701 18.5143 9.14589 18.5143 9.62736C18.5143 10.107 18.1254 10.4977 17.6439 10.4977H14.9292C14.4496 10.4977 14.0588 10.1088 14.0588 9.62736C14.0588 9.14774 14.4477 8.75701 14.9292 8.75701H17.6439ZM17.6439 13.4125C18.1236 13.4125 18.5143 13.8013 18.5143 14.2828C18.5143 14.7643 18.1254 15.1532 17.6439 15.1532H14.9292C14.4496 15.1532 14.0588 14.7643 14.0588 14.2828C14.0588 13.8013 14.4477 13.4125 14.9292 13.4125H17.6439ZM17.6439 18.0679C18.1236 18.0679 18.5143 18.4568 18.5143 18.9383C18.5143 19.4179 18.1254 19.8086 17.6439 19.8086H14.9292C14.4496 19.8086 14.0588 19.4197 14.0588 18.9383C14.0588 18.4586 14.4477 18.0679 14.9292 18.0679H17.6439ZM17.6439 22.7234C18.1236 22.7234 18.5143 23.1122 18.5143 23.5937C18.5143 24.0733 18.1254 24.4641 17.6439 24.4641H14.9292C14.4496 24.4641 14.0588 24.0752 14.0588 23.5937C14.0588 23.1141 14.4477 22.7234 14.9292 22.7234H17.6439ZM17.6439 27.3788C18.1236 27.3788 18.5143 27.7677 18.5143 28.2492C18.5143 28.7288 18.1254 29.1195 17.6439 29.1195H14.9292C14.4496 29.1195 14.0588 28.7306 14.0588 28.2492C14.0588 27.7695 14.4477 27.3788 14.9292 27.3788H17.6439ZM17.6439 32.0342C18.1236 32.0342 18.5143 32.4231 18.5143 32.9046C18.5143 33.3842 18.1254 33.7749 17.6439 33.7749H14.9292C14.4496 33.7749 14.0588 33.3861 14.0588 32.9046C14.0588 32.425 14.4477 32.0342 14.9292 32.0342H17.6439ZM17.6439 36.6897C18.1236 36.6897 18.5143 37.0786 18.5143 37.56C18.5143 38.0415 18.1254 38.4304 17.6439 38.4304H14.9292C14.4496 38.4304 14.0588 38.0415 14.0588 37.56C14.0588 37.0786 14.4477 36.6897 14.9292 36.6897H17.6439ZM17.6439 41.3451C18.1236 41.3451 18.5143 41.734 18.5143 42.2155C18.5143 42.6951 18.1254 43.0858 17.6439 43.0858H14.9292C14.4496 43.0858 14.0588 42.697 14.0588 42.2155C14.0588 41.7359 14.4477 41.3451 14.9292 41.3451H17.6439ZM17.6439 46.0006C18.1236 46.0006 18.5143 46.3895 18.5143 46.8709C18.5143 47.3506 18.1254 47.7413 17.6439 47.7413H14.9292C14.4496 47.7413 14.0588 47.3524 14.0588 46.8709C14.0588 46.3913 14.4477 46.0006 14.9292 46.0006H17.6439ZM17.6439 50.656C18.1236 50.656 18.5143 51.0449 18.5143 51.5264C18.5143 52.006 18.1254 52.3967 17.6439 52.3967H14.9292C14.4496 52.3967 14.0588 52.0079 14.0588 51.5264C14.0588 51.0468 14.4477 50.656 14.9292 50.656H17.6439ZM17.6439 55.3115C18.1236 55.3115 18.5143 55.7004 18.5143 56.1818C18.5143 56.6615 18.1254 57.0522 17.6439 57.0522H14.9292C14.4496 57.0522 14.0588 56.6633 14.0588 56.1818C14.0588 55.7022 14.4477 55.3115 14.9292 55.3115H17.6439ZM17.6439 59.9669C18.1236 59.9669 18.5143 60.3558 18.5143 60.8373C18.5143 61.3169 18.1254 61.7076 17.6439 61.7076H14.9292C14.4496 61.7076 14.0588 61.3188 14.0588 60.8373C14.0588 60.3577 14.4477 59.9669 14.9292 59.9669H17.6439ZM17.6439 64.6224C18.1236 64.6224 18.5143 65.0113 18.5143 65.4927C18.5143 65.9724 18.1254 66.3631 17.6439 66.3631H14.9292C14.4496 66.3631 14.0588 65.9742 14.0588 65.4927C14.0588 65.0131 14.4477 64.6224 14.9292 64.6224H17.6439ZM17.6439 69.2778C18.1236 69.2778 18.5143 69.6667 18.5143 70.1482C18.5143 70.6278 18.1254 71.0185 17.6439 71.0185H14.9292C14.4496 71.0185 14.0588 70.6297 14.0588 70.1482C14.0588 69.6686 14.4477 69.2778 14.9292 69.2778H17.6439ZM17.6439 73.9333C18.1236 73.9333 18.5143 74.3222 18.5143 74.8036C18.5143 75.2833 18.1254 75.674 17.6439 75.674H14.9292C14.4496 75.674 14.0588 75.2851 14.0588 74.8036C14.0588 74.324 14.4477 73.9333 14.9292 73.9333H17.6439Z" fill="#8D929C"/>
<path fill-rule="evenodd" clip-rule="evenodd" d="M18.5141 79.4677C18.5141 79.9473 18.1253 80.338 17.6438 80.338C17.1642 80.338 16.7734 79.9491 16.7734 79.4677V1.21019C16.7734 0.730575 17.1623 0.339844 17.6438 0.339844C18.1234 0.339844 18.5141 0.728723 18.5141 1.21019V79.4677Z" fill="#8D929C"/>
<path fill-rule="evenodd" clip-rule="evenodd" d="M29.4528 42.6415C29.4565 42.173 30.1472 41.7971 30.5732 41.8008C40.684 41.886 36.1545 41.886 46.2654 41.8008C46.6913 41.7971 47.3802 42.173 47.382 42.6415L47.7857 71.3205C47.7987 72.1779 47.4228 73.5167 46.8376 74.1575C46.4709 74.5593 45.9691 74.8167 45.4136 74.8408C45.3839 74.8445 45.3562 74.8463 45.3265 74.8463H31.5083V74.8426H31.5046H31.4898H31.4861C30.9065 74.8352 30.3787 74.5741 29.9973 74.1556C29.3028 73.3945 29.038 72.0038 29.0528 70.9427L29.4528 42.6415Z" fill="#AFB6C3"/>
<path fill-rule="evenodd" clip-rule="evenodd" d="M36.9674 41.8582C39.2952 41.8767 39.6007 41.8564 46.2635 41.8008C46.6894 41.7971 47.3783 42.173 47.3801 42.6415L47.5968 57.9634C45.532 57.106 43.6358 55.8449 42.0173 54.2264C38.7729 50.9821 36.9656 46.6192 36.9656 42.0323C36.9674 41.9749 36.9674 41.9156 36.9674 41.8582Z" fill="#9DA4B0"/>
<path fill-rule="evenodd" clip-rule="evenodd" d="M39.2692 74.8468H37.5674V58.5453C37.5674 58.0749 37.9489 57.6953 38.4174 57.6953C38.8859 57.6953 39.2673 58.0768 39.2673 58.5453V74.8468H39.2692Z" fill="#9DA4B0"/>
<path fill-rule="evenodd" clip-rule="evenodd" d="M40.7155 21.2759C40.7192 21.2241 40.7266 21.1722 40.7395 21.1204C40.8525 20.6648 41.3154 20.3889 41.7691 20.5019L49.8578 22.5407C50.9004 22.8037 51.8837 23.2685 52.5856 23.9703C53.2392 24.624 53.6466 25.4647 53.6466 26.511V44.0495C53.6466 45.1494 53.1967 46.1476 52.4726 46.8716C51.7485 47.5957 50.7486 48.0457 49.6504 48.0457H48.6634H47.6764H29.1565H28.1713H27.1861C26.0862 48.0457 25.088 47.5957 24.364 46.8716C23.6399 46.1476 23.1899 45.1494 23.1899 44.0495V26.511C23.1899 25.4647 23.5973 24.624 24.251 23.9703C24.9529 23.2685 25.9362 22.8037 26.9787 22.5407L35.0674 20.5019C35.523 20.3889 35.9841 20.6648 36.097 21.1204C36.11 21.1722 36.1174 21.2241 36.1211 21.2759H40.7155Z" fill="#DDE1E8"/>
<path fill-rule="evenodd" clip-rule="evenodd" d="M53.2245 24.8125C53.4948 25.3032 53.6485 25.868 53.6485 26.5106V44.0491C53.6485 45.1491 53.1985 46.1472 52.4745 46.8712C51.7504 47.5953 50.7504 48.0453 49.6523 48.0453H48.6653H47.6783H38.0452C37.3378 46.1416 36.9656 44.1083 36.9656 42.0306C36.9656 37.4418 38.7729 33.079 42.0173 29.8365C45.0284 26.8254 49.0023 25.0532 53.2245 24.8125Z" fill="#D0D4DC"/>
<path d="M34.423 20.057C34.423 19.5867 34.8045 19.207 35.273 19.207C35.4748 19.207 41.3617 19.207 41.5636 19.207C42.0339 19.207 42.4136 19.5885 42.4136 20.057V22.3347C42.4136 24.5347 40.6173 26.3309 38.4173 26.3309C37.3174 26.3309 36.3174 25.881 35.5952 25.1569C34.8711 24.4328 34.4211 23.4329 34.4211 22.3347V20.057H34.423Z" fill="#F3F4F6"/>
<path fill-rule="evenodd" clip-rule="evenodd" d="M32.5861 73.1445H34.4565C35.275 73.1445 36.0175 73.4779 36.5564 74.0167C37.0953 74.5556 37.4286 75.2982 37.4286 76.1167V78.237C37.4286 78.7074 37.0471 79.087 36.5786 79.087H30.4677C29.9973 79.087 29.6177 78.7055 29.6177 78.237V76.1167C29.6177 75.2982 29.951 74.5556 30.4899 74.0167C31.0251 73.4779 31.7676 73.1445 32.5861 73.1445ZM42.3822 73.1445H44.2525C45.071 73.1445 45.8136 73.4779 46.3525 74.0167C46.8914 74.5556 47.2247 75.2982 47.2247 76.1167V78.237C47.2247 78.7074 46.8432 79.087 46.3747 79.087H40.2637C39.7934 79.087 39.4137 78.7055 39.4137 78.237V76.1167C39.4137 75.2982 39.7471 74.5556 40.2859 74.0167C40.8211 73.4779 41.5637 73.1445 42.3822 73.1445Z" fill="#9CA3AF"/>
<path d="M38.4173 4.97656C40.295 4.97656 42.0005 5.74321 43.2357 6.98022C44.4708 8.21723 45.2393 9.92274 45.2393 11.7986V14.9874C45.2393 16.8652 44.4727 18.5707 43.2357 19.8058C41.9987 21.0429 40.2932 21.8095 38.4173 21.8095C36.5395 21.8095 34.834 21.0429 33.5989 19.8058C32.3619 18.5707 31.5952 16.8633 31.5952 14.9874V11.7986C31.5952 9.92089 32.3619 8.21538 33.5989 6.98022C34.8359 5.74321 36.5414 4.97656 38.4173 4.97656Z" fill="#F3F4F6"/>
<path d="M34.6989 22.3467C37.3081 22.6041 39.3673 22.3374 40.9303 21.893C41.4858 21.7356 41.9802 21.5541 42.4136 21.3671V20.6652V20.5078C42.3598 20.5467 42.3043 20.5856 42.2487 20.6245C41.7765 20.9467 41.2636 21.2115 40.7173 21.4078C39.9988 21.667 39.2229 21.8078 38.4173 21.8078C37.6118 21.8078 36.8378 21.667 36.1174 21.4078C35.5711 21.2115 35.0582 20.9467 34.586 20.6245C34.5304 20.5874 34.4748 20.5486 34.4211 20.5078V20.6652V22.3189C34.5156 22.3281 34.6063 22.3393 34.6989 22.3467Z" fill="#E8E8EA"/>
<path fill-rule="evenodd" clip-rule="evenodd" d="M23.1882 26.5096V32.6835H29.3714V21.9375L26.9789 22.5412C25.9363 22.8041 24.9512 23.269 24.2512 23.9708C23.5956 24.6245 23.1882 25.4633 23.1882 26.5096Z" fill="#C5C9D0"/>
<path d="M23.1882 32.6875V44.0521C23.1882 45.152 23.6382 46.1502 24.3623 46.8742C25.0863 47.5983 26.0863 48.0483 27.1844 48.0483H28.1696H28.8603H29.1548H29.3696V41.9132V32.6875H23.1882Z" fill="#F3F4F6"/>
<path fill-rule="evenodd" clip-rule="evenodd" d="M53.6485 26.5096V32.6835H47.4653V21.9375L49.8579 22.5412C50.9004 22.8041 51.8856 23.269 52.5856 23.9708C53.2411 24.6245 53.6485 25.4633 53.6485 26.5096Z" fill="#C5C9D0"/>
<path fill-rule="evenodd" clip-rule="evenodd" d="M53.6485 26.5125V32.6864H47.4653V26.1551C49.2783 25.3847 51.2226 24.9273 53.2245 24.8125C53.4948 25.3069 53.6485 25.8699 53.6485 26.5125Z" fill="#B5B8BE"/>
<path d="M53.6486 32.6875V44.0521C53.6486 45.152 53.1986 46.1502 52.4746 46.8742C51.7505 47.5983 50.7505 48.0483 49.6524 48.0483H48.6673H47.9765H47.6821H47.4673V41.9132V32.6875H53.6486Z" fill="#F9C5B8"/>
<path fill-rule="evenodd" clip-rule="evenodd" d="M31.5952 12.6208C32.5767 11.5227 34.6488 10.6246 39.0043 12.0931C41.6913 12.9986 43.7246 13.369 45.2393 13.4653V11.7986C45.2393 9.92089 44.4727 8.21538 43.2357 6.98022C41.9987 5.74506 40.2932 4.97656 38.4173 4.97656C36.6988 4.97656 35.1229 5.62099 33.9211 6.67837C33.81 6.77652 33.7026 6.87652 33.5989 6.98022C32.3637 8.21723 31.5952 9.92274 31.5952 11.7986V12.6208Z" fill="#9CA3AF"/>
<path d="M70.0006 42.1403C70.0006 50.8391 62.9465 57.8899 54.2485 57.8899C45.5506 57.8899 38.5015 50.8391 38.5015 42.1403C38.5015 33.4414 45.5506 26.3906 54.2485 26.3906C62.9465 26.3906 70.0006 33.4414 70.0006 42.1403Z" fill="#DDE1E8"/>
<path d="M70.0009 42.1392C70.0009 50.838 62.9468 57.8888 54.2488 57.8888C49.1259 57.8888 44.5777 55.4444 41.7036 51.6595C44.4389 53.7433 47.7842 54.8697 51.2234 54.8649C59.9214 54.8649 66.9755 47.8141 66.9755 39.1152C66.9755 35.5369 65.7805 32.2358 63.7686 29.5898C67.5554 32.4676 70.0009 37.0186 70.0009 42.1392Z" fill="#C9CFD8"/>
<path d="M65.8811 31.5263C63.0826 28.9862 59.3715 27.4339 55.2923 27.4339C46.5943 27.4339 39.5452 34.4847 39.5452 43.1835C39.5452 47.2759 41.1033 51.0004 43.6597 53.7975C40.4932 50.9197 38.5015 46.7618 38.5015 42.1403C38.5015 33.4414 45.5506 26.3906 54.2485 26.3906C58.8572 26.3906 63.0019 28.3713 65.8811 31.5263Z" fill="#EEF2FB"/>
<path d="M62.9233 32.8412L56.8726 38.889C56.177 39.5837 55.2339 39.9739 54.2506 39.9739C53.2673 39.9739 52.3242 39.5837 51.6286 38.889L45.5779 32.8412C47.852 30.7144 50.9025 29.4141 54.2506 29.4141C57.5936 29.4141 60.6493 30.7144 62.9233 32.8412Z" fill="#E8EBF1"/>
<path d="M62.9214 32.8412L62.8457 32.9168C60.64 31.238 57.9438 30.3297 55.1714 30.3313C51.8233 30.3313 48.7727 31.6316 46.4987 33.7584L51.6267 38.889L45.5759 32.8412C47.85 30.7144 50.9006 29.4141 54.2487 29.4141C57.5917 29.4141 60.6473 30.7144 62.9214 32.8412Z" fill="#EEF2FB"/>
<mask id="mask0_3886_2587" style="mask-type:alpha" maskUnits="userSpaceOnUse" x="45" y="29" width="18" height="11">
<path d="M54.2507 29.9141C57.2764 29.9141 60.056 31.0236 62.1951 32.8613L56.5193 38.5352C55.9175 39.1362 55.1015 39.4736 54.2507 39.4736C53.3999 39.4736 52.584 39.1361 51.9822 38.5352L46.3054 32.8613C48.4442 31.0233 51.2202 29.9141 54.2507 29.9141Z" fill="#CBDFED" stroke="#C9CFD8"/>
</mask>
<g mask="url(#mask0_3886_2587)">
<path d="M60.5997 31.1797L59.6479 32.7571" stroke="#9CA2AA" stroke-width="0.7" stroke-linecap="round"/>
<path d="M57.5674 29.8883L57.0682 31.6615" stroke="#9CA2AA" stroke-width="0.7" stroke-linecap="round"/>
<path d="M54.2451 29.4643L54.2483 31.3063" stroke="#9CA2AA" stroke-width="0.7" stroke-linecap="round"/>
<path d="M50.9521 29.8948L51.4659 31.6638" stroke="#9CA2AA" stroke-width="0.7" stroke-linecap="round"/>
<path d="M47.9145 31.1849L48.8424 32.7764" stroke="#9CA2AA" stroke-width="0.7" stroke-linecap="round"/>
</g>
<path d="M54.2509 38.3205C54.8585 38.3205 55.3511 37.8281 55.3511 37.2208C55.3511 36.6134 54.8585 36.1211 54.2509 36.1211C53.6432 36.1211 53.1506 36.6134 53.1506 37.2208C53.1506 37.8281 53.6432 38.3205 54.2509 38.3205Z" fill="#5E636C"/>
<path d="M56.9016 32.9519C56.8595 32.9255 56.8126 32.9078 56.7636 32.8996C56.7146 32.8915 56.6645 32.8931 56.6161 32.9044C56.5677 32.9157 56.5221 32.9364 56.4818 32.9654C56.4415 32.9944 56.4073 33.0311 56.3812 33.0733L54.6799 35.814C54.5414 35.7692 54.3969 35.7454 54.2513 35.7435C53.436 35.7435 52.7729 36.4062 52.7729 37.2201C52.7729 38.0341 53.436 38.6978 54.2508 38.6978C55.0657 38.6978 55.7292 38.0351 55.7292 37.2206C55.7292 36.829 55.5729 36.4747 55.3238 36.2102L57.0236 33.4725C57.0498 33.4304 57.0675 33.3836 57.0756 33.3346C57.0837 33.2857 57.0821 33.2357 57.0709 33.1874C57.0597 33.1391 57.039 33.0935 57.0101 33.0531C56.9812 33.0128 56.9447 32.9786 56.9026 32.9524L56.9016 32.9519ZM54.9724 37.2201C54.9724 37.6183 54.6487 37.9419 54.2508 37.9419C53.853 37.9419 53.5288 37.6178 53.5288 37.2201C53.5288 36.1683 54.9724 36.378 54.9724 37.2201Z" fill="#9CA2AA"/>
<path fill-rule="evenodd" clip-rule="evenodd" d="M65.6391 78.5977C66.1187 78.5977 66.5094 78.9865 66.5094 79.468C66.5094 79.9476 66.1205 80.3384 65.6391 80.3384H11.1977C10.7181 80.3384 10.3274 79.9495 10.3274 79.468C10.3274 78.9884 10.7163 78.5977 11.1977 78.5977H65.6391Z" fill="#8D929C"/>
</g>
<defs>
<clipPath id="clip0_3886_2587">
<rect width="80" height="80" fill="white" transform="translate(0.164062 0.339844)"/>
</clipPath>
</defs>
</svg>
