<svg width="17" height="16" viewBox="0 0 17 16" fill="none" xmlns="http://www.w3.org/2000/svg">
<path d="M13.875 2H12.375V1.5C12.375 1.36739 12.3223 1.24021 12.2286 1.14645C12.1348 1.05268 12.0076 1 11.875 1C11.7424 1 11.6152 1.05268 11.5214 1.14645C11.4277 1.24021 11.375 1.36739 11.375 1.5V2H6.375V1.5C6.375 1.36739 6.32232 1.24021 6.22855 1.14645C6.13479 1.05268 6.00761 1 5.875 1C5.74239 1 5.61521 1.05268 5.52145 1.14645C5.42768 1.24021 5.375 1.36739 5.375 1.5V2H3.875C3.60978 2 3.35543 2.10536 3.16789 2.29289C2.98036 2.48043 2.875 2.73478 2.875 3V13C2.875 13.2652 2.98036 13.5196 3.16789 13.7071C3.35543 13.8946 3.60978 14 3.875 14H13.875C14.1402 14 14.3946 13.8946 14.5821 13.7071C14.7696 13.5196 14.875 13.2652 14.875 13V3C14.875 2.73478 14.7696 2.48043 14.5821 2.29289C14.3946 2.10536 14.1402 2 13.875 2ZM5.375 3V3.5C5.375 3.63261 5.42768 3.75979 5.52145 3.85355C5.61521 3.94732 5.74239 4 5.875 4C6.00761 4 6.13479 3.94732 6.22855 3.85355C6.32232 3.75979 6.375 3.63261 6.375 3.5V3H11.375V3.5C11.375 3.63261 11.4277 3.75979 11.5214 3.85355C11.6152 3.94732 11.7424 4 11.875 4C12.0076 4 12.1348 3.94732 12.2286 3.85355C12.3223 3.75979 12.375 3.63261 12.375 3.5V3H13.875V5H3.875V3H5.375ZM13.875 13H3.875V6H13.875V13Z" fill="#8A8D93"/>
</svg>
