<svg width="17" height="16" viewBox="0 0 17 16" fill="none" xmlns="http://www.w3.org/2000/svg">
<path d="M8.875 1.5C7.58942 1.5 6.33272 1.88122 5.2638 2.59545C4.19488 3.30968 3.36176 4.32484 2.86979 5.51256C2.37782 6.70028 2.24909 8.00721 2.4999 9.26809C2.7507 10.529 3.36977 11.6872 4.27881 12.5962C5.18785 13.5052 6.34604 14.1243 7.60692 14.3751C8.86779 14.6259 10.1747 14.4972 11.3624 14.0052C12.5502 13.5132 13.5653 12.6801 14.2796 11.6112C14.9938 10.5423 15.375 9.28558 15.375 8C15.3732 6.27665 14.6878 4.62441 13.4692 3.40582C12.2506 2.18722 10.5984 1.50182 8.875 1.5ZM8.875 13.5C7.78721 13.5 6.72384 13.1774 5.81937 12.5731C4.9149 11.9687 4.20995 11.1098 3.79367 10.1048C3.37738 9.09977 3.26847 7.9939 3.48068 6.927C3.6929 5.86011 4.21673 4.8801 4.98592 4.11091C5.7551 3.34172 6.73511 2.8179 7.80201 2.60568C8.8689 2.39346 9.97477 2.50238 10.9798 2.91866C11.9848 3.33494 12.8437 4.03989 13.4481 4.94436C14.0524 5.84883 14.375 6.9122 14.375 8C14.3733 9.45818 13.7934 10.8562 12.7623 11.8873C11.7312 12.9184 10.3332 13.4983 8.875 13.5ZM12.875 8C12.875 8.13261 12.8223 8.25979 12.7286 8.35355C12.6348 8.44732 12.5076 8.5 12.375 8.5H8.875C8.74239 8.5 8.61522 8.44732 8.52145 8.35355C8.42768 8.25979 8.375 8.13261 8.375 8V4.5C8.375 4.36739 8.42768 4.24021 8.52145 4.14645C8.61522 4.05268 8.74239 4 8.875 4C9.00761 4 9.13479 4.05268 9.22856 4.14645C9.32232 4.24021 9.375 4.36739 9.375 4.5V7.5H12.375C12.5076 7.5 12.6348 7.55268 12.7286 7.64645C12.8223 7.74021 12.875 7.86739 12.875 8Z" fill="#8A8D93"/>
</svg>
