<svg width="17" height="16" viewBox="0 0 17 16" fill="none" xmlns="http://www.w3.org/2000/svg">
<path d="M14.375 3H11.875V2.5C11.875 2.10218 11.717 1.72064 11.4357 1.43934C11.1544 1.15804 10.7728 1 10.375 1H7.375C6.97718 1 6.59564 1.15804 6.31434 1.43934C6.03304 1.72064 5.875 2.10218 5.875 2.5V3H3.375C3.24239 3 3.11521 3.05268 3.02145 3.14645C2.92768 3.24021 2.875 3.36739 2.875 3.5C2.875 3.63261 2.92768 3.75979 3.02145 3.85355C3.11521 3.94732 3.24239 4 3.375 4H3.875V13C3.875 13.2652 3.98036 13.5196 4.16789 13.7071C4.35543 13.8946 4.60978 14 4.875 14H12.875C13.1402 14 13.3946 13.8946 13.5821 13.7071C13.7696 13.5196 13.875 13.2652 13.875 13V4H14.375C14.5076 4 14.6348 3.94732 14.7286 3.85355C14.8223 3.75979 14.875 3.63261 14.875 3.5C14.875 3.36739 14.8223 3.24021 14.7286 3.14645C14.6348 3.05268 14.5076 3 14.375 3ZM6.875 2.5C6.875 2.36739 6.92768 2.24021 7.02145 2.14645C7.11521 2.05268 7.24239 2 7.375 2H10.375C10.5076 2 10.6348 2.05268 10.7286 2.14645C10.8223 2.24021 10.875 2.36739 10.875 2.5V3H6.875V2.5ZM12.875 13H4.875V4H12.875V13ZM7.875 6.5V10.5C7.875 10.6326 7.82232 10.7598 7.72855 10.8536C7.63479 10.9473 7.50761 11 7.375 11C7.24239 11 7.11521 10.9473 7.02145 10.8536C6.92768 10.7598 6.875 10.6326 6.875 10.5V6.5C6.875 6.36739 6.92768 6.24021 7.02145 6.14645C7.11521 6.05268 7.24239 6 7.375 6C7.50761 6 7.63479 6.05268 7.72855 6.14645C7.82232 6.24021 7.875 6.36739 7.875 6.5ZM10.875 6.5V10.5C10.875 10.6326 10.8223 10.7598 10.7286 10.8536C10.6348 10.9473 10.5076 11 10.375 11C10.2424 11 10.1152 10.9473 10.0214 10.8536C9.92768 10.7598 9.875 10.6326 9.875 10.5V6.5C9.875 6.36739 9.92768 6.24021 10.0214 6.14645C10.1152 6.05268 10.2424 6 10.375 6C10.5076 6 10.6348 6.05268 10.7286 6.14645C10.8223 6.24021 10.875 6.36739 10.875 6.5Z" fill="#2B4360"/>
</svg>
