<svg width="41" height="40" viewBox="0 0 41 40" fill="none" xmlns="http://www.w3.org/2000/svg">
<rect x="1.2168" y="0.3125" width="39.375" height="39.375" rx="19.6875" fill="#E5EDFF"/>
<rect x="1.2168" y="0.3125" width="39.375" height="39.375" rx="19.6875" stroke="#6875F5" stroke-width="0.625"/>
<path d="M28.145 21.612C27.2693 20.3763 26.342 20.2482 25.9878 20.3386L27.4205 16.3956V13.981L26.6317 10.8095C26.4642 10.1398 24.995 7.98622 24.2812 6.99316C25.0969 7.35285 27.0019 8.27185 28.0966 9.07034C29.1913 9.86882 30.8065 12.6768 31.4773 13.981L32.1051 17.7315L31.6866 20.2273L30.7528 22.7225C30.2119 21.6793 28.7889 21.5475 28.145 21.612Z" fill="#A2A1CF"/>
<path d="M24.2812 6.99316C26.146 7.75249 30.1635 10.4167 31.3156 14.999C30.6115 13.4572 28.2188 9.6974 24.2812 6.99316Z" fill="#C6C9EC"/>
<path d="M15.4231 26.2705L12.2979 25.7783C12.6131 26.691 17.0909 28.4184 19.0101 29.1266C17.9853 28.5523 17.8817 26.7397 18.2384 25.9467L15.4231 26.2705Z" fill="#A2A1CF"/>
<path d="M27.1023 14.8645C27.1023 16.8273 26.5627 18.7524 25.5424 20.4293C25.6237 20.4225 25.7054 20.4178 25.7879 20.4178C25.9757 20.4179 26.163 20.4356 26.3474 20.4708C27.4597 18.491 27.9589 16.2254 27.7815 13.9615C27.6042 11.6976 26.7584 9.53732 25.3514 7.75485C29.1615 9.59742 31.6318 13.3957 31.6318 17.616C31.6324 19.3103 31.2301 20.9805 30.4582 22.4887C30.6484 22.6615 30.8161 22.8577 30.9573 23.0724C31.8691 21.3983 32.3466 19.5223 32.3461 17.616C32.3461 12.5874 29.0598 8.12307 24.1686 6.50729C24.0919 6.48197 24.009 6.48335 23.9332 6.51121C23.8575 6.53907 23.7934 6.59177 23.7514 6.66071C23.7095 6.72965 23.6921 6.81078 23.7022 6.89086C23.7122 6.97094 23.7491 7.04525 23.8068 7.10168C24.8491 8.10811 25.6781 9.31413 26.2443 10.6478C26.8104 11.9815 27.1022 13.4156 27.1023 14.8645ZM18.4396 28.4874C16.6117 28.2017 14.8809 27.4749 13.3971 26.3698C14.9613 26.6714 16.5689 26.6698 18.1326 26.3652C18.1921 26.088 18.2903 25.8204 18.4241 25.5704C16.3313 26.0627 14.1432 25.9675 12.1011 25.295C12.0245 25.2697 11.9415 25.2711 11.8658 25.2989C11.79 25.3268 11.7259 25.3795 11.6839 25.4484C11.6419 25.5174 11.6246 25.5985 11.6346 25.6786C11.6447 25.7587 11.6816 25.833 11.7393 25.8894C13.724 27.8313 16.3162 29.0315 19.081 29.2887C18.8236 29.0597 18.6067 28.7888 18.4396 28.4874Z" fill="#495095"/>
<path d="M30.7315 24.6584C30.7119 24.0503 30.4579 23.4738 30.0231 23.0511C29.5884 22.6284 29.0071 22.3927 28.4027 22.3941C28.2261 22.394 28.0501 22.4135 27.8779 22.4524C27.6869 22.0579 27.39 21.7251 27.0208 21.4917C26.6516 21.2583 26.2249 21.1337 25.7889 21.1319C25.3529 21.13 24.9252 21.2511 24.5541 21.4814C24.183 21.7117 23.8833 22.042 23.6891 22.4349C23.5454 22.4078 23.3994 22.3941 23.2531 22.3941C22.6526 22.3928 22.0748 22.6253 21.6408 23.043C21.2067 23.4607 20.95 24.0312 20.9243 24.6351C20.3261 24.6808 19.7688 24.9585 19.3701 25.4096C18.9713 25.8608 18.7621 26.4501 18.7866 27.0535C18.8111 27.6568 19.0674 28.227 19.5015 28.6439C19.9355 29.0607 20.5135 29.2917 21.1134 29.288H30.3475C30.9305 29.2916 31.4933 29.0736 31.9236 28.6776C32.3538 28.2816 32.6197 27.7368 32.6682 27.1521C32.7167 26.5673 32.5442 25.9857 32.1852 25.5234C31.8261 25.0611 31.307 24.7522 30.7315 24.6584ZM30.3475 28.5113H21.1134C20.9096 28.513 20.7074 28.4742 20.5186 28.3969C20.3298 28.3196 20.158 28.2055 20.0133 28.061C19.8685 27.9166 19.7536 27.7447 19.6752 27.5553C19.5968 27.366 19.5564 27.1629 19.5564 26.9577C19.5564 26.7525 19.5968 26.5494 19.6752 26.36C19.7536 26.1707 19.8685 25.9988 20.0133 25.8544C20.158 25.7099 20.3298 25.5958 20.5186 25.5185C20.7074 25.4412 20.9096 25.4024 21.1134 25.4041C21.2986 25.4041 21.4684 25.4469 21.6112 25.2973C21.6527 25.2538 21.6835 25.2011 21.7012 25.1434C21.719 25.0858 21.7232 25.0248 21.7134 24.9652C21.7001 24.8857 21.6936 24.8051 21.6941 24.7244C21.6965 24.3105 21.8621 23.9144 22.1543 23.6231C22.4466 23.3318 22.8418 23.1692 23.2531 23.1709C23.4355 23.1703 23.6165 23.2025 23.7875 23.266C23.837 23.2836 23.8895 23.291 23.9419 23.2877C23.9943 23.2843 24.0455 23.2704 24.0924 23.2466C24.1395 23.2231 24.1812 23.1902 24.2151 23.1497C24.2489 23.1093 24.2742 23.0623 24.2892 23.0116C24.3891 22.6896 24.5893 22.4085 24.8602 22.2099C25.1311 22.0112 25.4584 21.9056 25.7935 21.9087C26.1287 21.9117 26.454 22.0233 26.7213 22.2268C26.9886 22.4303 27.1837 22.715 27.2778 23.0388C27.2922 23.0918 27.3178 23.1411 27.3527 23.1833C27.3877 23.2255 27.4312 23.2597 27.4804 23.2835C27.5296 23.3071 27.5831 23.3202 27.6376 23.3218C27.6921 23.3235 27.7463 23.3138 27.7968 23.2932C28.0505 23.1804 28.3296 23.1385 28.6049 23.172C28.8802 23.2055 29.1414 23.3131 29.3611 23.4835C29.5807 23.6538 29.7506 23.8807 29.8529 24.1401C29.9552 24.3995 29.9861 24.6819 29.9423 24.9575C29.9338 25.0151 29.9382 25.0739 29.9552 25.1296C29.9722 25.1853 30.0014 25.2365 30.0406 25.2793C30.0799 25.3222 30.1282 25.3556 30.1819 25.3772C30.2357 25.3988 30.2936 25.408 30.3514 25.4041C30.555 25.4029 30.7569 25.4422 30.9454 25.5198C31.134 25.5974 31.3053 25.7118 31.4497 25.8564C31.5941 26.001 31.7086 26.1729 31.7867 26.3623C31.8647 26.5516 31.9048 26.7547 31.9045 26.9597C31.9043 27.1647 31.8637 27.3676 31.7852 27.5567C31.7067 27.7459 31.5917 27.9175 31.447 28.0617C31.3022 28.206 31.1306 28.32 30.9419 28.3971C30.7532 28.4743 30.5512 28.5131 30.3475 28.5113Z" fill="#2F3268"/>
<path d="M31.9047 26.9571C31.9024 27.3708 31.7372 27.7667 31.4453 28.0579C31.1534 28.3492 30.7587 28.512 30.3477 28.5107H21.1136C20.9098 28.5125 20.7076 28.4736 20.5188 28.3963C20.33 28.3191 20.1582 28.2049 20.0135 28.0605C19.8687 27.916 19.7538 27.7442 19.6754 27.5548C19.597 27.3654 19.5566 27.1623 19.5566 26.9571C19.5566 26.752 19.597 26.5489 19.6754 26.3595C19.7538 26.1701 19.8687 25.9983 20.0135 25.8538C20.1582 25.7094 20.33 25.5952 20.5188 25.5179C20.7076 25.4407 20.9098 25.4018 21.1136 25.4036C21.2988 25.4036 21.4686 25.4463 21.6114 25.2968C21.6528 25.2532 21.6837 25.2005 21.7014 25.1429C21.7192 25.0852 21.7233 25.0242 21.7136 24.9647C21.7003 24.8851 21.6938 24.8046 21.6943 24.7239C21.6967 24.3099 21.8623 23.9138 22.1545 23.6225C22.4468 23.3313 22.842 23.1686 23.2533 23.1703C23.4357 23.1697 23.6166 23.2019 23.7877 23.2655C23.8372 23.2831 23.8897 23.2904 23.9421 23.2871C23.9945 23.2838 24.0457 23.2698 24.0926 23.2461C24.1397 23.2226 24.1814 23.1896 24.2153 23.1492C24.2491 23.1088 24.2744 23.0617 24.2894 23.0111C24.3893 22.6891 24.5895 22.4079 24.8604 22.2093C25.1313 22.0107 25.4586 21.9051 25.7937 21.9081C26.1289 21.9112 26.4542 22.0227 26.7215 22.2262C26.9888 22.4298 27.1839 22.7145 27.278 23.0383C27.2924 23.0913 27.318 23.1405 27.3529 23.1828C27.3879 23.225 27.4314 23.2591 27.4806 23.283C27.5298 23.3066 27.5833 23.3196 27.6378 23.3213C27.6923 23.323 27.7465 23.3132 27.797 23.2927C28.0507 23.1798 28.3298 23.138 28.6051 23.1715C28.8804 23.2049 29.1416 23.3125 29.3613 23.4829C29.5809 23.6533 29.7508 23.8801 29.8531 24.1395C29.9554 24.3989 29.9863 24.6813 29.9425 24.9569C29.934 25.0146 29.9384 25.0734 29.9554 25.1291C29.9724 25.1848 30.0016 25.2359 30.0408 25.2788C30.0801 25.3216 30.1284 25.3551 30.1821 25.3767C30.2359 25.3983 30.2938 25.4075 30.3516 25.4036C30.7619 25.4034 31.1555 25.5667 31.4466 25.8578C31.7376 26.1489 31.9023 26.5442 31.9047 26.9571Z" fill="#6D77CF"/>
<path opacity="0.5" d="M21.6115 25.6852C21.4687 25.8347 21.2989 25.792 21.1137 25.792C20.736 25.7911 20.3709 25.9286 20.0866 26.1787C19.8022 26.4288 19.618 26.7745 19.5682 27.1513C19.5605 27.0869 19.5566 27.022 19.5566 26.9571C19.5589 26.5435 19.7241 26.1476 20.016 25.8564C20.3079 25.5651 20.7027 25.4023 21.1137 25.4036C21.2989 25.4036 21.4687 25.4463 21.6115 25.2968C21.6498 25.2556 21.6788 25.2066 21.6963 25.1531C21.6961 25.2201 21.7019 25.2871 21.7137 25.3531C21.7234 25.4126 21.7193 25.4736 21.7015 25.5313C21.6838 25.5889 21.6529 25.6416 21.6115 25.6852ZM31.9048 26.9571C31.9048 27.022 31.901 27.0869 31.8932 27.1513C31.8434 26.7753 31.6597 26.4302 31.3761 26.1802C31.0926 25.9302 30.7286 25.7922 30.3516 25.792C30.2939 25.7959 30.236 25.7867 30.1822 25.7651C30.1284 25.7435 30.0802 25.71 30.0409 25.6672C30.0017 25.6243 29.9725 25.5732 29.9555 25.5175C29.9385 25.4618 29.9341 25.4029 29.9426 25.3453C29.9532 25.2765 29.959 25.2071 29.96 25.1375C29.9773 25.1938 30.0078 25.245 30.0487 25.2871C30.0878 25.3274 30.1351 25.3588 30.1874 25.3789C30.2397 25.399 30.2958 25.4075 30.3516 25.4036C30.7619 25.4034 31.1556 25.5667 31.4467 25.8578C31.7377 26.1489 31.9024 26.5442 31.9048 26.9571ZM29.9619 24.7239C29.9612 24.7856 29.9567 24.8472 29.9484 24.9084C29.9145 24.6705 29.8269 24.4436 29.6923 24.2451C29.5577 24.0466 29.3798 23.8818 29.172 23.7632C28.9643 23.6447 28.7324 23.5757 28.4941 23.5615C28.2557 23.5472 28.0173 23.5881 27.7971 23.6811C27.7466 23.7016 27.6924 23.7113 27.6379 23.7097C27.5834 23.708 27.5299 23.6949 27.4807 23.6713C27.4315 23.6475 27.3879 23.6134 27.353 23.5712C27.318 23.5289 27.2925 23.4797 27.2781 23.4267C27.184 23.1029 26.9889 22.8182 26.7216 22.6146C26.4543 22.4111 26.129 22.2996 25.7938 22.2965C25.4586 22.2935 25.1314 22.3991 24.8605 22.5977C24.5896 22.7963 24.3894 23.0774 24.2895 23.3995C24.2744 23.4501 24.2492 23.4971 24.2154 23.5376C24.1815 23.578 24.1397 23.611 24.0927 23.6345C24.0458 23.6582 23.9946 23.6722 23.9422 23.6755C23.8898 23.6788 23.8373 23.6715 23.7878 23.6539C23.6167 23.5903 23.4357 23.5581 23.2534 23.5587C22.8762 23.5574 22.5114 23.6941 22.2271 23.9435C21.9427 24.193 21.7582 24.538 21.7079 24.9142C21.6985 24.8512 21.694 24.7876 21.6944 24.7239C21.6968 24.3099 21.8623 23.9138 22.1546 23.6225C22.4469 23.3313 22.8421 23.1686 23.2534 23.1703C23.4357 23.1697 23.6167 23.2019 23.7878 23.2655C23.8373 23.2831 23.8898 23.2904 23.9422 23.2871C23.9946 23.2838 24.0458 23.2698 24.0927 23.2461C24.1397 23.2226 24.1815 23.1896 24.2154 23.1492C24.2492 23.1088 24.2744 23.0617 24.2895 23.0111C24.3894 22.6891 24.5896 22.4079 24.8605 22.2093C25.1314 22.0107 25.4586 21.9051 25.7938 21.9081C26.129 21.9112 26.4543 22.0227 26.7216 22.2262C26.9889 22.4298 27.184 22.7145 27.2781 23.0383C27.2925 23.0913 27.318 23.1405 27.353 23.1828C27.3879 23.225 27.4315 23.2591 27.4807 23.283C27.5299 23.3066 27.5834 23.3196 27.6379 23.3213C27.6924 23.323 27.7466 23.3132 27.7971 23.2927C28.033 23.193 28.2896 23.1533 28.5444 23.177C28.7991 23.2006 29.0442 23.2869 29.258 23.4283C29.4718 23.5696 29.6479 23.7617 29.7706 23.9877C29.8933 24.2136 29.959 24.4664 29.9619 24.7239Z" fill="#C1C5EA"/>
<path opacity="0.5" d="M31.9048 26.9568C31.9025 27.3704 31.7373 27.7663 31.4454 28.0576C31.1535 28.3488 30.7588 28.5116 30.3478 28.5103H21.1137C20.7027 28.5116 20.3079 28.3488 20.016 28.0576C19.7241 27.7663 19.5589 27.3704 19.5566 26.9568C19.5566 26.8919 19.5605 26.827 19.5682 26.7626C19.618 27.1394 19.8022 27.4851 20.0866 27.7352C20.3709 27.9853 20.736 28.1228 21.1137 28.1219H30.3478C30.7254 28.1228 31.0905 27.9853 31.3749 27.7352C31.6592 27.4851 31.8435 27.1394 31.8932 26.7626C31.901 26.827 31.9048 26.8919 31.9048 26.9568Z" fill="#6470DB"/>
<path d="M21.4351 10.0158C21.4155 9.40775 21.1615 8.83123 20.7267 8.40852C20.292 7.98581 19.7107 7.75015 19.1063 7.75152C18.9297 7.75137 18.7537 7.77091 18.5815 7.80978C18.3905 7.4153 18.0936 7.08252 17.7244 6.84914C17.3552 6.61576 16.9285 6.4911 16.4925 6.48928C16.0566 6.48746 15.6288 6.60855 15.2577 6.83885C14.8866 7.06914 14.587 7.39943 14.3928 7.7923C14.249 7.76517 14.103 7.75152 13.9567 7.75152C13.3562 7.75022 12.7784 7.98275 12.3444 8.40045C11.9103 8.81815 11.6536 9.38865 11.6279 9.99254C11.0297 10.0382 10.4725 10.3159 10.0737 10.767C9.67488 11.2182 9.4657 11.8075 9.49022 12.4109C9.51474 13.0142 9.77104 13.5844 10.2051 14.0013C10.6392 14.4182 11.2171 14.6491 11.817 14.6455H21.0511C21.6341 14.649 22.1969 14.431 22.6272 14.035C23.0574 13.6391 23.3234 13.0943 23.3719 12.5095C23.4204 11.9247 23.2478 11.3431 22.8888 10.8808C22.5297 10.4185 22.0106 10.1096 21.4351 10.0158ZM21.0511 13.8687H11.817C11.6132 13.8705 11.411 13.8316 11.2222 13.7543C11.0334 13.677 10.8617 13.5629 10.7169 13.4184C10.5721 13.274 10.4573 13.1021 10.3788 12.9128C10.3004 12.7234 10.2601 12.5203 10.2601 12.3151C10.2601 12.11 10.3004 11.9068 10.3788 11.7175C10.4573 11.5281 10.5721 11.3562 10.7169 11.2118C10.8617 11.0674 11.0334 10.9532 11.2222 10.8759C11.411 10.7986 11.6132 10.7598 11.817 10.7616C12.0022 10.7616 12.172 10.8043 12.3148 10.6547C12.3563 10.6112 12.3871 10.5585 12.4048 10.5008C12.4226 10.4432 12.4268 10.3822 12.417 10.3227C12.4037 10.2431 12.3972 10.1625 12.3978 10.0819C12.4002 9.66789 12.5657 9.27179 12.858 8.98052C13.1502 8.68924 13.5454 8.52661 13.9567 8.5283C14.1391 8.5277 14.3201 8.55992 14.4912 8.62346C14.5406 8.64106 14.5932 8.64841 14.6455 8.64507C14.6979 8.64174 14.7491 8.62778 14.796 8.60404C14.8431 8.58056 14.8848 8.54759 14.9187 8.50716C14.9525 8.46674 14.9778 8.41973 14.9928 8.36906C15.0927 8.04703 15.2929 7.76591 15.5638 7.56728C15.8347 7.36865 16.162 7.26304 16.4971 7.26609C16.8323 7.26914 17.1576 7.38068 17.4249 7.58421C17.6922 7.78774 17.8873 8.07246 17.9814 8.39625C17.9958 8.44925 18.0214 8.49853 18.0563 8.54074C18.0913 8.58295 18.1348 8.61712 18.184 8.64094C18.2332 8.66454 18.2868 8.67759 18.3412 8.67926C18.3957 8.68093 18.4499 8.67118 18.5004 8.65065C18.7541 8.53783 19.0332 8.49595 19.3085 8.52943C19.5838 8.56291 19.8451 8.6705 20.0647 8.84087C20.2843 9.01125 20.4542 9.23809 20.5565 9.4975C20.6588 9.75692 20.6897 10.0393 20.6459 10.3149C20.6374 10.3725 20.6418 10.4314 20.6588 10.4871C20.6758 10.5428 20.705 10.5939 20.7443 10.6368C20.7835 10.6796 20.8318 10.7131 20.8855 10.7346C20.9393 10.7562 20.9972 10.7654 21.055 10.7616C21.2586 10.7603 21.4606 10.7996 21.6491 10.8772C21.8376 10.9548 22.009 11.0692 22.1533 11.2138C22.2977 11.3584 22.4122 11.5304 22.4903 11.7197C22.5684 11.909 22.6084 12.1121 22.6082 12.3171C22.6079 12.5221 22.5673 12.725 22.4888 12.9141C22.4103 13.1033 22.2953 13.2749 22.1506 13.4192C22.0059 13.5634 21.8342 13.6774 21.6455 13.7545C21.4568 13.8317 21.2548 13.8705 21.0511 13.8687Z" fill="#2F3268"/>
<path d="M22.6078 12.3146C22.6055 12.7282 22.4403 13.1241 22.1484 13.4153C21.8566 13.7066 21.4618 13.8694 21.0508 13.8681H11.8167C11.6129 13.8699 11.4107 13.831 11.2219 13.7538C11.0331 13.6765 10.8614 13.5623 10.7166 13.4179C10.5719 13.2734 10.457 13.1016 10.3785 12.9122C10.3001 12.7228 10.2598 12.5197 10.2598 12.3146C10.2598 12.1094 10.3001 11.9063 10.3785 11.7169C10.457 11.5275 10.5719 11.3557 10.7166 11.2112C10.8614 11.0668 11.0331 10.9526 11.2219 10.8754C11.4107 10.7981 11.6129 10.7592 11.8167 10.761C12.0019 10.761 12.1717 10.8037 12.3145 10.6542C12.356 10.6106 12.3868 10.5579 12.4045 10.5003C12.4223 10.4427 12.4265 10.3817 12.4168 10.3221C12.4034 10.2426 12.3969 10.162 12.3975 10.0813C12.3999 9.66733 12.5654 9.27123 12.8577 8.97996C13.1499 8.68869 13.5451 8.52605 13.9564 8.52775C14.1388 8.52714 14.3198 8.55937 14.4909 8.6229C14.5404 8.6405 14.5929 8.64785 14.6453 8.64452C14.6976 8.64118 14.7488 8.62722 14.7957 8.60348C14.8428 8.58001 14.8845 8.54703 14.9184 8.50661C14.9523 8.46618 14.9775 8.41917 14.9925 8.36851C15.0924 8.04648 15.2926 7.76536 15.5635 7.56672C15.8344 7.36809 16.1617 7.26249 16.4969 7.26554C16.832 7.26859 17.1573 7.38012 17.4246 7.58365C17.6919 7.78718 17.8871 8.0719 17.9811 8.39569C17.9955 8.4487 18.0211 8.49797 18.056 8.54018C18.091 8.5824 18.1345 8.61657 18.1837 8.64038C18.2329 8.66398 18.2865 8.67703 18.3409 8.6787C18.3954 8.68037 18.4496 8.67063 18.5002 8.65009C18.7538 8.53727 19.033 8.4954 19.3082 8.52888C19.5835 8.56235 19.8448 8.66995 20.0644 8.84032C20.284 9.01069 20.454 9.23753 20.5562 9.49695C20.6585 9.75636 20.6894 10.0387 20.6456 10.3143C20.6371 10.372 20.6415 10.4308 20.6585 10.4865C20.6755 10.5422 20.7047 10.5934 20.744 10.6362C20.7832 10.679 20.8315 10.7125 20.8852 10.7341C20.939 10.7557 20.9969 10.7649 21.0547 10.761C21.465 10.7608 21.8587 10.9242 22.1497 11.2153C22.4407 11.5064 22.6054 11.9016 22.6078 12.3146Z" fill="#6D77CF"/>
<path opacity="0.5" d="M12.3146 11.0426C12.1718 11.1921 12.002 11.1494 11.8168 11.1494C11.4391 11.1485 11.0741 11.286 10.7897 11.5361C10.5053 11.7862 10.3211 12.132 10.2713 12.5088C10.2636 12.4443 10.2597 12.3795 10.2598 12.3146C10.2621 11.9009 10.4273 11.505 10.7192 11.2138C11.0111 10.9225 11.4058 10.7597 11.8168 10.761C12.002 10.761 12.1718 10.8037 12.3146 10.6542C12.3529 10.6131 12.3819 10.564 12.3995 10.5105C12.3992 10.5775 12.4051 10.6445 12.4168 10.7105C12.4266 10.77 12.4224 10.831 12.4046 10.8887C12.3869 10.9463 12.3561 10.999 12.3146 11.0426ZM22.6079 12.3146C22.608 12.3795 22.6041 12.4443 22.5964 12.5088C22.5465 12.1327 22.3628 11.7876 22.0793 11.5376C21.7957 11.2876 21.4317 11.1496 21.0548 11.1494C20.997 11.1533 20.9391 11.1441 20.8853 11.1225C20.8316 11.1009 20.7833 11.0674 20.744 11.0246C20.7048 10.9817 20.6756 10.9306 20.6586 10.8749C20.6416 10.8192 20.6372 10.7604 20.6457 10.7027C20.6563 10.634 20.6621 10.5645 20.6631 10.4949C20.6805 10.5512 20.7109 10.6024 20.7518 10.6445C20.7909 10.6849 20.8382 10.7162 20.8905 10.7363C20.9429 10.7565 20.9989 10.7649 21.0548 10.761C21.4651 10.7608 21.8587 10.9242 22.1498 11.2153C22.4408 11.5064 22.6055 11.9016 22.6079 12.3146ZM20.665 10.0813C20.6644 10.143 20.6599 10.2046 20.6515 10.2658C20.6176 10.0279 20.53 9.80101 20.3954 9.60251C20.2609 9.404 20.0829 9.23917 19.8752 9.12067C19.6675 9.00217 19.4355 8.93314 19.1972 8.9189C18.9588 8.90465 18.7204 8.94556 18.5002 9.03848C18.4497 9.05902 18.3955 9.06876 18.341 9.06709C18.2865 9.06542 18.233 9.05237 18.1838 9.02877C18.1346 9.00496 18.0911 8.97079 18.0561 8.92858C18.0212 8.88636 17.9956 8.83709 17.9812 8.78408C17.8871 8.46029 17.692 8.17558 17.4247 7.97205C17.1574 7.76851 16.8321 7.65698 16.4969 7.65393C16.1618 7.65088 15.8345 7.75648 15.5636 7.95512C15.2927 8.15375 15.0925 8.43487 14.9926 8.7569C14.9776 8.80756 14.9523 8.85457 14.9185 8.895C14.8846 8.93542 14.8429 8.9684 14.7958 8.99187C14.7489 9.01561 14.6977 9.02957 14.6453 9.03291C14.5929 9.03625 14.5404 9.02889 14.4909 9.01129C14.3199 8.94776 14.1389 8.91553 13.9565 8.91614C13.5793 8.91478 13.2145 9.05157 12.9302 9.30097C12.6458 9.55038 12.4613 9.89538 12.411 10.2716C12.4016 10.2086 12.3971 10.145 12.3975 10.0813C12.3999 9.66733 12.5655 9.27123 12.8577 8.97996C13.15 8.68869 13.5452 8.52605 13.9565 8.52775C14.1389 8.52714 14.3199 8.55937 14.4909 8.6229C14.5404 8.6405 14.5929 8.64786 14.6453 8.64452C14.6977 8.64118 14.7489 8.62722 14.7958 8.60348C14.8429 8.58001 14.8846 8.54703 14.9185 8.50661C14.9523 8.46618 14.9776 8.41917 14.9926 8.36851C15.0925 8.04648 15.2927 7.76536 15.5636 7.56672C15.8345 7.36809 16.1618 7.26249 16.4969 7.26554C16.8321 7.26859 17.1574 7.38012 17.4247 7.58365C17.692 7.78718 17.8871 8.0719 17.9812 8.39569C17.9956 8.4487 18.0212 8.49797 18.0561 8.54018C18.0911 8.5824 18.1346 8.61657 18.1838 8.64038C18.233 8.66398 18.2865 8.67703 18.341 8.6787C18.3955 8.68037 18.4497 8.67063 18.5002 8.65009C18.7361 8.55047 18.9928 8.51073 19.2475 8.53438C19.5023 8.55803 19.7473 8.64433 19.9611 8.7857C20.175 8.92707 20.351 9.11916 20.4737 9.34509C20.5965 9.57101 20.6622 9.82383 20.665 10.0813Z" fill="#C1C5EA"/>
<path opacity="0.5" d="M22.6079 12.3142C22.6056 12.7279 22.4404 13.1237 22.1485 13.415C21.8566 13.7062 21.4619 13.869 21.0509 13.8678H11.8168C11.4058 13.869 11.0111 13.7062 10.7192 13.415C10.4273 13.1237 10.2621 12.7279 10.2598 12.3142C10.2597 12.2493 10.2636 12.1844 10.2713 12.12C10.3211 12.4968 10.5053 12.8425 10.7897 13.0926C11.0741 13.3428 11.4391 13.4802 11.8168 13.4794H21.0509C21.4286 13.4802 21.7936 13.3428 22.078 13.0926C22.3624 12.8425 22.5466 12.4968 22.5964 12.12C22.6041 12.1844 22.608 12.2493 22.6079 12.3142Z" fill="#6470DB"/>
<rect x="8.58301" y="28.5107" width="24.6428" height="1" rx="0.5" fill="#495095"/>
<rect x="10.4678" y="30.5107" width="20.8728" height="1" rx="0.5" fill="#495095"/>
<rect x="14.1641" y="32.5107" width="13.5037" height="1" rx="0.5" fill="#495095"/>
<path d="M18.1318 26.3037C16.0938 26.7991 14.0515 26.5101 13.2852 26.3037C13.9778 26.8786 16.7574 26.8831 18.0605 26.8135C18.0449 26.6822 18.1016 26.4189 18.1318 26.3037Z" fill="#C6C9EC"/>
</svg>
