<svg width="17" height="16" viewBox="0 0 17 16" fill="none" xmlns="http://www.w3.org/2000/svg">
<path d="M14.375 3.5H11.875V3C11.875 2.60218 11.717 2.22064 11.4357 1.93934C11.1544 1.65804 10.7728 1.5 10.375 1.5H7.375C6.97718 1.5 6.59564 1.65804 6.31434 1.93934C6.03304 2.22064 5.875 2.60218 5.875 3V3.5H3.375C3.10978 3.5 2.85543 3.60536 2.66789 3.79289C2.48036 3.98043 2.375 4.23478 2.375 4.5V12.5C2.375 12.7652 2.48036 13.0196 2.66789 13.2071C2.85543 13.3946 3.10978 13.5 3.375 13.5H14.375C14.6402 13.5 14.8946 13.3946 15.0821 13.2071C15.2696 13.0196 15.375 12.7652 15.375 12.5V4.5C15.375 4.23478 15.2696 3.98043 15.0821 3.79289C14.8946 3.60536 14.6402 3.5 14.375 3.5ZM6.875 3C6.875 2.86739 6.92768 2.74021 7.02145 2.64645C7.11521 2.55268 7.24239 2.5 7.375 2.5H10.375C10.5076 2.5 10.6348 2.55268 10.7286 2.64645C10.8223 2.74021 10.875 2.86739 10.875 3V3.5H6.875V3ZM14.375 12.5H3.375V4.5H14.375V12.5ZM10.875 8.5C10.875 8.63261 10.8223 8.75979 10.7286 8.85355C10.6348 8.94732 10.5076 9 10.375 9H9.375V10C9.375 10.1326 9.32232 10.2598 9.22855 10.3536C9.13479 10.4473 9.00761 10.5 8.875 10.5C8.74239 10.5 8.61521 10.4473 8.52145 10.3536C8.42768 10.2598 8.375 10.1326 8.375 10V9H7.375C7.24239 9 7.11521 8.94732 7.02145 8.85355C6.92768 8.75979 6.875 8.63261 6.875 8.5C6.875 8.36739 6.92768 8.24021 7.02145 8.14645C7.11521 8.05268 7.24239 8 7.375 8H8.375V7C8.375 6.86739 8.42768 6.74021 8.52145 6.64645C8.61521 6.55268 8.74239 6.5 8.875 6.5C9.00761 6.5 9.13479 6.55268 9.22855 6.64645C9.32232 6.74021 9.375 6.86739 9.375 7V8H10.375C10.5076 8 10.6348 8.05268 10.7286 8.14645C10.8223 8.24021 10.875 8.36739 10.875 8.5Z" fill="#8A8D93"/>
</svg>
