<svg width="25" height="25" viewBox="0 0 25 25" fill="none" xmlns="http://www.w3.org/2000/svg">
<path d="M21.6766 13.7665V19.7665C21.6766 20.0649 21.5581 20.351 21.3471 20.562C21.1362 20.773 20.85 20.8915 20.5516 20.8915H4.05164C3.75327 20.8915 3.46712 20.773 3.25614 20.562C3.04516 20.351 2.92664 20.0649 2.92664 19.7665V13.7665C2.92664 13.4681 3.04516 13.182 3.25614 12.971C3.46712 12.76 3.75327 12.6415 4.05164 12.6415C4.35 12.6415 4.63615 12.76 4.84713 12.971C5.05811 13.182 5.17664 13.4681 5.17664 13.7665V18.6415H19.4266V13.7665C19.4266 13.4681 19.5452 13.182 19.7561 12.971C19.9671 12.76 20.2533 12.6415 20.5516 12.6415C20.85 12.6415 21.1362 12.76 21.3471 12.971C21.5581 13.182 21.6766 13.4681 21.6766 13.7665ZM9.34757 7.81245L11.1766 5.98526V13.7665C11.1766 14.0649 11.2952 14.351 11.5061 14.562C11.7171 14.773 12.0033 14.8915 12.3016 14.8915C12.6 14.8915 12.8862 14.773 13.0971 14.562C13.3081 14.351 13.4266 14.0649 13.4266 13.7665V5.98526L15.2557 7.81526C15.3603 7.91991 15.4846 8.00292 15.6213 8.05955C15.758 8.11619 15.9046 8.14534 16.0526 8.14534C16.2006 8.14534 16.3471 8.11619 16.4838 8.05955C16.6206 8.00292 16.7448 7.91991 16.8494 7.81526C16.9541 7.71061 17.0371 7.58638 17.0937 7.44965C17.1504 7.31292 17.1795 7.16638 17.1795 7.01839C17.1795 6.87039 17.1504 6.72385 17.0937 6.58712C17.0371 6.45039 16.9541 6.32616 16.8494 6.22151L13.0994 2.47151C12.9949 2.36663 12.8707 2.28342 12.734 2.22663C12.5972 2.16985 12.4506 2.14063 12.3026 2.14062C12.1545 2.14063 12.0079 2.16985 11.8712 2.22663C11.7344 2.28342 11.6102 2.36663 11.5057 2.47151L7.7557 6.22151C7.65105 6.32616 7.56804 6.45039 7.51141 6.58712C7.45477 6.72385 7.42562 6.87039 7.42562 7.01839C7.42562 7.31727 7.54435 7.60392 7.7557 7.81526C7.96704 8.02661 8.25369 8.14534 8.55257 8.14534C8.85146 8.14534 9.1381 8.02661 9.34945 7.81526L9.34757 7.81245Z" fill="white"/>
</svg>
