<svg width="41" height="41" viewBox="0 0 41 41" fill="none" xmlns="http://www.w3.org/2000/svg">
<rect x="1.3457" y="1.44141" width="39" height="39" rx="7.5" fill="#2B4360"/>
<rect x="1.3457" y="1.44141" width="39" height="39" rx="7.5" stroke="#2B4360"/>
<path d="M28.3457 22.1919V27.1919C28.3457 27.3577 28.2799 27.5166 28.1626 27.6338C28.0454 27.7511 27.8865 27.8169 27.7207 27.8169H13.9707C13.8049 27.8169 13.646 27.7511 13.5288 27.6338C13.4116 27.5166 13.3457 27.3577 13.3457 27.1919V22.1919C13.3457 22.0261 13.4116 21.8672 13.5288 21.75C13.646 21.6327 13.8049 21.5669 13.9707 21.5669C14.1365 21.5669 14.2954 21.6327 14.4126 21.75C14.5299 21.8672 14.5957 22.0261 14.5957 22.1919V26.5669H27.0957V22.1919C27.0957 22.0261 27.1616 21.8672 27.2788 21.75C27.396 21.6327 27.5549 21.5669 27.7207 21.5669C27.8865 21.5669 28.0454 21.6327 28.1626 21.75C28.2799 21.8672 28.3457 22.0261 28.3457 22.1919ZM18.1629 17.0091L20.2207 14.9505V22.1919C20.2207 22.3577 20.2866 22.5166 20.4038 22.6338C20.521 22.7511 20.6799 22.8169 20.8457 22.8169C21.0115 22.8169 21.1704 22.7511 21.2876 22.6338C21.4049 22.5166 21.4707 22.3577 21.4707 22.1919V14.9505L23.5285 17.0091C23.6458 17.1264 23.8049 17.1922 23.9707 17.1922C24.1366 17.1922 24.2956 17.1264 24.4129 17.0091C24.5302 16.8918 24.5961 16.7328 24.5961 16.5669C24.5961 16.401 24.5302 16.242 24.4129 16.1247L21.2879 12.9997C21.2298 12.9416 21.1609 12.8955 21.085 12.864C21.0092 12.8326 20.9278 12.8164 20.8457 12.8164C20.7636 12.8164 20.6822 12.8326 20.6064 12.864C20.5305 12.8955 20.4616 12.9416 20.4035 12.9997L17.2785 16.1247C17.1612 16.242 17.0954 16.401 17.0954 16.5669C17.0954 16.7328 17.1612 16.8918 17.2785 17.0091C17.3958 17.1264 17.5549 17.1922 17.7207 17.1922C17.8866 17.1922 18.0456 17.1264 18.1629 17.0091Z" fill="white"/>
</svg>
