<svg width="41" height="41" viewBox="0 0 41 41" fill="none" xmlns="http://www.w3.org/2000/svg">
<rect x="1.05994" y="1.44141" width="39" height="39" rx="7.5" fill="white"/>
<rect x="1.05994" y="1.44141" width="39" height="39" rx="7.5" stroke="#DDE1E8"/>
<path d="M17.4349 18.4414C17.4349 18.2756 17.5008 18.1167 17.618 17.9995C17.7352 17.8823 17.8942 17.8164 18.0599 17.8164H23.0599C23.2257 17.8164 23.3847 17.8823 23.5019 17.9995C23.6191 18.1167 23.6849 18.2756 23.6849 18.4414C23.6849 18.6072 23.6191 18.7661 23.5019 18.8833C23.3847 19.0006 23.2257 19.0664 23.0599 19.0664H18.0599C17.8942 19.0664 17.7352 19.0006 17.618 18.8833C17.5008 18.7661 17.4349 18.6072 17.4349 18.4414ZM18.0599 21.5664H23.0599C23.2257 21.5664 23.3847 21.5006 23.5019 21.3833C23.6191 21.2661 23.6849 21.1072 23.6849 20.9414C23.6849 20.7756 23.6191 20.6167 23.5019 20.4995C23.3847 20.3823 23.2257 20.3164 23.0599 20.3164H18.0599C17.8942 20.3164 17.7352 20.3823 17.618 20.4995C17.5008 20.6167 17.4349 20.7756 17.4349 20.9414C17.4349 21.1072 17.5008 21.2661 17.618 21.3833C17.7352 21.5006 17.8942 21.5664 18.0599 21.5664ZM20.5599 22.8164H18.0599C17.8942 22.8164 17.7352 22.8823 17.618 22.9995C17.5008 23.1167 17.4349 23.2756 17.4349 23.4414C17.4349 23.6072 17.5008 23.7661 17.618 23.8833C17.7352 24.0006 17.8942 24.0664 18.0599 24.0664H20.5599C20.7257 24.0664 20.8847 24.0006 21.0019 23.8833C21.1191 23.7661 21.1849 23.6072 21.1849 23.4414C21.1849 23.2756 21.1191 23.1167 21.0019 22.9995C20.8847 22.8823 20.7257 22.8164 20.5599 22.8164ZM28.0599 14.6914V23.1828C28.0605 23.347 28.0283 23.5097 27.9654 23.6614C27.9025 23.8131 27.8101 23.9508 27.6935 24.0664L23.6849 28.075C23.5693 28.1916 23.4316 28.284 23.2799 28.3469C23.1282 28.4098 22.9656 28.4419 22.8013 28.4414H14.3099C13.9784 28.4414 13.6605 28.3097 13.4261 28.0753C13.1916 27.8409 13.0599 27.5229 13.0599 27.1914V14.6914C13.0599 14.3599 13.1916 14.0419 13.4261 13.8075C13.6605 13.5731 13.9784 13.4414 14.3099 13.4414H26.8099C27.1415 13.4414 27.4594 13.5731 27.6938 13.8075C27.9282 14.0419 28.0599 14.3599 28.0599 14.6914ZM14.3099 27.1914H22.4349V23.4414C22.4349 23.2756 22.5008 23.1167 22.618 22.9995C22.7352 22.8823 22.8942 22.8164 23.0599 22.8164H26.8099V14.6914H14.3099V27.1914ZM23.6849 24.0664V26.3086L25.9263 24.0664H23.6849Z" fill="#2B4360"/>
</svg>
