<svg width="14" height="18" viewBox="0 0 14 18" fill="none" xmlns="http://www.w3.org/2000/svg">
<path d="M13.4141 7.12492C13.414 5.91544 13.0631 4.73195 12.4038 3.71797C11.7445 2.70399 10.8051 1.9031 9.69961 1.41243C8.59413 0.921758 7.37003 0.762384 6.17576 0.953637C4.9815 1.14489 3.86838 1.67855 2.97141 2.48991C2.07444 3.30126 1.43215 4.35544 1.12244 5.5246C0.812734 6.69375 0.848915 7.92766 1.22659 9.07666C1.60427 10.2257 2.30723 11.2404 3.2502 11.9978C4.19317 12.7552 5.33564 13.2227 6.53906 13.3437V17.1249C6.53906 17.2907 6.60491 17.4497 6.72212 17.5669C6.83933 17.6841 6.9983 17.7499 7.16406 17.7499C7.32982 17.7499 7.48879 17.6841 7.606 17.5669C7.72322 17.4497 7.78906 17.2907 7.78906 17.1249V13.3437C9.32997 13.1869 10.758 12.4643 11.797 11.3156C12.836 10.1669 13.4122 8.67379 13.4141 7.12492ZM7.16406 12.1249C6.17516 12.1249 5.20846 11.8317 4.38621 11.2823C3.56397 10.7329 2.9231 9.95197 2.54467 9.03834C2.16623 8.12471 2.06721 7.11938 2.26014 6.14947C2.45306 5.17957 2.92927 4.28865 3.62853 3.58939C4.32779 2.89013 5.21871 2.41392 6.18861 2.221C7.15852 2.02807 8.16385 2.12709 9.07748 2.50553C9.99111 2.88397 10.772 3.52483 11.3214 4.34707C11.8708 5.16932 12.1641 6.13602 12.1641 7.12492C12.1626 8.45056 11.6354 9.72149 10.698 10.6589C9.76063 11.5962 8.4897 12.1235 7.16406 12.1249Z" fill="#8A8D93"/>
</svg>
