<svg width="19" height="18" viewBox="0 0 19 18" fill="none" xmlns="http://www.w3.org/2000/svg">
<path d="M15.5 7.31243C15.5 6.2239 15.1841 5.15875 14.5907 4.24617C13.9974 3.33359 13.1519 2.61279 12.157 2.17119C11.1621 1.72958 10.0604 1.58615 8.98553 1.75827C7.91069 1.9304 6.90888 2.4107 6.10161 3.14092C5.29434 3.87113 4.71628 4.81989 4.43754 5.87214C4.1588 6.92438 4.19137 8.03489 4.53128 9.06899C4.87119 10.1031 5.50385 11.0164 6.35252 11.698C7.20119 12.3797 8.22942 12.8005 9.3125 12.9093V16.3124C9.3125 16.4616 9.37176 16.6047 9.47725 16.7102C9.58274 16.8157 9.72582 16.8749 9.875 16.8749C10.0242 16.8749 10.1673 16.8157 10.2727 16.7102C10.3782 16.6047 10.4375 16.4616 10.4375 16.3124V12.9093C11.8243 12.7682 13.1095 12.1178 14.0446 11.084C14.9797 10.0502 15.4983 8.70641 15.5 7.31243ZM9.875 11.8124C8.98498 11.8124 8.11496 11.5485 7.37493 11.054C6.63491 10.5596 6.05814 9.85678 5.71754 9.03451C5.37695 8.21224 5.28783 7.30744 5.46147 6.43453C5.6351 5.56161 6.06368 4.75979 6.69302 4.13045C7.32236 3.50112 8.12418 3.07253 8.99709 2.8989C9.87001 2.72527 10.7748 2.81438 11.5971 3.15497C12.4193 3.49557 13.1221 4.07235 13.6166 4.81237C14.1111 5.55239 14.375 6.42242 14.375 7.31243C14.3737 8.50551 13.8992 9.64934 13.0555 10.493C12.2119 11.3366 11.0681 11.8111 9.875 11.8124Z" fill="#8A8D93"/>
</svg>
