<svg width="80" height="80" viewBox="0 0 80 80" fill="none" xmlns="http://www.w3.org/2000/svg">
<path fill-rule="evenodd" clip-rule="evenodd" d="M6.4044 14.4609C3.37476 14.4609 0.935669 16.9 0.935669 19.9297V21.9609C0.935669 24.9906 3.37476 27.4297 6.4044 27.4297H27.2775C27.2781 22.9762 27.2781 18.9542 27.2781 14.4609H6.4044Z" fill="#3E4A57"/>
<path fill-rule="evenodd" clip-rule="evenodd" d="M7.71579 21.1196C5.62501 21.1196 5.62501 24.6574 7.71579 24.6801H27.2782V21.1196H7.71579Z" fill="#292929"/>
<path fill-rule="evenodd" clip-rule="evenodd" d="M10.319 21.1196V58.7773C10.319 61.7527 13.0904 64.1481 16.5332 64.1481H20.5164C22.7829 64.1499 25.7129 61.6745 25.7129 58.8979C25.7129 46.3775 25.7129 32.3009 25.7129 21.1196H10.319Z" fill="#F3F4F6"/>
<path fill-rule="evenodd" clip-rule="evenodd" d="M10.319 21.1196V24.6801H20.4028V58.8979C20.4028 61.4598 17.9009 63.7651 15.7347 64.105C15.9946 64.1334 16.2666 64.1481 16.5357 64.1481H20.5188C22.7854 64.1499 25.7153 61.6745 25.7153 58.8979C25.7158 45.5194 25.7153 33.3331 25.7212 21.1197C20.5871 21.1195 15.4531 21.1198 10.319 21.1196Z" fill="#E5E7EB"/>
<path fill-rule="evenodd" clip-rule="evenodd" d="M30.3674 5.62036C26.9246 5.62036 24.1531 8.01573 24.1531 10.9911V21.1196C24.1531 32.3009 24.1472 46.3775 24.1472 58.8978C24.1472 61.6744 21.2172 64.1498 18.9507 64.148H38.9473C38.9473 46.2375 38.9414 30.1199 38.9414 10.8706C38.9414 8.09396 36.011 5.61859 33.7445 5.62036H30.3674Z" fill="#9CA3AF"/>
<path fill-rule="evenodd" clip-rule="evenodd" d="M30.3674 5.62036C32.049 5.63578 33.2388 8.69589 33.3096 10.8706C33.3096 30.1199 33.3155 46.2375 33.3155 64.148H38.9524C38.9524 46.2375 38.9465 30.1199 38.9465 10.8706C38.9465 8.09396 36.0162 5.61859 33.7497 5.62036H30.3674Z" fill="#858C97"/>
<path fill-rule="evenodd" clip-rule="evenodd" d="M32.8123 5.62036C35.0787 5.61859 38.0088 8.09412 38.0088 10.8707C38.0088 30.8519 38.0147 47.2972 38.0147 66.0499C38.0147 69.0692 37.9087 70.4968 39.719 72.3069L41.0433 73.6311C42.048 74.6357 43.6654 74.6357 44.67 73.6311L46.7782 71.5232L48.886 73.6311C49.8907 74.6357 51.5084 74.6357 52.513 73.6311L54.6208 71.5232L56.729 73.6311C57.7336 74.6357 59.351 74.6357 60.3557 73.6311L62.4638 71.5232L64.5717 73.6311C65.5764 74.6357 67.1941 74.6357 68.1987 73.6311L70.3066 71.5232L72.4147 73.6311C73.4193 74.6357 75.0367 74.6357 76.0414 73.6311L77.4653 72.2073C78.6982 70.8056 79.07 69.509 79.07 66.1671V10.9911C79.07 8.01573 76.2985 5.62036 72.8557 5.62036H32.8123Z" fill="#F3F4F6"/>
<path fill-rule="evenodd" clip-rule="evenodd" d="M40.8406 9.03467V9.65968H42.0909V9.03467H40.8406ZM43.9665 9.03467V9.65968H45.2168V9.03467H43.9665ZM47.0912 9.03467V9.65968H48.3415V9.03467H47.0912ZM50.2156 9.03467V9.65968H51.4659V9.03467H50.2156ZM53.3414 9.03467V9.65968H54.5918V9.03467H53.3414ZM56.4662 9.03467V9.65968H57.7161V9.03467H56.4662ZM59.5905 9.03467V9.65968H60.8408V9.03467H59.5905ZM62.7164 9.03467V9.65968H63.9667V9.03467H62.7164ZM65.8408 9.03467V9.65968H67.0911V9.03467H65.8408ZM68.9655 9.03467V9.65968H70.2158V9.03467H68.9655ZM72.0914 9.03467V9.65968H73.3417V9.03467H72.0914ZM75.2158 9.03467V9.65968H76.4661V9.03467H75.2158ZM40.8406 67.7064V68.3314H42.0909V67.7064H40.8406ZM43.9665 67.7064V68.3314H45.2168V67.7064H43.9665ZM47.0912 67.7064V68.3314H48.3415V67.7064H47.0912ZM50.2156 67.7064V68.3314H51.4659V67.7064H50.2156ZM53.3414 67.7064V68.3314H54.5918V67.7064H53.3414ZM56.4662 67.7064V68.3314H57.7161V67.7064H56.4662ZM59.5905 67.7064V68.3314H60.8408V67.7064H59.5905ZM62.7164 67.7064V68.3314H63.9667V67.7064H62.7164ZM65.8408 67.7064V68.3314H67.0911V67.7064H65.8408ZM68.9655 67.7064V68.3314H70.2158V67.7064H68.9655ZM72.0914 67.7064V68.3314H73.3417V67.7064H72.0914ZM75.2158 67.7064V68.3314H76.4661V67.7064H75.2158Z" fill="#CBD1E1"/>
<path fill-rule="evenodd" clip-rule="evenodd" d="M45.8644 15.0994C45.5193 15.0994 45.2394 15.3792 45.2394 15.7244C45.2393 16.0697 45.5191 16.3497 45.8644 16.3497H72.7195C73.0648 16.3497 73.3447 16.0697 73.3445 15.7244C73.3445 15.3792 73.0647 15.0994 72.7195 15.0994H45.8644ZM44.3212 25.8318C43.9759 25.8318 43.696 26.1118 43.6962 26.4571C43.6962 26.8022 43.976 27.0821 44.3212 27.0821H64.9269C65.2717 27.0816 65.551 26.8019 65.551 26.4571C65.5511 26.1121 65.2718 25.8323 64.9269 25.8318H44.3212ZM71.0032 25.8318C70.6578 25.8316 70.3778 26.1116 70.3779 26.4571C70.3779 26.8024 70.6579 27.0822 71.0032 27.0821H74.3736C74.7183 27.0815 74.9974 26.8018 74.9974 26.4571C74.9975 26.1123 74.7184 25.8324 74.3736 25.8318H71.0032ZM44.3212 30.9126C43.976 30.9126 43.6962 31.1924 43.6962 31.5376C43.696 31.8829 43.9759 32.1629 44.3212 32.1629H64.9269C65.2718 32.1625 65.5511 31.8826 65.551 31.5376C65.551 31.1928 65.2717 30.9131 64.9269 30.9126H44.3212ZM71.0032 30.9126C70.6579 30.9125 70.3779 31.1923 70.3779 31.5376C70.3778 31.883 70.6578 32.1631 71.0032 32.1629H74.3736C74.7184 32.1623 74.9975 31.8824 74.9974 31.5376C74.9974 31.1929 74.7183 30.9133 74.3736 30.9126H71.0032ZM44.3212 35.8827C43.976 35.8827 43.6962 36.1625 43.6962 36.5077C43.696 36.853 43.9759 37.133 44.3212 37.133H64.9269C65.2718 37.1325 65.5511 36.8526 65.551 36.5077C65.551 36.1629 65.2717 35.8832 64.9269 35.8827H44.3212ZM71.0032 35.8827C70.6579 35.8825 70.3779 36.1624 70.3779 36.5077C70.3778 36.8531 70.6578 37.1332 71.0032 37.133H74.3736C74.7184 37.1324 74.9975 36.8525 74.9974 36.5077C74.9974 36.163 74.7183 35.8834 74.3736 35.8827H71.0032ZM71.6676 45.4444C71.3222 45.4443 71.0421 45.7243 71.0423 46.0697C71.0423 46.415 71.3223 46.6949 71.6676 46.6947H74.3736C74.7183 46.6941 74.9974 46.4144 74.9974 46.0697C74.9975 45.7249 74.7184 45.4451 74.3736 45.4444H71.6676ZM71.6676 50.5253C71.3223 50.5251 71.0423 50.805 71.0423 51.1503C71.0421 51.4957 71.3222 51.7758 71.6676 51.7756H74.3736C74.7184 51.775 74.9975 51.4951 74.9974 51.1503C74.9974 50.8056 74.7183 50.526 74.3736 50.5253H71.6676ZM71.6676 55.4954C71.3223 55.4952 71.0423 55.7751 71.0423 56.1204C71.0421 56.4658 71.3222 56.7458 71.6676 56.7457H74.3736C74.7184 56.7451 74.9975 56.4652 74.9974 56.1204C74.9974 55.7757 74.7183 55.4961 74.3736 55.4954H71.6676Z" fill="#9CA3AF"/>
<path d="M43.6962 46.2452C43.696 45.8999 43.9759 45.6199 44.3212 45.6199H64.9269C65.2718 45.6204 65.5511 45.9002 65.551 46.2452C65.551 46.59 65.2717 46.8697 64.9269 46.8702H44.3212C43.976 46.8702 43.6962 46.5903 43.6962 46.2452Z" fill="#9CA3AF"/>
<path d="M43.6962 51.3257C43.6962 50.9805 43.976 50.7007 44.3212 50.7007H64.9269C65.2717 50.7012 65.551 50.9809 65.551 51.3257C65.5511 51.6707 65.2718 51.9506 64.9269 51.951H44.3212C43.9759 51.951 43.696 51.671 43.6962 51.3257Z" fill="#9CA3AF"/>
<path d="M43.6962 56.2958C43.6962 55.9506 43.976 55.6708 44.3212 55.6708H64.9269C65.2717 55.6713 65.551 55.951 65.551 56.2958C65.5511 56.6407 65.2718 56.9206 64.9269 56.9211H44.3212C43.9759 56.9211 43.696 56.6411 43.6962 56.2958Z" fill="#9CA3AF"/>
</svg>
