<svg width="20" height="21" viewBox="0 0 20 21" fill="none" xmlns="http://www.w3.org/2000/svg">
<path d="M15.7727 5.23125C15.025 4.47608 14.1357 3.87579 13.1558 3.46477C12.1758 3.05375 11.1244 2.84006 10.0617 2.83594H10C7.84512 2.83594 5.77849 3.69196 4.25476 5.21569C2.73102 6.73943 1.875 8.80605 1.875 10.9609V15.3359C1.875 15.8332 2.07254 16.3101 2.42417 16.6618C2.77581 17.0134 3.25272 17.2109 3.75 17.2109H5C5.49728 17.2109 5.97419 17.0134 6.32583 16.6618C6.67746 16.3101 6.875 15.8332 6.875 15.3359V12.2109C6.875 11.7137 6.67746 11.2367 6.32583 10.8851C5.97419 10.5335 5.49728 10.3359 5 10.3359H3.15313C3.27366 9.03276 3.76315 7.79094 4.56424 6.75602C5.36532 5.7211 6.44481 4.93596 7.67617 4.49263C8.90753 4.0493 10.2398 3.96614 11.5167 4.2529C12.7936 4.53966 13.9624 5.18445 14.8859 6.11172C16.0148 7.24633 16.7091 8.74145 16.8477 10.3359H15C14.5027 10.3359 14.0258 10.5335 13.6742 10.8851C13.3225 11.2367 13.125 11.7137 13.125 12.2109V15.3359C13.125 15.8332 13.3225 16.3101 13.6742 16.6618C14.0258 17.0134 14.5027 17.2109 15 17.2109H16.875C16.875 17.7082 16.6775 18.1851 16.3258 18.5368C15.9742 18.8884 15.4973 19.0859 15 19.0859H10.625C10.4592 19.0859 10.3003 19.1518 10.1831 19.269C10.0658 19.3862 10 19.5452 10 19.7109C10 19.8767 10.0658 20.0357 10.1831 20.1529C10.3003 20.2701 10.4592 20.3359 10.625 20.3359H15C15.8288 20.3359 16.6237 20.0067 17.2097 19.4206C17.7958 18.8346 18.125 18.0397 18.125 17.2109V10.9609C18.1291 9.89811 17.9234 8.84491 17.5197 7.86171C17.1161 6.87851 16.5224 5.98461 15.7727 5.23125ZM5 11.5859C5.16576 11.5859 5.32473 11.6518 5.44194 11.769C5.55915 11.8862 5.625 12.0452 5.625 12.2109V15.3359C5.625 15.5017 5.55915 15.6607 5.44194 15.7779C5.32473 15.8951 5.16576 15.9609 5 15.9609H3.75C3.58424 15.9609 3.42527 15.8951 3.30806 15.7779C3.19085 15.6607 3.125 15.5017 3.125 15.3359V11.5859H5ZM15 15.9609C14.8342 15.9609 14.6753 15.8951 14.5581 15.7779C14.4408 15.6607 14.375 15.5017 14.375 15.3359V12.2109C14.375 12.0452 14.4408 11.8862 14.5581 11.769C14.6753 11.6518 14.8342 11.5859 15 11.5859H16.875V15.9609H15Z" fill="#8A8D93"/>
</svg>
