<svg width="25" height="25" viewBox="0 0 25 25" fill="none" xmlns="http://www.w3.org/2000/svg">
<path d="M19.8016 3.42969H17.9266V3.05469C17.9266 2.75632 17.8081 2.47017 17.5971 2.25919C17.3862 2.04821 17.1 1.92969 16.8016 1.92969C16.5033 1.92969 16.2171 2.04821 16.0061 2.25919C15.7952 2.47017 15.6766 2.75632 15.6766 3.05469V3.42969H8.92664V3.05469C8.92664 2.75632 8.80811 2.47017 8.59713 2.25919C8.38615 2.04821 8.1 1.92969 7.80164 1.92969C7.50327 1.92969 7.21712 2.04821 7.00614 2.25919C6.79516 2.47017 6.67664 2.75632 6.67664 3.05469V3.42969H4.80164C4.30435 3.42969 3.82744 3.62723 3.47581 3.97886C3.12418 4.33049 2.92664 4.80741 2.92664 5.30469V20.3047C2.92664 20.802 3.12418 21.2789 3.47581 21.6305C3.82744 21.9821 4.30435 22.1797 4.80164 22.1797H19.8016C20.2989 22.1797 20.7758 21.9821 21.1275 21.6305C21.4791 21.2789 21.6766 20.802 21.6766 20.3047V5.30469C21.6766 4.80741 21.4791 4.33049 21.1275 3.97886C20.7758 3.62723 20.2989 3.42969 19.8016 3.42969ZM6.67664 5.67969C6.67664 5.97806 6.79516 6.2642 7.00614 6.47518C7.21712 6.68616 7.50327 6.80469 7.80164 6.80469C8.1 6.80469 8.38615 6.68616 8.59713 6.47518C8.80811 6.2642 8.92664 5.97806 8.92664 5.67969H15.6766C15.6766 5.97806 15.7952 6.2642 16.0061 6.47518C16.2171 6.68616 16.5033 6.80469 16.8016 6.80469C17.1 6.80469 17.3862 6.68616 17.5971 6.47518C17.8081 6.2642 17.9266 5.97806 17.9266 5.67969H19.4266V7.92969H5.17664V5.67969H6.67664ZM5.17664 19.9297V10.1797H19.4266V19.9297H5.17664Z" fill="white"/>
</svg>
