<svg width="43" height="43" viewBox="0 0 43 43" fill="none" xmlns="http://www.w3.org/2000/svg">
<rect x="0.109375" y="0.339844" width="42" height="42" rx="6" fill="#FF8695" fill-opacity="0.2"/>
<path d="M24.1666 25.3992L19.7041 30.2648L11.1353 20.8898C10.499 20.2073 10.0785 19.352 9.92667 18.4313C9.77488 17.5105 9.89857 16.5655 10.2822 15.7148C10.587 15.0118 11.0594 14.3941 11.6583 13.916C12.2571 13.4379 12.964 13.1138 13.7171 12.9723C14.4702 12.8307 15.2466 12.876 15.9781 13.104C16.7097 13.3321 17.3742 13.736 17.9135 14.2805L19.0385 15.4148C19.1256 15.5027 19.2293 15.5725 19.3435 15.6201C19.4578 15.6676 19.5803 15.6922 19.7041 15.6922C19.8278 15.6922 19.9504 15.6676 20.0646 15.6201C20.1789 15.5725 20.2826 15.5027 20.3697 15.4148L21.4947 14.2805C21.9356 13.8381 22.4604 13.4884 23.0384 13.2517C23.6164 13.015 24.2358 12.8963 24.8603 12.9023C25.5938 12.8979 26.3176 13.0702 26.9703 13.4048C27.6231 13.7393 28.1856 14.2262 28.6103 14.8242C29.0622 15.4425 29.3615 16.1589 29.4837 16.9149C29.6059 17.6709 29.5475 18.4451 29.3135 19.1742C29.268 19.294 29.2477 19.4218 29.2536 19.5497C29.2594 19.6777 29.2915 19.803 29.3477 19.9181C29.4039 20.0332 29.4831 20.1355 29.5804 20.2188C29.6777 20.3021 29.7911 20.3646 29.9135 20.4023C30.1497 20.4792 30.4067 20.4592 30.6282 20.3467C30.8497 20.2342 31.0175 20.0384 31.0947 19.8023C31.4235 18.7931 31.5099 17.7205 31.347 16.6716C31.1842 15.6227 30.7766 14.6269 30.1572 13.7648C29.5564 12.9194 28.7622 12.2298 27.8408 11.7536C26.9194 11.2774 25.8975 11.0284 24.8603 11.0273C23.989 11.0274 23.1263 11.1997 22.3219 11.5343C21.5174 11.869 20.7871 12.3594 20.1728 12.9773L19.7135 13.4461L19.2353 12.9773C18.6211 12.3594 17.8907 11.869 17.0863 11.5343C16.2818 11.1997 15.4191 11.0274 14.5478 11.0273C13.2729 11.0282 12.0263 11.4037 10.9629 12.107C9.89956 12.8104 9.06627 13.8107 8.56658 14.9836C8.02599 16.1691 7.85055 17.4887 8.06258 18.7743C8.27462 20.0599 8.86454 21.2532 9.7572 22.2023L19.0103 32.2898C19.0982 32.3865 19.2053 32.4638 19.3248 32.5166C19.4442 32.5695 19.5734 32.5968 19.7041 32.5968C19.8347 32.5968 19.9639 32.5695 20.0834 32.5166C20.2029 32.4638 20.31 32.3865 20.3978 32.2898L25.5541 26.6648C25.7232 26.4808 25.8122 26.2372 25.8017 25.9876C25.7911 25.7379 25.6818 25.5027 25.4978 25.3336C25.3138 25.1645 25.0702 25.0755 24.8206 25.086C24.5709 25.0966 24.3357 25.2058 24.1666 25.3898V25.3992Z" fill="#FF8695"/>
<path d="M33.2974 22.2774H26.4349L24.7942 18.1805C24.7248 18.0061 24.6045 17.8565 24.4491 17.7512C24.2936 17.6459 24.1101 17.5897 23.9224 17.5899C23.7367 17.5882 23.5548 17.6416 23.3996 17.7434C23.2444 17.8452 23.1229 17.9908 23.0505 18.1618L21.1755 22.643L20.1442 20.0555C20.0725 19.875 19.9465 19.7212 19.7836 19.6154C19.6207 19.5096 19.429 19.457 19.2349 19.4649C19.0432 19.4702 18.8577 19.5341 18.7034 19.6481C18.5492 19.7621 18.4337 19.9207 18.3724 20.1024L17.6224 22.2774H16.4224C16.1737 22.2774 15.9353 22.3762 15.7595 22.552C15.5836 22.7278 15.4849 22.9662 15.4849 23.2149C15.4849 23.4635 15.5836 23.702 15.7595 23.8778C15.9353 24.0536 16.1737 24.1524 16.4224 24.1524H18.2974C18.4939 24.1529 18.6856 24.0916 18.8455 23.9772C19.0053 23.8628 19.1251 23.7011 19.188 23.5149L19.3099 23.1305L20.2474 25.4368C20.3162 25.6097 20.435 25.7583 20.5887 25.8634C20.7423 25.9686 20.9237 26.0257 21.1099 26.0274C21.2939 26.0272 21.4738 25.9729 21.6272 25.8712C21.7805 25.7695 21.9006 25.625 21.9724 25.4555L23.8474 20.9743L24.8786 23.5618C24.9508 23.7439 25.0783 23.8987 25.2431 24.0047C25.4079 24.1106 25.6017 24.1623 25.7974 24.1524H33.2974C33.546 24.1524 33.7845 24.0536 33.9603 23.8778C34.1361 23.702 34.2349 23.4635 34.2349 23.2149C34.2349 22.9662 34.1361 22.7278 33.9603 22.552C33.7845 22.3762 33.546 22.2774 33.2974 22.2774Z" fill="#FF8695"/>
</svg>
