<svg width="16" height="17" viewBox="0 0 16 17" fill="none" xmlns="http://www.w3.org/2000/svg">
<path d="M14.4141 1.5H12.5391V0.875C12.5391 0.70924 12.4732 0.550268 12.356 0.433058C12.2388 0.315848 12.0798 0.25 11.9141 0.25C11.7483 0.25 11.5893 0.315848 11.4721 0.433058C11.3549 0.550268 11.2891 0.70924 11.2891 0.875V1.5H5.03906V0.875C5.03906 0.70924 4.97321 0.550268 4.856 0.433058C4.73879 0.315848 4.57982 0.25 4.41406 0.25C4.2483 0.25 4.08933 0.315848 3.97212 0.433058C3.85491 0.550268 3.78906 0.70924 3.78906 0.875V1.5H1.91406C1.58254 1.5 1.2646 1.6317 1.03018 1.86612C0.795759 2.10054 0.664063 2.41848 0.664062 2.75V15.25C0.664063 15.5815 0.795759 15.8995 1.03018 16.1339C1.2646 16.3683 1.58254 16.5 1.91406 16.5H14.4141C14.7456 16.5 15.0635 16.3683 15.2979 16.1339C15.5324 15.8995 15.6641 15.5815 15.6641 15.25V2.75C15.6641 2.41848 15.5324 2.10054 15.2979 1.86612C15.0635 1.6317 14.7456 1.5 14.4141 1.5ZM3.78906 2.75V3.375C3.78906 3.54076 3.85491 3.69973 3.97212 3.81694C4.08933 3.93415 4.2483 4 4.41406 4C4.57982 4 4.73879 3.93415 4.856 3.81694C4.97321 3.69973 5.03906 3.54076 5.03906 3.375V2.75H11.2891V3.375C11.2891 3.54076 11.3549 3.69973 11.4721 3.81694C11.5893 3.93415 11.7483 4 11.9141 4C12.0798 4 12.2388 3.93415 12.356 3.81694C12.4732 3.69973 12.5391 3.54076 12.5391 3.375V2.75H14.4141V5.25H1.91406V2.75H3.78906ZM14.4141 15.25H1.91406V6.5H14.4141V15.25Z" fill="#8A8D93"/>
</svg>
