<svg width="21" height="21" viewBox="0 0 21 21" fill="none" xmlns="http://www.w3.org/2000/svg">
<path d="M10.1094 5.40234C9.49131 5.40234 8.88712 5.58562 8.37322 5.929C7.85931 6.27238 7.45878 6.76044 7.22225 7.33146C6.98573 7.90248 6.92384 8.53081 7.04442 9.137C7.165 9.74319 7.46263 10.3 7.89967 10.7371C8.33671 11.1741 8.89353 11.4717 9.49972 11.5923C10.1059 11.7129 10.7342 11.651 11.3053 11.4145C11.8763 11.1779 12.3643 10.7774 12.7077 10.2635C13.0511 9.7496 13.2344 9.14541 13.2344 8.52734C13.2344 7.69854 12.9051 6.90369 12.3191 6.31764C11.733 5.73158 10.9382 5.40234 10.1094 5.40234ZM10.1094 10.4023C9.73853 10.4023 9.37602 10.2924 9.06768 10.0863C8.75934 9.88032 8.51901 9.58749 8.3771 9.24487C8.23519 8.90226 8.19806 8.52526 8.2704 8.16155C8.34275 7.79783 8.52133 7.46374 8.78355 7.20152C9.04577 6.93929 9.37987 6.76072 9.74358 6.68837C10.1073 6.61602 10.4843 6.65316 10.8269 6.79507C11.1695 6.93698 11.4624 7.17731 11.6684 7.48565C11.8744 7.79399 11.9844 8.1565 11.9844 8.52734C11.9844 9.02462 11.7868 9.50154 11.4352 9.85317C11.0836 10.2048 10.6067 10.4023 10.1094 10.4023ZM10.1094 1.65234C8.28665 1.65441 6.53916 2.3794 5.2503 3.66827C3.96143 4.95713 3.23644 6.70462 3.23438 8.52734C3.23438 10.9805 4.36797 13.5805 6.51562 16.0469C7.48064 17.1614 8.56676 18.165 9.75391 19.0391C9.85899 19.1127 9.98419 19.1522 10.1125 19.1522C10.2408 19.1522 10.366 19.1127 10.4711 19.0391C11.6561 18.1646 12.7401 17.161 13.7031 16.0469C15.8477 13.5805 16.9844 10.9805 16.9844 8.52734C16.9823 6.70462 16.2573 4.95713 14.9685 3.66827C13.6796 2.3794 11.9321 1.65441 10.1094 1.65234ZM10.1094 17.7461C8.81797 16.7305 4.48438 13 4.48438 8.52734C4.48438 7.0355 5.07701 5.60476 6.1319 4.54987C7.18679 3.49498 8.61753 2.90234 10.1094 2.90234C11.6012 2.90234 13.032 3.49498 14.0869 4.54987C15.1417 5.60476 15.7344 7.0355 15.7344 8.52734C15.7344 12.9984 11.4008 16.7305 10.1094 17.7461Z" fill="#8A8D93"/>
</svg>
