<svg width="15" height="16" viewBox="0 0 15 16" fill="none" xmlns="http://www.w3.org/2000/svg">
<path fill-rule="evenodd" clip-rule="evenodd" d="M6.42856 15.7212C6.28105 15.5679 6.04545 15.2241 6.04545 15.2241C6.04545 15.2241 5.62252 14.4667 3.89792 14.3681C3.80386 14.3577 3.70956 14.3519 3.61534 14.3461C3.46694 14.3369 3.3187 14.3277 3.17186 14.3008C2.68087 14.2109 2.22093 14.0485 1.83573 13.7044C1.57094 13.4678 1.39545 13.1675 1.26153 12.8386C1.18595 12.653 0.647948 10.9523 1.04762 11.1046C1.1389 11.1394 1.21436 11.1991 1.27726 11.2761C1.37625 11.3972 1.44393 11.5376 1.5116 11.6779L1.53005 11.7161C1.55691 11.7715 1.58293 11.8275 1.60895 11.8834C1.6897 12.0569 1.77045 12.2304 1.87651 12.39C1.98348 12.551 1.98325 12.5513 1.85246 12.6989C1.65002 12.9275 1.69189 13.2283 1.95067 13.3857C2.0492 13.4456 2.1561 13.4851 2.26853 13.5101C2.67757 13.601 3.09106 13.6634 3.50646 13.71C3.53341 13.7131 3.56046 13.7168 3.58786 13.7207C3.69481 13.7356 3.80745 13.7513 3.9412 13.7265C3.91451 13.7164 3.89181 13.7076 3.87162 13.6997C3.83435 13.6851 3.80559 13.6739 3.77626 13.6649C3.41362 13.5534 3.04272 13.4798 2.67128 13.4091C2.6328 13.4018 2.59423 13.3948 2.55566 13.3879C2.37028 13.3546 2.18493 13.3214 2.01003 13.2437C1.90306 13.1961 1.8347 13.1154 1.83821 12.9903C1.84171 12.8656 1.89908 12.7776 2.01622 12.7285C2.12869 12.6814 2.24648 12.6664 2.36397 12.6514L2.36424 12.6513C2.38439 12.6488 2.40454 12.6462 2.42465 12.6435C2.88269 12.5812 3.34337 12.5775 3.80428 12.5737C3.84971 12.5734 3.89519 12.573 3.94062 12.5726C4.813 12.5644 5.60371 12.8247 6.32057 13.333C6.58031 13.5172 6.78397 13.7199 6.97498 13.9101C7.34794 14.2813 7.67267 14.6046 8.27244 14.648C8.84386 14.6893 9.16485 14.5743 9.5724 14.1571C10.8403 12.7824 11.1904 12.2357 11.8692 11.1756C11.9868 10.9919 12.1143 10.7928 12.2581 10.5713C12.1453 10.7143 12.0317 10.8496 11.9193 10.9836C11.7518 11.1831 11.587 11.3796 11.4311 11.5934C11.2003 11.9099 10.9695 12.2265 10.7072 12.5082C10.1367 13.2073 9.88957 13.4848 9.20999 14.1571C8.98346 14.4452 8.47569 14.4251 8.32448 14.3705C8.09277 14.2869 8.01827 14.2241 7.89094 14.1167C7.84512 14.078 7.79245 14.0336 7.72315 13.9804C7.62031 13.9014 7.51811 13.8214 7.4159 13.7415C7.04659 13.4527 6.67717 13.1638 6.27814 12.9186C5.74465 12.5908 5.17281 12.3664 4.55568 12.2957C3.87376 12.2175 3.19322 12.2716 2.51679 12.38C2.42583 12.3945 2.36558 12.3713 2.31372 12.2885C2.1208 11.9807 2.03284 11.648 2.06887 11.2812C2.14307 10.5257 2.49685 9.96507 3.15867 9.63079C3.72896 9.34274 4.39198 9.4334 4.71623 9.97879C4.78394 10.0927 4.89657 10.1602 5.02786 10.1713C5.06997 10.1749 5.11275 10.1686 5.15565 10.1623C5.18216 10.1584 5.20875 10.1545 5.23522 10.1529C5.32733 10.1474 5.38399 10.1896 5.38568 10.2904C5.38668 10.3503 5.40539 10.393 5.46482 10.411C5.5719 10.4434 5.62705 10.5236 5.64629 10.6329C5.65524 10.6836 5.68111 10.7244 5.7072 10.7655C5.71123 10.7718 5.7153 10.7782 5.71928 10.7846C5.84123 10.9809 5.84001 11.1351 5.70691 11.322C5.5886 11.4882 5.52806 11.6783 5.48127 11.8746L5.48029 11.8787C5.47177 11.9142 5.46164 11.9564 5.49467 11.9893C5.49681 11.9882 5.49889 11.9872 5.50087 11.9863C5.5024 11.9856 5.50388 11.985 5.50528 11.9844C5.51116 11.9819 5.51572 11.9799 5.51788 11.9764C5.72195 11.6432 6.02797 11.4862 6.39318 11.4303C6.87852 11.3559 7.23799 11.118 7.38629 10.6066C7.39161 10.5882 7.39806 10.5701 7.40451 10.5521C7.41339 10.5273 7.42227 10.5025 7.42817 10.4769C7.47632 10.2682 7.45533 10.0768 7.29567 9.92026C7.25582 9.88121 7.21932 9.83826 7.1834 9.7952C7.15931 9.76632 7.13559 9.73456 7.15961 9.69295C7.18378 9.65109 7.22251 9.65259 7.26196 9.65411L7.26691 9.6543C7.28718 9.65505 7.30558 9.66389 7.32392 9.67269C7.34854 9.68452 7.37305 9.69629 7.40179 9.68832C7.42414 9.66193 7.41719 9.63588 7.41032 9.61015C7.40747 9.59951 7.40464 9.5889 7.40391 9.57837C7.402 9.55081 7.39704 9.52342 7.39207 9.49604C7.3821 9.44106 7.37214 9.38613 7.38694 9.32998C7.389 9.32213 7.39059 9.31361 7.3922 9.30495C7.39908 9.26797 7.40645 9.22831 7.45415 9.22631C7.49569 9.22456 7.50564 9.2585 7.51518 9.29108C7.5177 9.29967 7.5202 9.30821 7.52324 9.31593C7.53105 9.3358 7.53751 9.3564 7.54401 9.37717C7.5628 9.43712 7.58198 9.49836 7.63544 9.54681C7.6674 9.47521 7.67816 9.40272 7.68868 9.33181C7.69498 9.28936 7.70119 9.24747 7.71183 9.20668C7.72393 9.16022 7.74343 9.11555 7.79789 9.1203C7.84385 9.12431 7.84913 9.16151 7.8545 9.19928L7.85551 9.20632C7.85594 9.20923 7.85638 9.21214 7.85686 9.21502C7.86036 9.2361 7.86152 9.25772 7.86271 9.27998C7.86551 9.33198 7.86849 9.38753 7.90178 9.44788C7.9093 9.42728 7.91594 9.40855 7.92211 9.39114C7.93509 9.35455 7.94601 9.32376 7.95859 9.29376L7.96145 9.28686C7.97495 9.25407 7.99012 9.21721 8.03484 9.22835C8.0746 9.23825 8.07554 9.27775 8.07588 9.31238C8.07639 9.36467 8.07629 9.41697 8.07619 9.47229V9.47268L8.07618 9.4741C8.07614 9.4969 8.0761 9.52021 8.0761 9.54424C8.11495 9.53129 8.13149 9.50646 8.14683 9.48344C8.15214 9.47547 8.15731 9.46771 8.16321 9.46074C8.16695 9.45632 8.17066 9.45153 8.17441 9.44669C8.19445 9.42082 8.21584 9.3932 8.25142 9.40983C8.29522 9.4303 8.29111 9.47784 8.28387 9.5202C8.27094 9.59576 8.24349 9.6661 8.21043 9.7344C8.09136 9.98031 8.03796 10.2428 8.03473 10.5161C8.0267 11.1942 7.79166 11.7368 7.18626 12.0626C7.18049 12.0657 7.17409 12.0683 7.16753 12.071C7.14131 12.0819 7.11252 12.0938 7.11102 12.1403L7.14712 12.1403H7.14756H7.14859C7.17315 12.1402 7.19704 12.1402 7.22094 12.1403C7.62218 12.1419 7.80861 12.2938 7.86771 12.6545C7.91656 12.9526 8.06531 13.2089 8.27244 13.4247C8.27798 13.4304 8.28342 13.4365 8.2889 13.4426C8.31704 13.4739 8.34628 13.5065 8.39441 13.5064C8.40671 13.4712 8.3903 13.4504 8.37523 13.4313C8.37226 13.4275 8.36934 13.4238 8.36669 13.42C8.14861 13.111 8.00861 12.7685 7.94125 12.3917C7.88461 12.0749 7.99035 11.8084 8.25254 11.6371C8.39025 11.5472 8.54165 11.4893 8.69506 11.4364C8.79043 11.4034 8.88587 11.3707 8.98132 11.338L8.98248 11.3376C9.22095 11.2558 9.45947 11.174 9.69681 11.0888C9.86243 11.0294 9.9118 10.9484 9.86191 10.7863C9.82099 10.6533 9.81213 10.5174 9.80328 10.3817C9.7981 10.3022 9.79292 10.2227 9.78129 10.1439C9.76666 10.0447 9.81021 10.0049 9.90138 10.0391C9.95221 10.0582 10.0049 10.0645 10.058 10.071C10.1006 10.0761 10.1434 10.0813 10.1858 10.0931C10.1942 10.0955 10.2024 10.0977 10.2103 10.0999L10.2183 10.102C10.3442 10.1363 10.3971 10.1506 10.4218 10.2979C10.4345 10.3737 10.4486 10.4492 10.4626 10.5248L10.4626 10.5251C10.4956 10.703 10.5285 10.8809 10.545 11.0617C10.5648 11.2779 10.5124 11.3966 10.3192 11.4612C10.1088 11.5315 9.9442 11.6589 9.78935 11.8149C9.61785 11.9876 9.42541 12.1343 9.20831 12.2421C9.1992 12.2466 9.18921 12.25 9.17925 12.2535C9.15011 12.2635 9.12122 12.2735 9.11538 12.3101C9.10784 12.3573 9.14182 12.3775 9.17401 12.3966C9.17855 12.3993 9.18305 12.402 9.1874 12.4047C9.18933 12.4059 9.19123 12.4071 9.19309 12.4084C9.19742 12.4113 9.20163 12.4146 9.20586 12.4181C9.20719 12.4192 9.20853 12.4203 9.20987 12.4215C9.22901 12.4375 9.24903 12.4542 9.28054 12.4415C9.27915 12.4374 9.27809 12.4332 9.27708 12.4293C9.275 12.4212 9.27311 12.4138 9.26898 12.4082L9.26698 12.4055L9.26283 12.3999C9.23492 12.3625 9.20545 12.323 9.23536 12.2755C9.26241 12.2325 9.30424 12.2421 9.34296 12.251C9.35139 12.2529 9.35968 12.2548 9.36763 12.2562C9.53772 12.2844 9.67547 12.374 9.78844 12.5065C9.83418 12.5601 9.8752 12.5867 9.92578 12.5082C10.1491 12.1619 10.4124 11.8513 10.7072 11.5682C10.8214 11.4585 10.8853 11.3155 10.9016 11.1561C10.9489 10.6934 10.857 10.2698 10.55 9.91517C10.4741 9.82749 10.4762 9.75956 10.546 9.66727C10.8308 9.29087 11.0638 8.88223 11.2163 8.42891C11.374 7.95986 11.398 7.49508 11.1194 7.06141C10.9222 6.75438 10.6503 6.53009 10.332 6.36645C10.1755 6.28594 10.0087 6.27389 9.83791 6.29008C9.8177 6.292 9.79806 6.2978 9.77809 6.3037C9.74515 6.31344 9.71133 6.32343 9.67265 6.31663C9.6688 6.25148 9.68879 6.19317 9.7086 6.13536C9.71788 6.1083 9.72712 6.08134 9.73386 6.05384C9.74487 6.00891 9.7575 5.96439 9.77013 5.91989C9.78129 5.88055 9.79246 5.8412 9.80251 5.80156C9.82486 5.71338 9.84558 5.62468 9.8644 5.53562L9.86689 5.52393L9.86698 5.52347C9.88422 5.4424 9.90176 5.35991 9.88353 5.25539C9.87863 5.26833 9.87462 5.27829 9.87134 5.28644C9.8659 5.29996 9.86246 5.30852 9.8603 5.31738C9.7106 5.93205 9.45088 6.49635 9.12856 7.03175C9.03123 7.19342 8.92442 7.34834 8.79221 7.48189C8.69857 7.57647 8.59265 7.65035 8.45607 7.65813C8.22383 7.67135 8.06231 7.55451 7.95738 7.35087C7.88075 7.20216 7.77387 7.13097 7.60939 7.15336C7.5405 7.16273 7.47035 7.16044 7.40437 7.12759C7.30353 7.0774 7.29194 7.02786 7.35419 6.93176C7.36238 6.91912 7.37286 6.90739 7.38341 6.89557C7.41112 6.86454 7.45189 6.8182 7.44081 6.76777C7.40687 6.75628 7.3641 6.77716 7.3429 6.79118C7.33639 6.79549 7.32997 6.79974 7.32331 6.80316C7.06526 6.93575 6.96959 6.90349 6.86457 6.62821C6.82617 6.52755 6.75585 6.47912 6.65011 6.48793C6.59429 6.49258 6.54135 6.50916 6.48845 6.52573C6.45716 6.53553 6.42588 6.54533 6.39402 6.55266C6.12725 6.61398 5.98114 6.46675 6.02591 6.1875C6.06945 5.91591 6.08867 5.64434 6.01687 5.37325C5.99345 5.28482 5.95275 5.24673 5.85904 5.26596C5.77341 5.28352 5.74249 5.26256 5.66967 5.21318C5.66517 5.21013 5.6605 5.20697 5.65566 5.2037C5.6757 5.19561 5.68175 5.19321 5.6876 5.19037C5.69245 5.18801 5.69716 5.18535 5.70962 5.17889C5.88697 5.12391 6.06225 5.06957 6.22071 4.9713C6.41498 4.85083 6.57199 4.69409 6.65928 4.45051C6.59103 4.46182 6.54564 4.49164 6.51839 4.52695C6.51408 4.53253 6.50977 4.53811 6.50544 4.54351C6.34242 4.74672 6.15346 4.89486 5.93077 5.01559C5.87729 5.04458 5.83673 5.0612 5.80591 4.99881C5.71077 4.80627 5.55392 4.67505 5.39276 4.54768C4.92429 4.17742 4.56674 3.7191 4.35401 3.14504C4.35199 3.13958 4.35041 3.13362 4.34877 3.12747C4.34259 3.10424 4.33567 3.0782 4.30155 3.06545C4.36873 3.6759 4.66351 4.13936 5.13222 4.4893C5.09477 4.53471 5.06394 4.5287 5.03658 4.52337L5.03587 4.52323C4.7745 4.47233 4.51765 4.40169 4.29904 4.23854C3.60817 3.72292 3.41489 2.99229 3.49394 2.1588C3.53899 1.68374 3.73646 1.26248 3.98287 0.864562L3.98956 0.853778C4.02642 0.794318 4.06355 0.734412 4.09177 0.670688C5.0395 0.239372 6.08686 0 7.18812 0C11.448 0 14.9014 3.58172 14.9014 8C14.9014 12.4183 11.448 16 7.18812 16C7.01733 16 6.84784 15.9942 6.67982 15.9829C6.59617 15.8956 6.51243 15.8083 6.42856 15.7212ZM13.2756 6.60108C13.2072 6.5791 13.0821 6.52468 12.9276 6.44524C13.0814 6.52944 13.208 6.58183 13.2756 6.60108ZM12.9276 6.44524C12.5667 6.24784 12.0556 5.87562 11.8003 5.34601C12.3363 5.65693 12.4352 5.62976 12.4352 5.62976C12.4352 5.62976 11.9261 5.45514 11.6699 4.95656C11.5744 4.4632 11.6398 4.18462 11.6973 3.94002C11.7609 3.66947 11.8147 3.4405 11.6301 3.00844C11.3489 2.35029 9.46865 1.33153 8.56367 0.904423C9.38872 1.41149 10.9122 2.47822 11.2163 3.12747C11.3968 3.51285 11.5245 3.95958 11.4516 4.28715C11.3711 4.64941 11.2931 5.00012 11.566 5.39191C11.8699 5.82829 12.5073 6.22924 12.9276 6.44524ZM4.63062 2.63144C4.29641 2.20872 4.40306 1.59577 4.49816 1.34214C4.41665 2.51519 4.79365 2.49405 4.79365 2.49405C4.79365 2.49405 4.62043 2.0502 4.79365 1.8494C4.75289 2.0819 4.85886 2.59762 5.20122 2.8428C5.54358 3.08798 6.36958 3.34654 6.73979 3.44518C6.17599 3.35006 4.96483 3.05416 4.63062 2.63144ZM5.31352 1.57893C7.88673 2.43467 9.09366 2.40275 9.26903 2.23607C9.18003 2.21013 9.08838 2.18619 8.99642 2.16216C8.45902 2.02173 7.91066 1.87845 7.81346 1.31758C7.77921 1.11995 7.81862 0.916029 7.81862 0.916029C7.81862 0.916029 7.78217 1.0587 7.7829 1.31716C7.78467 1.94784 8.42305 2.16216 8.42305 2.16216C8.42305 2.16216 8.15201 2.18695 7.22376 2.00697C6.67985 1.90151 5.31352 1.57893 5.31352 1.57893Z" fill="#2B4360"/>
</svg>
