<svg width="21" height="21" viewBox="0 0 21 21" fill="none" xmlns="http://www.w3.org/2000/svg">
<path d="M18.2744 4.25H3.27441C3.10865 4.25 2.94968 4.31585 2.83247 4.43306C2.71526 4.55027 2.64941 4.70924 2.64941 4.875V15.5C2.64941 15.8315 2.78111 16.1495 3.01553 16.3839C3.24995 16.6183 3.56789 16.75 3.89941 16.75H17.6494C17.9809 16.75 18.2989 16.6183 18.5333 16.3839C18.7677 16.1495 18.8994 15.8315 18.8994 15.5V4.875C18.8994 4.70924 18.8336 4.55027 18.7164 4.43306C18.5991 4.31585 18.4402 4.25 18.2744 4.25ZM16.6674 5.5L10.7744 10.9023L4.88145 5.5H16.6674ZM17.6494 15.5H3.89941V6.29609L10.3518 12.2109C10.4671 12.3168 10.6179 12.3755 10.7744 12.3755C10.9309 12.3755 11.0818 12.3168 11.1971 12.2109L17.6494 6.29609V15.5Z" fill="#8A8D93"/>
</svg>
