<svg width="35" height="35" viewBox="0 0 35 35" fill="none" xmlns="http://www.w3.org/2000/svg">
<rect x="0.399414" y="0.5" width="34" height="34" rx="6" fill="#0062D2" fill-opacity="0.2"/>
<path d="M25.7697 9.79492H25.3824C25.2609 9.79492 25.1624 9.89346 25.1624 10.0149C25.1624 10.1364 25.2609 10.2349 25.3824 10.2349H25.7697C26.0911 10.2349 26.3523 10.4962 26.3523 10.8176V26.0852C26.3523 26.4058 26.0916 26.6665 25.7711 26.6665H9.02904C8.70849 26.6665 8.44781 26.4058 8.44781 26.0852V10.8176C8.44781 10.4962 8.70906 10.2349 9.03047 10.2349H9.41776C9.53922 10.2349 9.63776 10.1364 9.63776 10.0149C9.63776 9.89346 9.53922 9.79492 9.41776 9.79492H9.03047C8.46643 9.79492 8.00781 10.2535 8.00781 10.8176V26.0852C8.00781 26.6484 8.46586 27.1065 9.02904 27.1065H25.7711C26.3343 27.1065 26.7923 26.6484 26.7923 26.0852V10.8176C26.7923 10.2535 26.3337 9.79492 25.7697 9.79492Z" fill="#0062D2" stroke="#0062D2" stroke-width="0.289362"/>
<path d="M11.1893 11.7314C11.3108 11.7314 11.4093 11.6329 11.4093 11.5114C11.4093 11.3899 11.3108 11.2914 11.1893 11.2914C10.7708 11.2914 10.4039 10.5999 10.4039 9.81185C10.4039 9.0238 10.7708 8.33258 11.1893 8.33258C11.4271 8.33258 11.6683 8.56661 11.8187 8.94331C11.8639 9.05617 11.9917 9.11232 12.1046 9.06591C12.2174 9.02094 12.2724 8.89289 12.2272 8.78003C12.0055 8.2243 11.6173 7.89258 11.1893 7.89258C10.5021 7.89258 9.96387 8.73563 9.96387 9.81185C9.96387 10.8884 10.5021 11.7314 11.1893 11.7314ZM14.5535 8.33258C14.7913 8.33258 15.0325 8.56661 15.1829 8.94331C15.2278 9.05617 15.3556 9.11232 15.4687 9.06591C15.5816 9.02094 15.6366 8.89289 15.5913 8.78003C15.3696 8.2243 14.9815 7.89258 14.5535 7.89258C13.8663 7.89258 13.328 8.73563 13.328 9.81185C13.328 10.8884 13.8663 11.7314 14.5535 11.7314C14.675 11.7314 14.7735 11.6329 14.7735 11.5114C14.7735 11.3899 14.675 11.2914 14.5535 11.2914C14.135 11.2914 13.768 10.5999 13.768 9.81185C13.768 9.0238 14.135 8.33258 14.5535 8.33258ZM17.9177 7.89258C17.2305 7.89258 16.6922 8.73563 16.6922 9.81185C16.6922 10.8884 17.2305 11.7314 17.9177 11.7314C18.0391 11.7314 18.1377 11.6329 18.1377 11.5114C18.1377 11.3899 18.0391 11.2914 17.9177 11.2914C17.4992 11.2914 17.1322 10.5999 17.1322 9.81185C17.1322 9.0238 17.4992 8.33258 17.9177 8.33258C18.1554 8.33258 18.3966 8.56661 18.5473 8.94331C18.5926 9.05617 18.7212 9.11089 18.8332 9.06591C18.9461 9.02094 19.0011 8.89289 18.9558 8.78003C18.7335 8.2243 18.3456 7.89258 17.9177 7.89258ZM21.2818 7.89258C20.5949 7.89258 20.0567 8.73563 20.0567 9.81185C20.0567 10.8884 20.5949 11.7314 21.2818 11.7314C21.4033 11.7314 21.5018 11.6329 21.5018 11.5114C21.5018 11.3899 21.4033 11.2914 21.2818 11.2914C20.8636 11.2914 20.4967 10.5999 20.4967 9.81185C20.4967 9.0238 20.8636 8.33258 21.2818 8.33258C21.5196 8.33258 21.7608 8.56661 21.9115 8.94331C21.9564 9.05617 22.0851 9.11089 22.1974 9.06591C22.3102 9.02094 22.3652 8.89289 22.32 8.78003C22.0977 8.2243 21.7098 7.89258 21.2818 7.89258ZM24.6463 7.89258C23.9591 7.89258 23.4208 8.73563 23.4208 9.81185C23.4208 10.8884 23.9591 11.7314 24.6463 11.7314C24.7677 11.7314 24.8663 11.6329 24.8663 11.5114C24.8663 11.3899 24.7677 11.2914 24.6463 11.2914C24.2278 11.2914 23.8608 10.5999 23.8608 9.81185C23.8608 9.0238 24.2278 8.33258 24.6463 8.33258C24.8838 8.33258 25.125 8.56661 25.2756 8.94331C25.3209 9.05617 25.4498 9.11089 25.5615 9.06591C25.6744 9.02094 25.7294 8.89289 25.6841 8.78003C25.4618 8.2243 25.074 7.89258 24.6463 7.89258Z" fill="#0062D2" stroke="#0062D2" stroke-width="0.289362"/>
<path d="M12.7851 10.0149C12.7851 9.89346 12.6865 9.79492 12.5651 9.79492H11.4041C11.2826 9.79492 11.1841 9.89346 11.1841 10.0149C11.1841 10.1364 11.2826 10.2349 11.4041 10.2349H12.5651C12.6865 10.2349 12.7851 10.1364 12.7851 10.0149ZM15.9674 10.2349C16.0888 10.2349 16.1874 10.1364 16.1874 10.0149C16.1874 9.89346 16.0888 9.79492 15.9674 9.79492H14.8063C14.6849 9.79492 14.5863 9.89346 14.5863 10.0149C14.5863 10.1364 14.6849 10.2349 14.8063 10.2349H15.9674ZM17.9296 10.0149C17.9296 10.1364 18.0281 10.2349 18.1496 10.2349H19.3109C19.4324 10.2349 19.5309 10.1364 19.5309 10.0149C19.5309 9.89346 19.4324 9.79492 19.3109 9.79492H18.1496C18.0281 9.79492 17.9296 9.89346 17.9296 10.0149ZM22.533 9.79492H21.372C21.2505 9.79492 21.152 9.89346 21.152 10.0149C21.152 10.1364 21.2505 10.2349 21.372 10.2349H22.533C22.6544 10.2349 22.753 10.1364 22.753 10.0149C22.753 9.89346 22.6544 9.79492 22.533 9.79492ZM12.1437 13.3567C11.4413 13.3567 10.8701 13.9279 10.8701 14.6301V23.3533C10.8701 24.0418 11.4271 24.6266 12.1437 24.6266H20.7071C20.8286 24.6266 20.9271 24.528 20.9271 24.4066C20.9271 24.2851 20.8286 24.1866 20.7071 24.1866H12.1437C11.6716 24.1866 11.3101 23.8009 11.3101 23.3533V14.6301C11.3101 14.1706 11.6839 13.7967 12.1437 13.7967H23.0887C23.5482 13.7967 23.922 14.1706 23.922 14.6301V21.6577C23.922 21.748 23.8879 21.8336 23.8263 21.8989L22.1251 23.6999C22.0671 23.7613 21.9666 23.7233 21.9543 23.667L21.7298 21.652C21.7175 21.59 21.7652 21.5314 21.8292 21.5314H22.3817C22.5032 21.5314 22.6017 21.4329 22.6017 21.3114C22.6017 21.1899 22.5032 21.0914 22.3817 21.0914H21.8292C21.4804 21.0914 21.235 21.417 21.2952 21.7182L21.5198 23.7328C21.6042 24.1707 22.1454 24.3192 22.4448 24.0021L24.146 22.2011C24.2852 22.0539 24.362 21.8608 24.362 21.6577V14.6301C24.362 13.9279 23.7908 13.3567 23.0887 13.3567H12.1437Z" fill="#0062D2" stroke="#0062D2" stroke-width="0.289362"/>
<path d="M17.6503 17.6144C17.7079 17.7212 17.8411 17.7622 17.9482 17.7043C18.0554 17.6468 18.0955 17.5136 18.0382 17.4064C17.6019 16.594 17.0774 15.7911 16.8717 15.4834C16.7307 15.2734 16.4235 15.274 16.2839 15.4837C15.7185 16.3296 14.4033 18.3996 14.4033 19.3535C14.4033 20.5526 15.3787 21.528 16.5778 21.528C16.6993 21.528 16.7978 21.4295 16.7978 21.308C16.7978 21.1865 16.6993 21.088 16.5778 21.088C15.6213 21.088 14.8433 20.31 14.8433 19.3535C14.8433 18.6915 15.7259 17.1237 16.5778 15.8364C16.813 16.1924 17.2673 16.9005 17.6503 17.6144Z" fill="#0062D2" stroke="#0062D2" stroke-width="0.289362"/>
<path d="M18.7704 21.8644C19.555 21.8644 20.1933 21.2261 20.1933 20.4414C20.1933 19.8576 19.4588 18.6645 19.0211 18.0053C18.9091 17.8368 18.6318 17.8368 18.5199 18.0053C18.0821 18.6645 17.3477 19.8576 17.3477 20.4414C17.3477 21.2261 17.986 21.8644 18.7704 21.8644ZM18.7704 18.3045C19.2887 19.0957 19.8194 20.0456 19.8194 20.4414C19.8194 21.0199 19.3488 21.4904 18.7704 21.4904C18.1922 21.4904 17.7216 21.0199 17.7216 20.4414C17.7216 20.0456 18.2523 19.0954 18.7704 18.3045Z" fill="#0062D2" stroke="#0062D2" stroke-width="0.245915"/>
</svg>
