<svg width="17" height="16" viewBox="0 0 17 16" fill="none" xmlns="http://www.w3.org/2000/svg">
<path d="M8.4043 2.5V1C8.4043 0.867392 8.45698 0.740215 8.55074 0.646447C8.64451 0.552678 8.77169 0.5 8.9043 0.5C9.03691 0.5 9.16408 0.552678 9.25785 0.646447C9.35162 0.740215 9.4043 0.867392 9.4043 1V2.5C9.4043 2.63261 9.35162 2.75979 9.25785 2.85355C9.16408 2.94732 9.03691 3 8.9043 3C8.77169 3 8.64451 2.94732 8.55074 2.85355C8.45698 2.75979 8.4043 2.63261 8.4043 2.5ZM8.9043 4C8.11317 4 7.33981 4.2346 6.68202 4.67412C6.02422 5.11365 5.51153 5.73836 5.20878 6.46927C4.90603 7.20017 4.82681 8.00444 4.98116 8.78036C5.1355 9.55628 5.51646 10.269 6.07587 10.8284C6.63528 11.3878 7.34801 11.7688 8.12394 11.9231C8.89986 12.0775 9.70413 11.9983 10.435 11.6955C11.1659 11.3928 11.7906 10.8801 12.2302 10.2223C12.6697 9.56448 12.9043 8.79113 12.9043 8C12.9031 6.93949 12.4813 5.92275 11.7314 5.17285C10.9816 4.42296 9.96481 4.00116 8.9043 4ZM4.55055 4.35375C4.64437 4.44757 4.77161 4.50028 4.9043 4.50028C5.03698 4.50028 5.16423 4.44757 5.25805 4.35375C5.35187 4.25993 5.40457 4.13268 5.40457 4C5.40457 3.86732 5.35187 3.74007 5.25805 3.64625L4.25805 2.64625C4.16423 2.55243 4.03698 2.49972 3.9043 2.49972C3.77161 2.49972 3.64437 2.55243 3.55055 2.64625C3.45673 2.74007 3.40402 2.86732 3.40402 3C3.40402 3.13268 3.45673 3.25993 3.55055 3.35375L4.55055 4.35375ZM4.55055 11.6462L3.55055 12.6462C3.45673 12.7401 3.40402 12.8673 3.40402 13C3.40402 13.1327 3.45673 13.2599 3.55055 13.3538C3.64437 13.4476 3.77161 13.5003 3.9043 13.5003C4.03698 13.5003 4.16423 13.4476 4.25805 13.3538L5.25805 12.3538C5.3045 12.3073 5.34135 12.2521 5.36649 12.1914C5.39163 12.1308 5.40457 12.0657 5.40457 12C5.40457 11.9343 5.39163 11.8692 5.36649 11.8086C5.34135 11.7479 5.3045 11.6927 5.25805 11.6462C5.21159 11.5998 5.15644 11.5629 5.09575 11.5378C5.03505 11.5127 4.96999 11.4997 4.9043 11.4997C4.8386 11.4997 4.77355 11.5127 4.71285 11.5378C4.65215 11.5629 4.597 11.5998 4.55055 11.6462ZM12.9043 4.5C12.97 4.50005 13.035 4.48716 13.0957 4.46207C13.1564 4.43697 13.2116 4.40017 13.258 4.35375L14.258 3.35375C14.3519 3.25993 14.4046 3.13268 14.4046 3C14.4046 2.86732 14.3519 2.74007 14.258 2.64625C14.1642 2.55243 14.037 2.49972 13.9043 2.49972C13.7716 2.49972 13.6444 2.55243 13.5505 2.64625L12.5505 3.64625C12.4805 3.71618 12.4329 3.8053 12.4135 3.90235C12.3942 3.99939 12.4041 4.09998 12.442 4.1914C12.4799 4.28281 12.544 4.36092 12.6263 4.41586C12.7086 4.4708 12.8053 4.50008 12.9043 4.5ZM13.258 11.6462C13.1642 11.5524 13.037 11.4997 12.9043 11.4997C12.7716 11.4997 12.6444 11.5524 12.5505 11.6462C12.4567 11.7401 12.404 11.8673 12.404 12C12.404 12.1327 12.4567 12.2599 12.5505 12.3538L13.5505 13.3538C13.597 13.4002 13.6522 13.4371 13.7128 13.4622C13.7735 13.4873 13.8386 13.5003 13.9043 13.5003C13.97 13.5003 14.035 13.4873 14.0957 13.4622C14.1564 13.4371 14.2116 13.4002 14.258 13.3538C14.3045 13.3073 14.3414 13.2521 14.3665 13.1914C14.3916 13.1308 14.4046 13.0657 14.4046 13C14.4046 12.9343 14.3916 12.8692 14.3665 12.8086C14.3414 12.7479 14.3045 12.6927 14.258 12.6462L13.258 11.6462ZM3.9043 8C3.9043 7.86739 3.85162 7.74021 3.75785 7.64645C3.66408 7.55268 3.53691 7.5 3.4043 7.5H1.9043C1.77169 7.5 1.64451 7.55268 1.55074 7.64645C1.45698 7.74021 1.4043 7.86739 1.4043 8C1.4043 8.13261 1.45698 8.25979 1.55074 8.35355C1.64451 8.44732 1.77169 8.5 1.9043 8.5H3.4043C3.53691 8.5 3.66408 8.44732 3.75785 8.35355C3.85162 8.25979 3.9043 8.13261 3.9043 8ZM8.9043 13C8.77169 13 8.64451 13.0527 8.55074 13.1464C8.45698 13.2402 8.4043 13.3674 8.4043 13.5V15C8.4043 15.1326 8.45698 15.2598 8.55074 15.3536C8.64451 15.4473 8.77169 15.5 8.9043 15.5C9.03691 15.5 9.16408 15.4473 9.25785 15.3536C9.35162 15.2598 9.4043 15.1326 9.4043 15V13.5C9.4043 13.3674 9.35162 13.2402 9.25785 13.1464C9.16408 13.0527 9.03691 13 8.9043 13ZM15.9043 7.5H14.4043C14.2717 7.5 14.1445 7.55268 14.0507 7.64645C13.957 7.74021 13.9043 7.86739 13.9043 8C13.9043 8.13261 13.957 8.25979 14.0507 8.35355C14.1445 8.44732 14.2717 8.5 14.4043 8.5H15.9043C16.0369 8.5 16.1641 8.44732 16.2579 8.35355C16.3516 8.25979 16.4043 8.13261 16.4043 8C16.4043 7.86739 16.3516 7.74021 16.2579 7.64645C16.1641 7.55268 16.0369 7.5 15.9043 7.5Z" fill="#B0B4C1"/>
</svg>
