<svg width="41" height="40" viewBox="0 0 41 40" fill="none" xmlns="http://www.w3.org/2000/svg">
<rect x="0.716797" y="0.3125" width="39.375" height="39.375" rx="19.6875" fill="#FFFBD6"/>
<rect x="0.716797" y="0.3125" width="39.375" height="39.375" rx="19.6875" stroke="#FACA15" stroke-width="0.625"/>
<g clip-path="url(#clip0_7184_35136)">
<path d="M29.1932 20.4836C28.7245 23.6875 28.3729 23.9992 28.3729 23.9992L12.3956 24.0789C12.3956 24.0789 10.0143 19.157 13.53 15.2898C15.2948 13.3469 17.1182 12.6086 18.4964 12.3508H18.501C18.2572 12.6355 18.0566 12.9545 17.9057 13.2976C17.6988 13.7649 17.5919 14.2702 17.5917 14.7812C17.5951 15.7776 17.9936 16.7319 18.6996 17.4349C19.4057 18.1379 20.3617 18.5321 21.3581 18.5312H28.5862C29.0385 19.2156 29.2823 19.8812 29.1932 20.4836Z" fill="#FACA15"/>
<path d="M32.5918 27.4375H8.2168C8.09248 27.4375 7.97325 27.4869 7.88534 27.5748C7.79743 27.6627 7.74805 27.7819 7.74805 27.9062C7.74805 28.0306 7.79743 28.1498 7.88534 28.2377C7.97325 28.3256 8.09248 28.375 8.2168 28.375H32.5918C32.7161 28.375 32.8353 28.3256 32.9233 28.2377C33.0112 28.1498 33.0605 28.0306 33.0605 27.9062C33.0605 27.7819 33.0112 27.6627 32.9233 27.5748C32.8353 27.4869 32.7161 27.4375 32.5918 27.4375ZM28.1387 31.1875H12.6699C12.5456 31.1875 12.4264 31.2369 12.3385 31.3248C12.2506 31.4127 12.2012 31.5319 12.2012 31.6562C12.2012 31.7806 12.2506 31.8998 12.3385 31.9877C12.4264 32.0756 12.5456 32.125 12.6699 32.125H28.1387C28.263 32.125 28.3822 32.0756 28.4701 31.9877C28.558 31.8998 28.6074 31.7806 28.6074 31.6562C28.6074 31.5319 28.558 31.4127 28.4701 31.3248C28.3822 31.2369 28.263 31.1875 28.1387 31.1875ZM34.9355 23.6875H29.0216C29.6086 22.0312 29.7041 20.2405 29.2965 18.5312H28.3311C28.786 20.2386 28.677 22.0472 28.0202 23.6875H12.7883C12.3987 22.719 12.1993 21.6845 12.2012 20.6406C12.2037 18.8499 12.7911 17.1091 13.8741 15.683C14.9571 14.257 16.4764 13.2237 18.2006 12.7406C18.5201 12.2528 18.9479 11.8453 19.4507 11.5499C18.0765 11.6938 16.7529 12.1474 15.5793 12.8767C14.4058 13.6059 13.4128 14.5917 12.6751 15.76C11.9375 16.9283 11.4743 18.2487 11.3205 19.6217C11.1667 20.9948 11.3262 22.3849 11.787 23.6875H5.87305C5.74873 23.6875 5.6295 23.7369 5.54159 23.8248C5.45368 23.9127 5.4043 24.0319 5.4043 24.1562C5.4043 24.2806 5.45368 24.3998 5.54159 24.4877C5.6295 24.5756 5.74873 24.625 5.87305 24.625H34.9355C35.0599 24.625 35.1791 24.5756 35.267 24.4877C35.3549 24.3998 35.4043 24.2806 35.4043 24.1562C35.4043 24.0319 35.3549 23.9127 35.267 23.8248C35.1791 23.7369 35.0599 23.6875 34.9355 23.6875Z" fill="#E3A008"/>
<path d="M20.736 9.01895C20.6481 9.10686 20.5289 9.15624 20.4046 9.15625C20.2803 9.15624 20.161 9.10686 20.0731 9.01895C19.9852 8.93104 19.9358 8.81182 19.9358 8.6875V6.34375C19.9358 6.21943 19.9852 6.1002 20.0731 6.01229C20.161 5.92439 20.2803 5.875 20.4046 5.875C20.5289 5.875 20.6481 5.92439 20.736 6.01229C20.824 6.1002 20.8733 6.21943 20.8733 6.34375V8.6875C20.8733 8.81182 20.8239 8.93104 20.736 9.01895Z" fill="#E3A008"/>
<path d="M10.795 12.9056C10.6709 12.9057 10.5518 12.8565 10.4638 12.7689L8.5888 10.8939C8.50118 10.806 8.45203 10.6868 8.45215 10.5627C8.45227 10.4385 8.50164 10.3195 8.58943 10.2317C8.67722 10.1439 8.79625 10.0946 8.9204 10.0944C9.04455 10.0943 9.16368 10.1435 9.25164 10.2311L11.1266 12.1061C11.2143 12.194 11.2634 12.3132 11.2633 12.4373C11.2632 12.5615 11.2138 12.6805 11.126 12.7683C11.0382 12.8561 10.9192 12.9055 10.795 12.9056Z" fill="#E3A008"/>
<path d="M9.38867 21.3438H7.04492C6.9206 21.3438 6.80137 21.2944 6.71347 21.2065C6.62556 21.1185 6.57617 20.9993 6.57617 20.875C6.57617 20.7507 6.62556 20.6315 6.71347 20.5435C6.80137 20.4556 6.9206 20.4062 7.04492 20.4062H9.38867C9.51299 20.4062 9.63222 20.4556 9.72013 20.5435C9.80804 20.6315 9.85742 20.7507 9.85742 20.875C9.85742 20.9993 9.80804 21.1185 9.72013 21.2065C9.63222 21.2944 9.51299 21.3438 9.38867 21.3438Z" fill="#E3A008"/>
<path d="M31.3228 20.5435C31.4107 20.4556 31.53 20.4062 31.6543 20.4062H33.998C34.1224 20.4062 34.2416 20.4556 34.3295 20.5435C34.4174 20.6315 34.4668 20.7507 34.4668 20.875C34.4668 20.9993 34.4174 21.1185 34.3295 21.2065C34.2416 21.2944 34.1224 21.3438 33.998 21.3438H31.6543C31.53 21.3438 31.4107 21.2944 31.3228 21.2065C31.2349 21.1185 31.1855 20.9993 31.1855 20.875C31.1855 20.7507 31.2349 20.6315 31.3228 20.5435Z" fill="#E3A008"/>
<path opacity="0.45" d="M28.6074 20.6406C28.6092 21.6846 28.4095 22.7192 28.0192 23.6875H12.7895C12.3991 22.7192 12.1994 21.6846 12.2012 20.6406C12.2012 20.5562 12.2035 20.4695 12.2059 20.3852C12.2277 21.3572 12.4254 22.3172 12.7895 23.2187H28.0192C28.3857 22.3122 28.5835 21.3464 28.6027 20.3687C28.6051 20.4578 28.6074 20.5492 28.6074 20.6406Z" fill="#E3A008"/>
<path opacity="0.5" d="M18.5012 12.3508C18.2573 12.6355 18.0567 12.9545 17.9059 13.2976C16.2925 13.8156 14.8788 14.8197 13.8583 16.1724C12.8379 17.5252 12.2607 19.1603 12.2059 20.8539C12.2012 20.7836 12.2012 20.7133 12.2012 20.6406C12.2037 18.8498 12.7911 17.1087 13.8742 15.6825C14.9573 14.2563 16.4767 13.223 18.2012 12.7398C18.2901 12.6032 18.3888 12.4732 18.4965 12.3508H18.5012Z" fill="#FDFDEA"/>
<path d="M33.0417 12.0062C33.018 11.2723 32.7094 10.5765 32.1813 10.0664C31.6532 9.55619 30.9471 9.27178 30.2128 9.27343C29.9984 9.27325 29.7846 9.29683 29.5753 9.34374C29.3434 8.86764 28.9827 8.46601 28.5342 8.18434C28.0857 7.90267 27.5673 7.75222 27.0377 7.75002C26.5081 7.74783 25.9885 7.89398 25.5377 8.17192C25.0869 8.44986 24.7229 8.84849 24.487 9.32264C24.3124 9.2899 24.1351 9.27343 23.9573 9.27343C23.2279 9.27185 22.526 9.5525 21.9987 10.0566C21.4715 10.5607 21.1596 11.2493 21.1284 11.9781C20.4017 12.0332 19.7248 12.3684 19.2404 12.9129C18.756 13.4574 18.5019 14.1687 18.5316 14.8968C18.5614 15.625 18.8728 16.3132 19.4001 16.8163C19.9273 17.3194 20.6293 17.5981 21.3581 17.5937H32.5753C33.2835 17.598 33.9672 17.3349 34.4899 16.857C35.0125 16.3791 35.3355 15.7216 35.3944 15.0158C35.4534 14.3101 35.2438 13.6081 34.8076 13.0502C34.3715 12.4922 33.7408 12.1194 33.0417 12.0062ZM32.5753 16.6562H21.3581C21.1105 16.6584 20.865 16.6115 20.6356 16.5182C20.4062 16.4249 20.1976 16.2872 20.0218 16.1128C19.8459 15.9385 19.7064 15.7311 19.6111 15.5025C19.5159 15.274 19.4668 15.0288 19.4668 14.7812C19.4668 14.5336 19.5159 14.2885 19.6111 14.0599C19.7064 13.8314 19.8459 13.624 20.0218 13.4496C20.1976 13.2753 20.4062 13.1375 20.6356 13.0443C20.865 12.951 21.1105 12.9041 21.3581 12.9062C21.5831 12.9062 21.7894 12.9578 21.9628 12.7773C22.0132 12.7247 22.0506 12.6612 22.0722 12.5916C22.0938 12.522 22.0988 12.4484 22.087 12.3766C22.0708 12.2805 22.063 12.1833 22.0636 12.0859C22.0665 11.5863 22.2676 11.1082 22.6226 10.7567C22.9777 10.4052 23.4577 10.2089 23.9573 10.2109C24.1789 10.2102 24.3987 10.2491 24.6066 10.3258C24.6667 10.347 24.7305 10.3559 24.7941 10.3519C24.8577 10.3478 24.9199 10.331 24.9769 10.3023C25.0341 10.274 25.0848 10.2342 25.1259 10.1854C25.167 10.1366 25.1977 10.0799 25.2159 10.0187C25.3373 9.63008 25.5805 9.2908 25.9096 9.05107C26.2387 8.81133 26.6362 8.68388 27.0434 8.68756C27.4505 8.69124 27.8456 8.82586 28.1704 9.0715C28.4951 9.31714 28.7321 9.66076 28.8464 10.0516C28.8639 10.1155 28.8949 10.175 28.9374 10.2259C28.9798 10.2769 29.0327 10.3181 29.0925 10.3469C29.1523 10.3753 29.2173 10.3911 29.2835 10.3931C29.3496 10.3951 29.4155 10.3834 29.4769 10.3586C29.785 10.2224 30.1241 10.1719 30.4585 10.2123C30.7929 10.2527 31.1103 10.3825 31.3771 10.5882C31.6439 10.7938 31.8503 11.0676 31.9745 11.3807C32.0988 11.6937 32.1363 12.0346 32.0831 12.3672C32.0727 12.4367 32.0781 12.5077 32.0988 12.575C32.1194 12.6422 32.1549 12.7039 32.2026 12.7556C32.2502 12.8073 32.3089 12.8477 32.3742 12.8738C32.4395 12.8998 32.5098 12.9109 32.58 12.9062C32.8274 12.9047 33.0727 12.9521 33.3017 13.0458C33.5307 13.1395 33.7389 13.2776 33.9142 13.4521C34.0896 13.6266 34.2287 13.8341 34.3236 14.0626C34.4184 14.2912 34.467 14.5362 34.4667 14.7836C34.4664 15.031 34.4172 15.2759 34.3218 15.5042C34.2264 15.7325 34.0867 15.9396 33.9109 16.1137C33.7351 16.2878 33.5266 16.4253 33.2973 16.5185C33.0681 16.6116 32.8227 16.6584 32.5753 16.6562Z" fill="#1C64F2"/>
<path d="M34.4667 14.7813C34.4639 15.2805 34.2632 15.7583 33.9086 16.1098C33.5541 16.4613 33.0746 16.6578 32.5753 16.6563H21.3581C21.1105 16.6584 20.8649 16.6115 20.6356 16.5182C20.4062 16.4249 20.1976 16.2872 20.0217 16.1129C19.8459 15.9385 19.7063 15.7311 19.6111 15.5026C19.5158 15.274 19.4668 15.0289 19.4668 14.7813C19.4668 14.5336 19.5158 14.2885 19.6111 14.0599C19.7063 13.8314 19.8459 13.624 20.0217 13.4496C20.1976 13.2753 20.4062 13.1376 20.6356 13.0443C20.8649 12.951 21.1105 12.9041 21.3581 12.9063C21.5831 12.9063 21.7894 12.9578 21.9628 12.7773C22.0132 12.7248 22.0506 12.6612 22.0722 12.5916C22.0937 12.522 22.0988 12.4484 22.087 12.3766C22.0708 12.2806 22.0629 12.1833 22.0636 12.0859C22.0665 11.5863 22.2676 11.1083 22.6226 10.7567C22.9777 10.4052 23.4577 10.2089 23.9573 10.2109C24.1788 10.2102 24.3987 10.2491 24.6065 10.3258C24.6667 10.347 24.7305 10.3559 24.7941 10.3519C24.8577 10.3478 24.9199 10.331 24.9769 10.3023C25.034 10.274 25.0848 10.2342 25.1259 10.1854C25.167 10.1366 25.1977 10.0799 25.2159 10.0188C25.3373 9.6301 25.5805 9.29081 25.9096 9.05108C26.2387 8.81135 26.6362 8.6839 27.0433 8.68758C27.4505 8.69126 27.8456 8.82587 28.1703 9.07151C28.495 9.31716 28.7321 9.66078 28.8464 10.0516C28.8639 10.1155 28.8949 10.175 28.9374 10.226C28.9798 10.2769 29.0327 10.3181 29.0925 10.3469C29.1522 10.3754 29.2173 10.3911 29.2834 10.3931C29.3496 10.3951 29.4155 10.3834 29.4769 10.3586C29.785 10.2224 30.1241 10.1719 30.4585 10.2123C30.7929 10.2527 31.1102 10.3826 31.377 10.5882C31.6438 10.7938 31.8502 11.0676 31.9745 11.3807C32.0988 11.6938 32.1363 12.0346 32.0831 12.3672C32.0727 12.4367 32.0781 12.5077 32.0987 12.575C32.1194 12.6422 32.1549 12.7039 32.2025 12.7556C32.2502 12.8073 32.3088 12.8477 32.3742 12.8738C32.4395 12.8998 32.5098 12.9109 32.58 12.9063C33.0784 12.9061 33.5566 13.1032 33.9102 13.4545C34.2637 13.8058 34.4638 14.2828 34.4667 14.7813Z" fill="#C3DDFD"/>
<path opacity="0.5" d="M21.9629 13.2461C21.7894 13.4266 21.5832 13.375 21.3582 13.375C20.8994 13.374 20.456 13.5399 20.1105 13.8417C19.7651 14.1436 19.5413 14.5609 19.4809 15.0156C19.4714 14.9379 19.4667 14.8596 19.4668 14.7813C19.4696 14.282 19.6703 13.8042 20.0249 13.4527C20.3794 13.1012 20.8589 12.9047 21.3582 12.9063C21.5832 12.9063 21.7895 12.9578 21.9629 12.7773C22.0095 12.7277 22.0447 12.6685 22.066 12.6039C22.0657 12.6848 22.0728 12.7656 22.0871 12.8453C22.0989 12.9172 22.0938 12.9908 22.0723 13.0604C22.0507 13.1299 22.0133 13.1935 21.9629 13.2461ZM34.4668 14.7813C34.4669 14.8596 34.4622 14.9379 34.4527 15.0156C34.3922 14.5618 34.169 14.1453 33.8246 13.8435C33.4802 13.5418 33.038 13.3753 32.5801 13.375C32.5099 13.3797 32.4396 13.3686 32.3743 13.3425C32.3089 13.3165 32.2503 13.2761 32.2026 13.2244C32.155 13.1727 32.1195 13.1109 32.0988 13.0437C32.0782 12.9765 32.0728 12.9055 32.0832 12.8359C32.096 12.7529 32.1031 12.6691 32.1043 12.5852C32.1254 12.653 32.1624 12.7149 32.2121 12.7656C32.2596 12.8144 32.317 12.8522 32.3806 12.8765C32.4441 12.9008 32.5122 12.9109 32.5801 12.9063C33.0785 12.9061 33.5567 13.1032 33.9103 13.4545C34.2638 13.8058 34.4639 14.2828 34.4668 14.7813ZM32.1066 12.0859C32.1058 12.1604 32.1004 12.2348 32.0902 12.3086C32.0491 12.0215 31.9426 11.7476 31.7792 11.5081C31.6157 11.2685 31.3995 11.0696 31.1472 10.9265C30.8948 10.7835 30.6131 10.7002 30.3236 10.683C30.0341 10.6658 29.7444 10.7152 29.477 10.8273C29.4156 10.8521 29.3497 10.8639 29.2835 10.8619C29.2174 10.8599 29.1523 10.8441 29.0926 10.8156C29.0328 10.7869 28.9799 10.7456 28.9375 10.6947C28.895 10.6438 28.864 10.5843 28.8465 10.5203C28.7322 10.1295 28.4951 9.78591 28.1704 9.54026C27.8457 9.29462 27.4506 9.16001 27.0434 9.15633C26.6363 9.15265 26.2388 9.2801 25.9097 9.51983C25.5806 9.75956 25.3374 10.0988 25.216 10.4875C25.1978 10.5486 25.1671 10.6054 25.126 10.6542C25.0849 10.703 25.0341 10.7428 24.977 10.7711C24.92 10.7997 24.8578 10.8166 24.7942 10.8206C24.7306 10.8246 24.6668 10.8158 24.6066 10.7945C24.3988 10.7179 24.1789 10.679 23.9574 10.6797C23.4992 10.6781 23.0561 10.8431 22.7107 11.1441C22.3653 11.4452 22.1411 11.8615 22.0801 12.3156C22.0686 12.2396 22.0631 12.1628 22.0637 12.0859C22.0666 11.5863 22.2677 11.1083 22.6227 10.7567C22.9778 10.4052 23.4578 10.2089 23.9574 10.2109C24.1789 10.2102 24.3988 10.2491 24.6066 10.3258C24.6668 10.347 24.7306 10.3559 24.7942 10.3519C24.8578 10.3478 24.92 10.331 24.977 10.3023C25.0341 10.274 25.0849 10.2342 25.126 10.1854C25.1671 10.1366 25.1978 10.0799 25.216 10.0188C25.3374 9.6301 25.5806 9.29081 25.9097 9.05108C26.2388 8.81135 26.6363 8.6839 27.0434 8.68758C27.4506 8.69126 27.8457 8.82587 28.1704 9.07151C28.4951 9.31716 28.7322 9.66078 28.8465 10.0516C28.864 10.1155 28.895 10.175 28.9375 10.226C28.9799 10.2769 29.0328 10.3181 29.0926 10.3469C29.1523 10.3754 29.2174 10.3911 29.2835 10.3931C29.3497 10.3951 29.4156 10.3834 29.477 10.3586C29.7635 10.2384 30.0752 10.1904 30.3847 10.2189C30.6942 10.2475 30.9919 10.3516 31.2516 10.5223C31.5113 10.6929 31.7252 10.9247 31.8743 11.1974C32.0234 11.4701 32.1032 11.7752 32.1066 12.0859Z" fill="#EBF5FF"/>
<path opacity="0.5" d="M34.4668 14.7812C34.464 15.2805 34.2633 15.7583 33.9087 16.1098C33.5542 16.4613 33.0747 16.6578 32.5754 16.6562H21.3582C20.8589 16.6578 20.3794 16.4613 20.0249 16.1098C19.6703 15.7583 19.4696 15.2805 19.4668 14.7812C19.4667 14.7029 19.4714 14.6246 19.4809 14.5469C19.5413 15.0016 19.7651 15.4189 20.1105 15.7208C20.456 16.0226 20.8994 16.1885 21.3582 16.1875H32.5754C33.0341 16.1885 33.4776 16.0226 33.8231 15.7208C34.1685 15.4189 34.3923 15.0016 34.4527 14.5469C34.4622 14.6246 34.4669 14.7029 34.4668 14.7812Z" fill="#A4CAFE"/>
<rect x="5.41064" y="23.6875" width="29.9937" height="1" rx="0.5" fill="#E3A008"/>
<rect x="7.68945" y="27.3867" width="25.405" height="1" rx="0.5" fill="#E3A008"/>
<rect x="12.188" y="31.125" width="16.4358" height="1" rx="0.5" fill="#E3A008"/>
</g>
<defs>
<clipPath id="clip0_7184_35136">
<rect width="30" height="30" fill="white" transform="translate(5.4043 4)"/>
</clipPath>
</defs>
</svg>
