<svg width="17" height="16" viewBox="0 0 17 16" fill="none" xmlns="http://www.w3.org/2000/svg">
<path d="M15.6256 9.38814C15.2218 10.7062 14.4126 11.8634 13.3131 12.695C12.3477 13.4216 11.199 13.8647 9.99585 13.9746C8.79267 14.0846 7.58266 13.857 6.50163 13.3175C5.4206 12.7779 4.51134 11.9478 3.87591 10.9202C3.24049 9.89257 2.90403 8.70821 2.90433 7.50001C2.89998 6.0898 3.35843 4.7171 4.20933 3.59251C5.04091 2.49301 6.19809 1.68379 7.5162 1.28001C7.60308 1.25326 7.6956 1.2507 7.78382 1.27261C7.87204 1.29451 7.95262 1.34004 8.0169 1.40432C8.08117 1.4686 8.12671 1.54918 8.14861 1.6374C8.17051 1.72562 8.16795 1.81814 8.1412 1.90501C7.85298 2.85841 7.82881 3.87214 8.07128 4.83818C8.31375 5.80422 8.81376 6.68639 9.51805 7.39067C10.2223 8.09496 11.1045 8.59497 12.0705 8.83744C13.0366 9.0799 14.0503 9.05574 15.0037 8.76751C15.0906 8.74076 15.1831 8.7382 15.2713 8.76011C15.3595 8.78201 15.4401 8.82754 15.5044 8.89182C15.5687 8.9561 15.6142 9.03668 15.6361 9.1249C15.658 9.21312 15.6555 9.30564 15.6287 9.39251L15.6256 9.38814Z" fill="#B0B4C1"/>
</svg>
