<svg width="41" height="40" viewBox="0 0 41 40" fill="none" xmlns="http://www.w3.org/2000/svg">
<rect x="0.466797" y="0.3125" width="39.375" height="39.375" rx="19.6875" fill="#EDEBFE"/>
<rect x="0.466797" y="0.3125" width="39.375" height="39.375" rx="19.6875" stroke="#7E3AF2" stroke-width="0.625"/>
<g clip-path="url(#clip0_7184_54622)">
<path d="M10.4129 23.6108C14.1648 26.4741 19.5253 25.754 22.3877 22.004C25.2505 18.2532 24.5302 12.8924 20.7794 10.0296C20.1064 9.51589 19.3608 9.10523 18.5669 8.8111C21.1065 8.63766 23.7158 9.33971 25.8976 11.0047C30.671 14.6477 31.5873 21.4712 27.944 26.2444C24.3013 31.0172 17.478 31.9346 12.704 28.29C10.5214 26.6253 9.15693 24.2936 8.65327 21.7989C9.14699 22.4865 9.73998 23.0972 10.4129 23.6108Z" fill="#CABFFD" stroke="#7E3AF2" stroke-width="0.36" stroke-miterlimit="10" stroke-linecap="round" stroke-linejoin="round"/>
<path d="M25.7898 25.3575C29.4327 20.5844 28.5166 13.7611 23.7434 10.1178C23.2993 9.77964 22.8297 9.47627 22.3388 9.21041C23.6265 9.58183 24.8337 10.1901 25.8984 11.0039C30.6718 14.6469 31.5881 21.4704 27.9448 26.2436C24.646 30.5656 18.7393 31.7262 14.1077 29.2C18.2961 30.4186 22.9852 29.0322 25.7898 25.3575ZM11.3145 24.2092C10.5209 24.005 9.76109 23.6869 9.05874 23.2649C8.89064 22.7856 8.75547 22.2955 8.6542 21.7978C9.14755 22.4857 9.74043 23.0964 10.4134 23.6099C10.7008 23.8285 11.0018 24.0286 11.3145 24.2092Z" fill="#BBA6FF"/>
<path d="M18.1016 28.1486C18.1016 28.4482 18.2206 28.7356 18.4325 28.9475C18.6444 29.1594 18.9318 29.2784 19.2314 29.2784C19.531 29.2784 19.8184 29.1594 20.0303 28.9475C20.2421 28.7356 20.3612 28.4482 20.3612 28.1486C20.3612 27.849 20.2421 27.5616 20.0303 27.3497C19.8184 27.1378 19.531 27.0188 19.2314 27.0188C18.9318 27.0188 18.6444 27.1378 18.4325 27.3497C18.2206 27.5616 18.1016 27.849 18.1016 28.1486ZM22.2442 22.6879C22.2442 23.0375 22.383 23.3728 22.6302 23.62C22.8774 23.8672 23.2127 24.006 23.5623 24.006C23.9119 24.006 24.2471 23.8672 24.4943 23.62C24.7415 23.3728 24.8804 23.0375 24.8804 22.6879C24.8804 22.3384 24.7415 22.0031 24.4943 21.7559C24.2471 21.5087 23.9119 21.3698 23.5623 21.3698C23.2127 21.3698 22.8774 21.5087 22.6302 21.7559C22.383 22.0031 22.2442 22.3384 22.2442 22.6879Z" fill="#D2C9FF"/>
<path d="M28.1136 19.2663C27.9724 19.125 27.893 18.9334 27.893 18.7337C27.893 18.5339 27.9724 18.3423 28.1136 18.201C28.2549 18.0598 28.4465 17.9805 28.6462 17.9805C28.846 17.9805 29.0375 18.0598 29.1788 18.201C29.32 18.3423 29.3994 18.5339 29.3994 18.7337C29.3994 18.9334 29.32 19.125 29.1788 19.2663C29.0375 19.4075 28.846 19.4869 28.6462 19.4869C28.4465 19.4869 28.2549 19.4075 28.1136 19.2663Z" fill="#C5B4FF"/>
<path d="M10.4129 23.6108C14.1648 26.4741 19.5253 25.754 22.3877 22.004C25.2505 18.2532 24.5302 12.8924 20.7794 10.0296C20.1064 9.51589 19.3608 9.10523 18.5669 8.8111C21.1065 8.63766 23.7158 9.33971 25.8976 11.0047C30.671 14.6477 31.5873 21.4712 27.944 26.2444C24.3013 31.0172 17.478 31.9346 12.704 28.29C10.5214 26.6253 9.15693 24.2936 8.65327 21.7989C9.14699 22.4865 9.73998 23.0972 10.4129 23.6108Z" stroke="#9061F9" stroke-width="0.36" stroke-miterlimit="10" stroke-linecap="round" stroke-linejoin="round"/>
<path d="M26.7634 14.9664C26.7634 15.0663 26.8031 15.1621 26.8737 15.2327C26.9443 15.3033 27.0401 15.343 27.14 15.343C27.2399 15.343 27.3357 15.3033 27.4063 15.2327C27.4769 15.1621 27.5166 15.0663 27.5166 14.9664C27.5166 14.8666 27.4769 14.7708 27.4063 14.7002C27.3357 14.6295 27.2399 14.5898 27.14 14.5898C27.0401 14.5898 26.9443 14.6295 26.8737 14.7002C26.8031 14.7708 26.7634 14.8666 26.7634 14.9664Z" fill="#AC94FA"/>
<path d="M14.6325 27.3283C14.5619 27.2577 14.5222 27.1619 14.5222 27.0621C14.5222 26.9622 14.5619 26.8664 14.6325 26.7958C14.7031 26.7252 14.7989 26.6855 14.8988 26.6855C14.9987 26.6855 15.0945 26.7252 15.1651 26.7958C15.2357 26.8664 15.2754 26.9622 15.2754 27.0621C15.2754 27.1619 15.2357 27.2577 15.1651 27.3283C15.0945 27.3989 14.9987 27.4387 14.8988 27.4387C14.7989 27.4387 14.7031 27.3989 14.6325 27.3283Z" fill="#AC94FA"/>
<path d="M26.6073 26.0456C26.466 25.9043 26.3867 25.7127 26.3867 25.513C26.3867 25.3132 26.466 25.1216 26.6073 24.9803C26.7485 24.8391 26.9401 24.7598 27.1399 24.7598C27.3396 24.7598 27.5312 24.8391 27.6724 24.9803C27.8137 25.1216 27.8931 25.3132 27.8931 25.513C27.8931 25.7127 27.8137 25.9043 27.6724 26.0456C27.5312 26.1868 27.3396 26.2662 27.1399 26.2662C26.9401 26.2662 26.7485 26.1868 26.6073 26.0456Z" fill="#CDBDFF"/>
</g>
<defs>
<clipPath id="clip0_7184_54622">
<rect width="24" height="24" fill="white" transform="matrix(-1 0 0 1 32.1543 8)"/>
</clipPath>
</defs>
</svg>
