<svg width="65" height="64" viewBox="0 0 65 64" fill="none" xmlns="http://www.w3.org/2000/svg">
<path d="M59.748 31.7903C58.778 30.3103 58.768 28.3903 59.728 26.9003L59.758 26.8603C61.918 23.5103 60.438 19.0203 56.708 17.6103H56.678C55.008 16.9703 53.878 15.4103 53.788 13.6303V13.5803C53.588 9.58029 49.738 6.80029 45.878 7.86029C44.168 8.33029 42.338 7.74029 41.218 6.37029L41.168 6.31029C38.658 3.22029 33.938 3.23029 31.448 6.33029L31.408 6.39029C30.298 7.77029 28.478 8.36029 26.768 7.90029L26.708 7.88029C22.848 6.84029 19.018 9.64029 18.838 13.6303V13.6603C18.758 15.4403 17.628 17.0003 15.958 17.6403H15.928C12.198 19.0803 10.738 23.5903 12.928 26.9303C13.898 28.4103 13.908 30.3303 12.948 31.8203L12.918 31.8603C10.758 35.2103 12.238 39.7003 15.968 41.1103H15.998C17.668 41.7503 18.798 43.3103 18.888 45.0903V45.1403C19.088 49.1403 22.938 51.9203 26.798 50.8603C28.508 50.3903 30.338 50.9803 31.458 52.3503L31.508 52.4103C34.018 55.5003 38.738 55.4903 41.228 52.3903L41.268 52.3303C42.378 50.9503 44.198 50.3603 45.908 50.8203L45.968 50.8403C49.828 51.8803 53.658 49.0803 53.838 45.0903V45.0603C53.918 43.2803 55.048 41.7203 56.718 41.0803H56.748C60.478 39.6403 61.938 35.1303 59.748 31.7903Z" fill="#B0B4C1"/>
<path d="M36.3279 47.0499C46.0979 47.0499 54.0179 39.1298 54.0179 29.3599C54.0179 19.59 46.0979 11.6699 36.3279 11.6699C26.558 11.6699 18.6379 19.59 18.6379 29.3599C18.6379 39.1298 26.558 47.0499 36.3279 47.0499Z" fill="#DDE1E8"/>
<path d="M41.7479 28.5096C44.4265 28.5096 46.5979 26.3382 46.5979 23.6596C46.5979 20.981 44.4265 18.8096 41.7479 18.8096C39.0694 18.8096 36.8979 20.981 36.8979 23.6596C36.8979 26.3382 39.0694 28.5096 41.7479 28.5096Z" fill="#B0B4C1"/>
<path d="M35.6381 17.1904H34.2481C33.6981 17.1904 33.2481 16.7404 33.2481 16.1904C33.2481 15.6404 33.6981 15.1904 34.2481 15.1904H35.6381C36.1881 15.1904 36.6381 15.6404 36.6381 16.1904C36.6381 16.7404 36.1881 17.1904 35.6381 17.1904ZM28.7581 21.0504H27.3681C26.8181 21.0504 26.3681 20.6004 26.3681 20.0504C26.3681 19.5004 26.8181 19.0504 27.3681 19.0504H28.7581C29.3081 19.0504 29.7581 19.5004 29.7581 20.0504C29.7581 20.6004 29.3081 21.0504 28.7581 21.0504ZM32.7481 26.8104H31.3581C30.8081 26.8104 30.3581 26.3604 30.3581 25.8104C30.3581 25.2604 30.8081 24.8104 31.3581 24.8104H32.7481C33.2981 24.8104 33.7481 25.2604 33.7481 25.8104C33.7481 26.3604 33.2981 26.8104 32.7481 26.8104ZM24.4281 29.5204H23.0381C22.4881 29.5204 22.0381 29.0704 22.0381 28.5204C22.0381 27.9704 22.4881 27.5204 23.0381 27.5204H24.4281C24.9781 27.5204 25.4281 27.9704 25.4281 28.5204C25.4281 29.0704 24.9781 29.5204 24.4281 29.5204ZM41.2381 42.8604H39.8481C39.2981 42.8604 38.8481 42.4104 38.8481 41.8604C38.8481 41.3104 39.2981 40.8604 39.8481 40.8604H41.2381C41.7881 40.8604 42.2381 41.3104 42.2381 41.8604C42.2381 42.4104 41.7881 42.8604 41.2381 42.8604ZM43.5281 35.6404H42.1381C41.5881 35.6404 41.1381 35.1904 41.1381 34.6404C41.1381 34.0904 41.5881 33.6404 42.1381 33.6404H43.5281C44.0781 33.6404 44.5281 34.0904 44.5281 34.6404C44.5281 35.1904 44.0781 35.6404 43.5281 35.6404ZM50.7081 30.3604H49.3181C48.7681 30.3604 48.3181 29.9104 48.3181 29.3604C48.3181 28.8104 48.7681 28.3604 49.3181 28.3604H50.7081C51.2581 28.3604 51.7081 28.8104 51.7081 29.3604C51.7081 29.9104 51.2581 30.3604 50.7081 30.3604Z" fill="#B0B4C1"/>
<path d="M35.1381 31.3099C33.0181 29.1899 26.7481 32.0399 24.6281 34.1499C23.0881 35.6899 22.6881 37.9199 23.3781 39.8299H23.2881C23.0281 40.5099 22.6581 41.1299 22.0981 41.5999C20.8081 42.6799 19.3681 43.3399 18.0881 43.9199C16.4881 44.6399 15.1081 45.2699 14.5681 46.4799C14.3581 46.9499 13.9581 48.1799 13.5581 49.3599C12.8781 51.3999 12.1881 53.4999 11.7281 54.2599C11.1081 55.2899 9.67807 56.0199 8.16807 56.7899C6.84807 57.4599 4.62807 58.5899 4.73807 59.5099C4.73807 59.5399 4.74807 59.5999 4.85807 59.7499C7.79807 60.6799 13.2381 58.9299 14.7081 57.3699C15.2781 56.7599 16.1481 54.4799 16.8381 52.6399C17.5381 50.7899 18.1381 49.1999 18.6781 48.4499C19.4281 47.3999 20.9681 46.7799 22.5881 46.1299C23.7581 45.6599 24.9481 45.1899 25.8781 44.5399C26.2681 44.2699 26.5381 43.8199 26.7381 43.2799L26.7081 43.0999C28.5981 43.7399 30.7781 43.3299 32.2781 41.8199C34.3981 39.6999 37.2381 33.4299 35.1181 31.3199L35.1381 31.3099Z" fill="#9296A3"/>
</svg>
