<svg width="20" height="21" viewBox="0 0 20 21" fill="none" xmlns="http://www.w3.org/2000/svg">
<path d="M17.3281 14.7063C16.8945 13.9594 16.25 11.8461 16.25 9.08594C16.25 7.42833 15.5915 5.83862 14.4194 4.66652C13.2473 3.49442 11.6576 2.83594 10 2.83594C8.34241 2.83594 6.7527 3.49442 5.58059 4.66652C4.40849 5.83862 3.75001 7.42833 3.75001 9.08594C3.75001 11.8469 3.1047 13.9594 2.6711 14.7063C2.56038 14.8961 2.50168 15.1118 2.50092 15.3316C2.50017 15.5514 2.55739 15.7676 2.66681 15.9582C2.77623 16.1488 2.93398 16.3072 3.12415 16.4175C3.31433 16.5277 3.53021 16.5858 3.75001 16.5859H6.93829C7.08249 17.2915 7.46597 17.9257 8.02386 18.3811C8.58176 18.8365 9.27983 19.0852 10 19.0852C10.7202 19.0852 11.4183 18.8365 11.9762 18.3811C12.5341 17.9257 12.9175 17.2915 13.0617 16.5859H16.25C16.4697 16.5856 16.6855 16.5274 16.8756 16.4172C17.0657 16.3069 17.2233 16.1485 17.3326 15.9579C17.442 15.7672 17.4991 15.5512 17.4983 15.3315C17.4975 15.1117 17.4388 14.8961 17.3281 14.7063ZM10 17.8359C9.61237 17.8358 9.23429 17.7156 8.91782 17.4917C8.60135 17.2678 8.36204 16.9514 8.23282 16.5859H11.7672C11.638 16.9514 11.3987 17.2678 11.0822 17.4917C10.7657 17.7156 10.3877 17.8358 10 17.8359ZM3.75001 15.3359C4.35157 14.3016 5.00001 11.9047 5.00001 9.08594C5.00001 7.75985 5.52679 6.48809 6.46448 5.5504C7.40216 4.61272 8.67393 4.08594 10 4.08594C11.3261 4.08594 12.5979 4.61272 13.5355 5.5504C14.4732 6.48809 15 7.75985 15 9.08594C15 11.9023 15.6469 14.2992 16.25 15.3359H3.75001Z" fill="#8A8D93"/>
</svg>
