<svg width="21" height="17" viewBox="0 0 21 17" fill="none" xmlns="http://www.w3.org/2000/svg">
<path d="M5.04409 0.955975C4.96176 0.86317 4.86183 0.787628 4.75009 0.733729C4.63835 0.679829 4.51703 0.648643 4.39315 0.641979C4.26927 0.635314 4.14529 0.653304 4.02842 0.694904C3.91154 0.736504 3.80408 0.800889 3.71227 0.884325C3.62046 0.967762 3.54612 1.06859 3.49356 1.18097C3.44101 1.29335 3.41128 1.41504 3.4061 1.53899C3.40092 1.66294 3.4204 1.78669 3.4634 1.90306C3.50639 2.01943 3.57206 2.12611 3.65659 2.21691L4.90659 3.59582C2.21519 5.38801 1.04722 7.95988 0.990968 8.08097C0.938041 8.20097 0.910706 8.33068 0.910706 8.46183C0.910706 8.59299 0.938041 8.7227 0.990968 8.84269C1.01987 8.90676 1.70425 10.4255 3.21675 11.9372C5.23863 13.9568 7.78784 15.0239 10.6003 15.0239C11.9672 15.0315 13.3219 14.7659 14.5847 14.2427L16.1543 15.9693C16.3223 16.1498 16.5548 16.2569 16.8013 16.2672C17.0478 16.2775 17.2884 16.1902 17.471 16.0243C17.6535 15.8584 17.7633 15.6272 17.7766 15.3808C17.7898 15.1345 17.7055 14.8929 17.5418 14.7083L5.04409 0.955975ZM10.6003 13.1489C8.28863 13.1489 6.26675 12.3107 4.59175 10.6583C3.93289 10.0059 3.36596 9.26685 2.90659 8.46144C3.31831 7.7341 4.37456 6.12551 6.18784 5.00129L13.2261 12.7443C12.3773 13.0153 11.4914 13.1518 10.6003 13.1489ZM20.2097 8.84269C20.1816 8.90598 19.5066 10.4052 18.0222 11.9021C17.9372 11.9964 17.8339 12.0725 17.7186 12.1257C17.6033 12.179 17.4784 12.2082 17.3515 12.2117C17.2245 12.2152 17.0982 12.1929 16.9802 12.1461C16.8621 12.0993 16.7548 12.029 16.6647 11.9394C16.5747 11.8499 16.5037 11.743 16.4562 11.6252C16.4087 11.5075 16.3857 11.3813 16.3884 11.2543C16.3912 11.1273 16.4197 11.0023 16.4722 10.8867C16.5248 10.771 16.6002 10.6673 16.6941 10.5818C17.3176 9.94779 17.8555 9.23497 18.2941 8.46144C17.835 7.65585 17.268 6.91673 16.6089 6.26457C14.9332 4.61222 12.9121 3.77394 10.6003 3.77394C10.3386 3.77394 10.0769 3.78488 9.81909 3.80676C9.69485 3.82007 9.56921 3.80841 9.44954 3.77246C9.32987 3.73652 9.2186 3.67701 9.12225 3.59745C9.02591 3.51788 8.94644 3.41986 8.88853 3.30915C8.83061 3.19843 8.79541 3.07725 8.78499 2.95274C8.77458 2.82822 8.78916 2.70288 8.82788 2.58408C8.8666 2.46528 8.92867 2.35542 9.01046 2.26095C9.09224 2.16649 9.19209 2.08933 9.30412 2.034C9.41616 1.97867 9.53812 1.9463 9.66284 1.93879C9.96988 1.91222 10.2878 1.89894 10.6003 1.89894C13.4128 1.89894 15.9621 2.96691 17.9824 4.98644C19.4941 6.49816 20.1785 8.01769 20.2074 8.08097C20.2607 8.20081 20.2884 8.33044 20.2888 8.46159C20.2892 8.59274 20.2623 8.72253 20.2097 8.84269Z" fill="#B0B4C1"/>
</svg>
