<svg width="48" height="49" viewBox="0 0 48 49" fill="none" xmlns="http://www.w3.org/2000/svg">
<rect y="0.960938" width="48" height="48" rx="24" fill="#FFF3EE"/>
<path d="M32.75 19.7109H29.25V17.0859C29.25 15.6936 28.6969 14.3582 27.7123 13.3736C26.7277 12.3891 25.3924 11.8359 24 11.8359C22.6076 11.8359 21.2723 12.3891 20.2877 13.3736C19.3031 14.3582 18.75 15.6936 18.75 17.0859V19.7109H15.25C14.7859 19.7109 14.3408 19.8953 14.0126 20.2235C13.6844 20.5517 13.5 20.9968 13.5 21.4609V33.7109C13.5 34.1751 13.6844 34.6202 14.0126 34.9484C14.3408 35.2766 14.7859 35.4609 15.25 35.4609H32.75C33.2141 35.4609 33.6592 35.2766 33.9874 34.9484C34.3156 34.6202 34.5 34.1751 34.5 33.7109V21.4609C34.5 20.9968 34.3156 20.5517 33.9874 20.2235C33.6592 19.8953 33.2141 19.7109 32.75 19.7109ZM20.5 17.0859C20.5 16.1577 20.8687 15.2674 21.5251 14.6111C22.1815 13.9547 23.0717 13.5859 24 13.5859C24.9283 13.5859 25.8185 13.9547 26.4749 14.6111C27.1313 15.2674 27.5 16.1577 27.5 17.0859V19.7109H20.5V17.0859ZM32.75 33.7109H15.25V21.4609H32.75V33.7109ZM25.3125 27.5859C25.3125 27.8455 25.2355 28.0993 25.0913 28.3151C24.9471 28.531 24.7421 28.6992 24.5023 28.7985C24.2624 28.8979 23.9985 28.9239 23.7439 28.8732C23.4893 28.8226 23.2555 28.6976 23.0719 28.514C22.8884 28.3305 22.7634 28.0966 22.7127 27.842C22.6621 27.5874 22.6881 27.3235 22.7874 27.0837C22.8867 26.8438 23.055 26.6389 23.2708 26.4946C23.4867 26.3504 23.7404 26.2734 24 26.2734C24.3481 26.2734 24.6819 26.4117 24.9281 26.6579C25.1742 26.904 25.3125 27.2378 25.3125 27.5859Z" fill="#E29578"/>
</svg>
