<svg width="16" height="10" viewBox="0 0 16 10" fill="none" xmlns="http://www.w3.org/2000/svg">
<path d="M0.712891 0.931641C3.73291 -0.542859 5.91511 0.153032 8.03809 0.833008C9.04968 1.15699 10.0427 1.47551 11.1191 1.54688C12.1977 1.61832 13.358 1.44111 14.709 0.780273C14.7756 0.747708 14.8498 0.733541 14.9238 0.737305C14.9979 0.741126 15.0699 0.763532 15.1328 0.802734C15.1957 0.842546 15.2476 0.897555 15.2832 0.962891C15.3187 1.02818 15.3366 1.10146 15.3359 1.17578V8.67188C15.3358 8.75374 15.3129 8.83391 15.2695 8.90332C15.2261 8.97271 15.1643 9.02853 15.0908 9.06445C13.7754 9.70666 12.6198 9.93748 11.5615 9.9375C10.1877 9.9375 8.97118 9.54879 7.76758 9.16406C6.75453 8.84011 5.7613 8.52159 4.68457 8.4502C3.60562 8.37869 2.44482 8.555 1.09375 9.21582C1.02714 9.24834 0.952929 9.26357 0.878906 9.25977C0.804788 9.2559 0.73287 9.23267 0.669922 9.19336C0.607008 9.15406 0.554539 9.10002 0.518555 9.03516C0.482567 8.97023 0.463857 8.8965 0.463867 8.82227V1.32715C0.463796 1.24462 0.487317 1.16362 0.53125 1.09375C0.575109 1.02405 0.637701 0.968299 0.711914 0.932617L0.712891 0.931641ZM7.77051 1.66797C5.81276 1.04206 3.93864 0.441879 1.37793 1.58789L1.3418 1.60449V8.15039L1.42773 8.11523C2.32137 7.75157 3.27642 7.56236 4.24121 7.55762C5.61503 7.55762 6.83156 7.94633 8.03516 8.33105C9.99275 8.95691 11.8663 9.55699 14.4268 8.41113L14.4639 8.39453V1.85059L14.3789 1.88477C11.7224 2.93286 9.72682 2.29341 7.77051 1.66797ZM12.9014 3.5625C13.0174 3.5625 13.1289 3.60838 13.2109 3.69043C13.2929 3.77246 13.3389 3.88406 13.3389 4V7C13.3388 7.11575 13.2927 7.22667 13.2109 7.30859C13.1289 7.39064 13.0174 7.4375 12.9014 7.4375C12.7853 7.4375 12.6738 7.39064 12.5918 7.30859C12.51 7.22667 12.464 7.11575 12.4639 7V4C12.4639 3.88406 12.5099 3.77246 12.5918 3.69043C12.6738 3.60838 12.7853 3.5625 12.9014 3.5625ZM7.90137 3.0625C8.41522 3.0625 8.90813 3.26653 9.27148 3.62988C9.63471 3.99321 9.83887 4.48624 9.83887 5C9.83879 5.38304 9.72549 5.75768 9.5127 6.07617C9.2998 6.39479 8.99661 6.64339 8.64258 6.79004C8.28864 6.93656 7.89915 6.97415 7.52344 6.89941C7.14761 6.82465 6.80221 6.6401 6.53125 6.36914C6.26052 6.0983 6.07575 5.75351 6.00098 5.37793C5.92622 5.00209 5.96468 4.61184 6.11133 4.25781C6.25799 3.9039 6.50666 3.60151 6.8252 3.38867C7.14378 3.17584 7.51822 3.0625 7.90137 3.0625ZM2.90137 2.5625C3.0174 2.5625 3.12889 2.60838 3.21094 2.69043C3.29286 2.77246 3.33887 2.88406 3.33887 3V6C3.33876 6.11575 3.29271 6.22667 3.21094 6.30859C3.12889 6.39064 3.0174 6.4375 2.90137 6.4375C2.78534 6.4375 2.67384 6.39064 2.5918 6.30859C2.51002 6.22667 2.46398 6.11575 2.46387 6V3C2.46387 2.88406 2.50988 2.77246 2.5918 2.69043C2.67384 2.60838 2.78534 2.5625 2.90137 2.5625ZM7.69434 3.95703C7.48836 3.998 7.29894 4.09961 7.15039 4.24805C7.00187 4.39656 6.90041 4.58601 6.85938 4.79199C6.81838 4.9981 6.8395 5.2121 6.91992 5.40625C7.00035 5.60035 7.13683 5.76609 7.31152 5.88281C7.4862 5.99947 7.69131 6.0625 7.90137 6.0625C8.18306 6.0625 8.45311 5.95011 8.65234 5.75098C8.8515 5.55182 8.96376 5.28164 8.96387 5C8.96387 4.78989 8.90187 4.58389 8.78516 4.40918C8.66841 4.23445 8.50176 4.098 8.30762 4.01758C8.11369 3.93735 7.90018 3.91615 7.69434 3.95703Z" fill="#8A8D93" stroke="#8A8D93" stroke-width="0.125"/>
</svg>
