<svg width="17" height="16" viewBox="0 0 17 16" fill="none" xmlns="http://www.w3.org/2000/svg">
<path d="M14.5484 4.40848L11.7553 1.61598C11.5209 1.38164 11.203 1.25 10.8716 1.25C10.5401 1.25 10.2222 1.38164 9.98782 1.61598L2.28032 9.32286C2.16385 9.43861 2.0715 9.57633 2.00863 9.72803C1.94577 9.87973 1.91362 10.0424 1.91407 10.2066V12.9997C1.91407 13.3313 2.04576 13.6492 2.28018 13.8836C2.5146 14.118 2.83255 14.2497 3.16407 14.2497H13.6641C13.863 14.2497 14.0537 14.1707 14.1944 14.0301C14.3351 13.8894 14.4141 13.6986 14.4141 13.4997C14.4141 13.3008 14.3351 13.1101 14.1944 12.9694C14.0537 12.8288 13.863 12.7497 13.6641 12.7497H7.97657L14.5484 6.17661C14.6646 6.06053 14.7567 5.92271 14.8195 5.77102C14.8824 5.61933 14.9147 5.45674 14.9147 5.29255C14.9147 5.12835 14.8824 4.96576 14.8195 4.81407C14.7567 4.66238 14.6646 4.52456 14.5484 4.40848ZM5.85157 12.7497H3.41407V10.3122L8.66407 5.06223L11.1016 7.49973L5.85157 12.7497ZM12.1641 6.43723L9.72657 3.99973L10.8728 2.85348L13.3103 5.29098L12.1641 6.43723Z" fill="#2B4360"/>
</svg>
