<svg width="35" height="35" viewBox="0 0 35 35" fill="none" xmlns="http://www.w3.org/2000/svg">
<rect x="0.399414" y="0.5" width="34" height="34" rx="6" fill="#FFE3E8"/>
<g clip-path="url(#clip0_7367_52089)">
<path d="M20.3179 27.9273C20.2581 27.9953 20.2276 28.0843 20.233 28.1747C20.2384 28.2652 20.2793 28.3498 20.3469 28.4103C20.4144 28.4707 20.503 28.5021 20.5935 28.4975C20.684 28.4929 20.7691 28.4528 20.8301 28.3858L20.914 28.2923C21.9573 27.1294 23.703 25.1833 23.374 22.9224C23.3168 22.5414 23.2057 22.1704 23.044 21.8206C23.0385 21.8042 23.0317 21.7883 23.0238 21.7729C22.666 21.0105 22.0649 20.2799 21.2203 19.581C21.2106 19.5724 21.2005 19.5643 21.1899 19.5568C20.8761 19.3004 20.5493 19.0605 20.2107 18.838C20.3822 18.7121 20.5254 18.5517 20.6312 18.3671C20.7369 18.1825 20.8029 17.9778 20.8248 17.7662C20.9085 16.6328 19.5374 15.6255 19.0868 15.2945L19.0602 15.2749C18.6875 15.0004 18.3651 14.785 18.0805 14.5948C17.1503 13.9726 16.8818 13.7646 16.9129 13.1151C17.5389 13.2785 18.1539 13.1708 18.5378 12.7871C19.7227 11.6029 19.1679 9.00246 18.9697 8.23401C18.7418 7.35074 17.7771 6.58315 16.8191 6.52299C14.8623 6.39958 13.5027 6.77221 12.6619 7.65994C11.3371 9.05935 11.6135 11.4015 11.8806 13.6665C12.1057 15.5743 12.3182 17.376 11.5396 18.304C11.4702 18.3871 11.4219 18.4858 11.399 18.5916C11.376 18.6974 11.3791 18.8072 11.4079 18.9116C11.4378 19.0204 11.4937 19.1203 11.5707 19.2027C11.6478 19.2852 11.7436 19.3477 11.8502 19.3849C12.1935 19.5041 12.5545 19.5643 12.9179 19.5628C13.537 19.5643 14.1457 19.4037 14.6835 19.097C14.7054 20.0191 14.2709 20.6676 13.7743 21.4079C12.8699 22.7564 11.7445 24.4346 13.0043 28.264C13.034 28.3491 13.0959 28.4191 13.1767 28.459C13.2575 28.4988 13.3507 28.5054 13.4363 28.4773C13.5219 28.4491 13.593 28.3884 13.6343 28.3084C13.6757 28.2283 13.6839 28.1352 13.6573 28.0491C12.5023 24.5388 13.4814 23.079 14.3453 21.791C15.0109 20.7984 15.6484 19.8462 15.2588 18.2445L16.5669 19.5949C16.7319 19.7657 16.9303 19.9006 17.1498 19.9913L22.4567 22.1935C22.5708 22.4582 22.6503 22.7365 22.6934 23.0214C22.9762 24.9636 21.4272 26.6906 20.4022 27.8333L20.3179 27.9273ZM14.5378 18.3435C14.3853 18.568 13.2174 19.1364 12.0662 18.7461C13.0358 17.5905 12.8063 15.6454 12.5634 13.586C12.3146 11.478 12.0574 9.29826 13.1612 8.1326C13.8529 7.40179 15.0352 7.10015 16.7759 7.20911C17.1056 7.24014 17.4199 7.36345 17.6827 7.5649C17.2039 8.67177 16.658 9.28915 15.3774 9.3799C15.3758 9.38024 15.3745 9.38076 15.3731 9.38076C15.3671 9.3811 15.3611 9.38007 15.355 9.38076C15.2643 9.38929 15.1806 9.43352 15.1225 9.50372C15.0643 9.57392 15.0365 9.66434 15.045 9.7551C15.1258 10.62 14.8202 11.4928 14.5103 12.2328C14.3972 12.5027 14.2648 12.7679 14.1368 13.0242C13.6765 13.9461 13.2006 14.8997 13.606 16.1265C13.6712 16.3185 13.7555 16.5035 13.8575 16.6787C14.1555 17.1792 14.3899 17.7149 14.5555 18.2734C14.5472 18.2961 14.5411 18.3196 14.5378 18.3435ZM17.4136 19.3562C17.2809 19.3015 17.1609 19.22 17.0611 19.1168L14.568 16.5431C14.531 16.4746 14.4933 16.4064 14.4549 16.3386C14.3755 16.2029 14.3098 16.0596 14.2588 15.9108C13.9424 14.9531 14.3174 14.2015 14.7521 13.3311C14.885 13.0647 15.0225 12.7894 15.1443 12.4984C15.4485 11.7719 15.7481 10.9228 15.745 10.0308C17.1235 9.82901 17.7634 9.00263 18.1856 8.11954C18.2372 8.20939 18.277 8.30551 18.3041 8.40554C18.7578 10.1652 18.6588 11.6942 18.0518 12.3009C17.7841 12.5683 17.1351 12.6012 16.5126 12.1921C16.4749 12.1673 16.4326 12.1502 16.3883 12.1418C16.3439 12.1334 16.2984 12.1337 16.2542 12.1429C16.21 12.1521 16.168 12.1699 16.1307 12.1952C16.0933 12.2206 16.0614 12.2531 16.0366 12.2909C16.0118 12.3286 15.9947 12.3708 15.9863 12.4152C15.9779 12.4595 15.9782 12.5051 15.9874 12.5493C15.9966 12.5935 16.0144 12.6355 16.0397 12.6728C16.0651 12.7101 16.0976 12.7421 16.1354 12.7669C16.1733 12.7918 16.212 12.8143 16.2505 12.8372C16.2466 12.8516 16.2436 12.8662 16.2416 12.881C16.1123 14.1059 16.7094 14.5049 17.6984 15.1662C17.9768 15.3522 18.2922 15.5633 18.6525 15.8285L18.68 15.8486C19.9319 16.7685 20.1644 17.3716 20.1392 17.7153C20.1161 18.0264 19.8578 18.3143 19.3709 18.5713C19.3358 18.5902 19.3042 18.6153 19.2777 18.6452L18.0901 18.083C17.9645 18.0237 17.8521 17.94 17.7592 17.8368L15.6572 15.5031C15.627 15.4696 15.5904 15.4423 15.5497 15.4229C15.5089 15.4035 15.4647 15.3923 15.4197 15.3899C15.3746 15.3876 15.3295 15.3941 15.2869 15.4092C15.2444 15.4243 15.2052 15.4476 15.1716 15.4778C15.1381 15.5081 15.1109 15.5446 15.0914 15.5854C15.072 15.6261 15.0608 15.6703 15.0585 15.7154C15.0561 15.7605 15.0627 15.8056 15.0778 15.8481C15.0928 15.8907 15.1162 15.9299 15.1464 15.9634L17.2484 18.2973C17.402 18.4681 17.5882 18.6065 17.796 18.7045L20.8035 20.1284C21.1944 20.4476 21.5498 20.8078 21.8636 21.203L17.4136 19.3562Z" fill="#FF768C"/>
</g>
<defs>
<clipPath id="clip0_7367_52089">
<rect width="22" height="22" fill="white" transform="translate(6.39941 6.5)"/>
</clipPath>
</defs>
</svg>
