<svg width="15" height="18" viewBox="0 0 15 18" fill="none" xmlns="http://www.w3.org/2000/svg">
<path d="M3.03828 14.5C3.10397 14.5494 3.17874 14.5853 3.25833 14.6057C3.33791 14.6262 3.42075 14.6307 3.50209 14.6191C3.58344 14.6075 3.66169 14.58 3.73238 14.5381C3.80307 14.4962 3.86481 14.4408 3.91406 14.375C4.29247 13.8705 4.78316 13.4609 5.34726 13.1789C5.91136 12.8968 6.53338 12.75 7.16406 12.75C7.79475 12.75 8.41677 12.8968 8.98087 13.1789C9.54497 13.4609 10.0357 13.8705 10.4141 14.375C10.4633 14.4407 10.525 14.496 10.5956 14.5378C10.6663 14.5796 10.7444 14.6071 10.8257 14.6187C10.9069 14.6303 10.9897 14.6258 11.0692 14.6054C11.1487 14.5851 11.2234 14.5492 11.2891 14.5C11.3547 14.4508 11.41 14.3891 11.4519 14.3184C11.4937 14.2478 11.5212 14.1696 11.5328 14.0884C11.5444 14.0071 11.5399 13.9244 11.5195 13.8449C11.4991 13.7654 11.4633 13.6907 11.4141 13.625C10.8606 12.883 10.1226 12.2988 9.27344 11.9305C9.73882 11.5056 10.0649 10.9499 10.2088 10.3364C10.3527 9.72289 10.3078 9.0802 10.08 8.49267C9.8521 7.90514 9.45193 7.40023 8.93197 7.0442C8.41202 6.68816 7.79657 6.49765 7.16641 6.49765C6.53624 6.49765 5.92079 6.68816 5.40084 7.0442C4.88088 7.40023 4.48072 7.90514 4.25285 8.49267C4.02499 9.0802 3.98008 9.72289 4.12401 10.3364C4.26794 10.9499 4.59399 11.5056 5.05937 11.9305C4.20847 12.2981 3.46878 12.8824 2.91406 13.625C2.81452 13.7575 2.77169 13.9241 2.79499 14.0882C2.81828 14.2523 2.90579 14.4004 3.03828 14.5ZM7.16406 7.75C7.5349 7.75 7.89741 7.85997 8.20576 8.06599C8.5141 8.27202 8.75442 8.56486 8.89634 8.90747C9.03825 9.25008 9.07538 9.62708 9.00303 9.9908C8.93069 10.3545 8.75211 10.6886 8.48989 10.9508C8.22766 11.213 7.89357 11.3916 7.52986 11.464C7.16614 11.5363 6.78914 11.4992 6.44653 11.3573C6.10392 11.2154 5.81108 10.975 5.60506 10.6667C5.39903 10.3584 5.28906 9.99584 5.28906 9.625C5.28906 9.12772 5.48661 8.65081 5.83824 8.29917C6.18987 7.94754 6.66678 7.75 7.16406 7.75ZM12.7891 0.875H1.53906C1.20754 0.875 0.889599 1.0067 0.655179 1.24112C0.420759 1.47554 0.289063 1.79348 0.289062 2.125V15.875C0.289063 16.2065 0.420759 16.5245 0.655179 16.7589C0.889599 16.9933 1.20754 17.125 1.53906 17.125H12.7891C13.1206 17.125 13.4385 16.9933 13.6729 16.7589C13.9074 16.5245 14.0391 16.2065 14.0391 15.875V2.125C14.0391 1.79348 13.9074 1.47554 13.6729 1.24112C13.4385 1.0067 13.1206 0.875 12.7891 0.875ZM12.7891 15.875H1.53906V2.125H12.7891V15.875ZM4.03906 4C4.03906 3.83424 4.10491 3.67527 4.22212 3.55806C4.33933 3.44085 4.4983 3.375 4.66406 3.375H9.66406C9.82982 3.375 9.98879 3.44085 10.106 3.55806C10.2232 3.67527 10.2891 3.83424 10.2891 4C10.2891 4.16576 10.2232 4.32473 10.106 4.44194C9.98879 4.55915 9.82982 4.625 9.66406 4.625H4.66406C4.4983 4.625 4.33933 4.55915 4.22212 4.44194C4.10491 4.32473 4.03906 4.16576 4.03906 4Z" fill="#8A8D93"/>
</svg>
