<svg width="14" height="14" viewBox="0 0 14 14" fill="none" xmlns="http://www.w3.org/2000/svg">
<path d="M7.65626 4.37475V6.62842L9.52493 7.74952C9.6005 7.79299 9.66664 7.85108 9.71951 7.92041C9.77237 7.98973 9.81089 8.06889 9.83282 8.15326C9.85475 8.23763 9.85965 8.32553 9.84724 8.41182C9.83482 8.49811 9.80533 8.58106 9.7605 8.65583C9.71567 8.73059 9.65639 8.79568 9.58613 8.84728C9.51586 8.89888 9.43602 8.93597 9.35127 8.95637C9.26651 8.97678 9.17854 8.98009 9.09249 8.96611C9.00644 8.95214 8.92403 8.92116 8.85009 8.87499L6.66259 7.56249C6.56537 7.50421 6.48491 7.42174 6.42903 7.32313C6.37316 7.22451 6.34378 7.1131 6.34376 6.99975V4.37475C6.34376 4.2007 6.4129 4.03378 6.53597 3.91071C6.65904 3.78764 6.82596 3.7185 7.00001 3.7185C7.17406 3.7185 7.34098 3.78764 7.46405 3.91071C7.58712 4.03378 7.65626 4.2007 7.65626 4.37475ZM12.25 2.8435C12.076 2.8435 11.909 2.91264 11.786 3.03571C11.6629 3.15878 11.5938 3.3257 11.5938 3.49975V3.9028C11.3635 3.64741 11.1245 3.39366 10.867 3.1328C10.1069 2.37279 9.13967 1.85363 8.08621 1.64017C7.03274 1.42672 5.93973 1.52844 4.94375 1.93262C3.94777 2.33681 3.09298 3.02554 2.48619 3.91276C1.8794 4.79997 1.54751 5.84633 1.532 6.92109C1.51649 7.99585 1.81805 9.05135 2.39898 9.95571C2.97992 10.8601 3.81448 11.5732 4.79838 12.0059C5.78229 12.4387 6.8719 12.5719 7.93109 12.3889C8.99027 12.206 9.97205 11.7149 10.7538 10.9772C10.8804 10.8577 10.9543 10.6927 10.9594 10.5187C10.9644 10.3447 10.9001 10.1757 10.7806 10.0491C10.661 9.92251 10.4961 9.84855 10.3221 9.84352C10.148 9.8385 9.97913 9.90282 9.85251 10.0223C9.25851 10.5829 8.51251 10.9561 7.70769 11.0951C6.90287 11.2342 6.07491 11.1331 5.32721 10.8044C4.57952 10.4757 3.94525 9.93404 3.50361 9.24698C3.06198 8.55993 2.83256 7.75798 2.84402 6.94131C2.85548 6.12464 3.1073 5.32945 3.56803 4.65505C4.02877 3.98066 4.67799 3.45696 5.43461 3.14937C6.19123 2.84178 7.0217 2.76393 7.8223 2.92555C8.6229 3.08717 9.35814 3.48109 9.93618 4.05811C10.2599 4.38569 10.5547 4.70288 10.8407 5.031H10.0625C9.88846 5.031 9.72154 5.10014 9.59847 5.22321C9.4754 5.34628 9.40626 5.5132 9.40626 5.68725C9.40626 5.8613 9.4754 6.02822 9.59847 6.15129C9.72154 6.27436 9.88846 6.3435 10.0625 6.3435H12.25C12.4241 6.3435 12.591 6.27436 12.714 6.15129C12.8371 6.02822 12.9063 5.8613 12.9063 5.68725V3.49975C12.9063 3.3257 12.8371 3.15878 12.714 3.03571C12.591 2.91264 12.4241 2.8435 12.25 2.8435Z" fill="#2B4360"/>
</svg>
