<svg width="20" height="21" viewBox="0 0 20 21" fill="none" xmlns="http://www.w3.org/2000/svg">
<path d="M16.25 4.08594H3.75C3.41848 4.08594 3.10054 4.21763 2.86612 4.45205C2.6317 4.68647 2.5 5.00442 2.5 5.33594V9.71094C2.5 13.8297 4.49375 16.3258 6.16641 17.6945C7.96797 19.168 9.76016 19.6687 9.83828 19.6891C9.9457 19.7183 10.059 19.7183 10.1664 19.6891C10.2445 19.6687 12.0344 19.168 13.8383 17.6945C15.5063 16.3258 17.5 13.8297 17.5 9.71094V5.33594C17.5 5.00442 17.3683 4.68647 17.1339 4.45205C16.8995 4.21763 16.5815 4.08594 16.25 4.08594ZM16.25 9.71094C16.25 12.607 15.1828 14.9578 13.0781 16.6969C12.1619 17.4513 11.12 18.0384 10 18.4312C8.89469 18.0453 7.86558 17.4686 6.95938 16.7273C4.82969 14.9852 3.75 12.625 3.75 9.71094V5.33594H16.25V9.71094Z" fill="white"/>
</svg>
