<svg width="98" height="18" viewBox="0 0 98 18" fill="none" xmlns="http://www.w3.org/2000/svg">
<path d="M16.4884 8.0422L13.3173 10.8097L14.2672 14.93C14.3175 15.1454 14.3031 15.3709 14.226 15.5781C14.1488 15.7854 14.0123 15.9654 13.8334 16.0955C13.6545 16.2256 13.4413 16.3001 13.2203 16.3096C12.9993 16.3192 12.7804 16.2634 12.591 16.1492L8.9973 13.9695L5.41136 16.1492C5.22192 16.2634 5.00303 16.3192 4.78205 16.3096C4.56107 16.3001 4.34781 16.2256 4.16894 16.0955C3.99006 15.9654 3.85351 15.7854 3.77635 15.5781C3.69919 15.3709 3.68485 15.1454 3.73511 14.93L4.68363 10.8139L1.51183 8.0422C1.34407 7.89752 1.22276 7.70652 1.16312 7.49317C1.10348 7.27981 1.10815 7.0536 1.17656 6.84289C1.24497 6.63218 1.37407 6.44636 1.54766 6.30873C1.72126 6.1711 1.93162 6.08779 2.15238 6.06924L6.33316 5.70713L7.96511 1.81463C8.05034 1.61038 8.19409 1.43591 8.37826 1.3132C8.56243 1.19048 8.7788 1.125 9.00011 1.125C9.22143 1.125 9.43779 1.19048 9.62197 1.3132C9.80614 1.43591 9.94989 1.61038 10.0351 1.81463L11.672 5.70713L15.8514 6.06924C16.0721 6.08779 16.2825 6.1711 16.4561 6.30873C16.6297 6.44636 16.7588 6.63218 16.8272 6.84289C16.8956 7.0536 16.9003 7.27981 16.8406 7.49317C16.781 7.70652 16.6597 7.89752 16.4919 8.0422H16.4884Z" fill="#FFC700"/>
<path d="M36.4884 8.0422L33.3173 10.8097L34.2672 14.93C34.3175 15.1454 34.3031 15.3709 34.226 15.5781C34.1488 15.7854 34.0123 15.9654 33.8334 16.0955C33.6545 16.2256 33.4413 16.3001 33.2203 16.3096C32.9993 16.3192 32.7804 16.2634 32.591 16.1492L28.9973 13.9695L25.4114 16.1492C25.2219 16.2634 25.003 16.3192 24.782 16.3096C24.5611 16.3001 24.3478 16.2256 24.1689 16.0955C23.9901 15.9654 23.8535 15.7854 23.7764 15.5781C23.6992 15.3709 23.6848 15.1454 23.7351 14.93L24.6836 10.8139L21.5118 8.0422C21.3441 7.89752 21.2228 7.70652 21.1631 7.49317C21.1035 7.27981 21.1082 7.0536 21.1766 6.84289C21.245 6.63218 21.3741 6.44636 21.5477 6.30873C21.7213 6.1711 21.9316 6.08779 22.1524 6.06924L26.3332 5.70713L27.9651 1.81463C28.0503 1.61038 28.1941 1.43591 28.3783 1.3132C28.5624 1.19048 28.7788 1.125 29.0001 1.125C29.2214 1.125 29.4378 1.19048 29.622 1.3132C29.8061 1.43591 29.9499 1.61038 30.0351 1.81463L31.672 5.70713L35.8514 6.06924C36.0721 6.08779 36.2825 6.1711 36.4561 6.30873C36.6297 6.44636 36.7588 6.63218 36.8272 6.84289C36.8956 7.0536 36.9003 7.27981 36.8406 7.49317C36.781 7.70652 36.6597 7.89752 36.4919 8.0422H36.4884Z" fill="#FFC700"/>
<path d="M56.4884 8.0422L53.3173 10.8097L54.2672 14.93C54.3175 15.1454 54.3031 15.3709 54.226 15.5781C54.1488 15.7854 54.0123 15.9654 53.8334 16.0955C53.6545 16.2256 53.4413 16.3001 53.2203 16.3096C52.9993 16.3192 52.7804 16.2634 52.591 16.1492L48.9973 13.9695L45.4114 16.1492C45.2219 16.2634 45.003 16.3192 44.782 16.3096C44.5611 16.3001 44.3478 16.2256 44.1689 16.0955C43.9901 15.9654 43.8535 15.7854 43.7764 15.5781C43.6992 15.3709 43.6848 15.1454 43.7351 14.93L44.6836 10.8139L41.5118 8.0422C41.3441 7.89752 41.2228 7.70652 41.1631 7.49317C41.1035 7.27981 41.1082 7.0536 41.1766 6.84289C41.245 6.63218 41.3741 6.44636 41.5477 6.30873C41.7213 6.1711 41.9316 6.08779 42.1524 6.06924L46.3332 5.70713L47.9651 1.81463C48.0503 1.61038 48.1941 1.43591 48.3783 1.3132C48.5624 1.19048 48.7788 1.125 49.0001 1.125C49.2214 1.125 49.4378 1.19048 49.622 1.3132C49.8061 1.43591 49.9499 1.61038 50.0351 1.81463L51.672 5.70713L55.8514 6.06924C56.0721 6.08779 56.2825 6.1711 56.4561 6.30873C56.6297 6.44636 56.7588 6.63218 56.8272 6.84289C56.8956 7.0536 56.9003 7.27981 56.8406 7.49317C56.781 7.70652 56.6597 7.89752 56.4919 8.0422H56.4884Z" fill="#FFC700"/>
<path d="M76.4884 8.0422L73.3173 10.8097L74.2672 14.93C74.3175 15.1454 74.3031 15.3709 74.226 15.5781C74.1488 15.7854 74.0123 15.9654 73.8334 16.0955C73.6545 16.2256 73.4413 16.3001 73.2203 16.3096C72.9993 16.3192 72.7804 16.2634 72.591 16.1492L68.9973 13.9695L65.4114 16.1492C65.2219 16.2634 65.003 16.3192 64.782 16.3096C64.5611 16.3001 64.3478 16.2256 64.1689 16.0955C63.9901 15.9654 63.8535 15.7854 63.7764 15.5781C63.6992 15.3709 63.6848 15.1454 63.7351 14.93L64.6836 10.8139L61.5118 8.0422C61.3441 7.89752 61.2228 7.70652 61.1631 7.49317C61.1035 7.27981 61.1082 7.0536 61.1766 6.84289C61.245 6.63218 61.3741 6.44636 61.5477 6.30873C61.7213 6.1711 61.9316 6.08779 62.1524 6.06924L66.3332 5.70713L67.9651 1.81463C68.0503 1.61038 68.1941 1.43591 68.3783 1.3132C68.5624 1.19048 68.7788 1.125 69.0001 1.125C69.2214 1.125 69.4378 1.19048 69.622 1.3132C69.8061 1.43591 69.9499 1.61038 70.0351 1.81463L71.672 5.70713L75.8514 6.06924C76.0721 6.08779 76.2825 6.1711 76.4561 6.30873C76.6297 6.44636 76.7588 6.63218 76.8272 6.84289C76.8956 7.0536 76.9003 7.27981 76.8406 7.49317C76.781 7.70652 76.6597 7.89752 76.4919 8.0422H76.4884Z" fill="#FFC700"/>
<path d="M96.4884 8.0422L93.3173 10.8097L94.2672 14.93C94.3175 15.1454 94.3031 15.3709 94.226 15.5781C94.1488 15.7854 94.0123 15.9654 93.8334 16.0955C93.6545 16.2256 93.4413 16.3001 93.2203 16.3096C92.9993 16.3192 92.7804 16.2634 92.591 16.1492L88.9973 13.9695L85.4114 16.1492C85.2219 16.2634 85.003 16.3192 84.782 16.3096C84.5611 16.3001 84.3478 16.2256 84.1689 16.0955C83.9901 15.9654 83.8535 15.7854 83.7764 15.5781C83.6992 15.3709 83.6848 15.1454 83.7351 14.93L84.6836 10.8139L81.5118 8.0422C81.3441 7.89752 81.2228 7.70652 81.1631 7.49317C81.1035 7.27981 81.1082 7.0536 81.1766 6.84289C81.245 6.63218 81.3741 6.44636 81.5477 6.30873C81.7213 6.1711 81.9316 6.08779 82.1524 6.06924L86.3332 5.70713L87.9651 1.81463C88.0503 1.61038 88.1941 1.43591 88.3783 1.3132C88.5624 1.19048 88.7788 1.125 89.0001 1.125C89.2214 1.125 89.4378 1.19048 89.622 1.3132C89.8061 1.43591 89.9499 1.61038 90.0351 1.81463L91.672 5.70713L95.8514 6.06924C96.0721 6.08779 96.2825 6.1711 96.4561 6.30873C96.6297 6.44636 96.7588 6.63218 96.8272 6.84289C96.8956 7.0536 96.9003 7.27981 96.8406 7.49317C96.781 7.70652 96.6597 7.89752 96.4919 8.0422H96.4884Z" fill="#DEDEDE"/>
</svg>
