<svg width="186" height="111" viewBox="0 0 186 111" fill="none" xmlns="http://www.w3.org/2000/svg">
<path d="M114.583 33.9167V0H71.4167V33.9167H37.5V55.5V77.0833H71.4167V111H114.583V77.0833H148.5V55.5V33.9167H114.583Z" fill="#DDE1E8"/>
<path d="M80.6667 74H80.5063C79.8326 73.9655 79.1889 73.7109 78.6737 73.2754C78.1585 72.8399 77.8004 72.2474 77.6543 71.5889L73.3746 52.318L71.0929 56.8814C70.8364 57.3934 70.4423 57.8238 69.9549 58.1244C69.4675 58.425 68.906 58.5839 68.3333 58.5834H3.58334C1.88046 58.5834 0.5 57.2029 0.5 55.5C0.5 53.7972 1.88046 52.4167 3.58334 52.4167H66.4278L71.7404 41.7885C72.0211 41.2151 72.4748 40.7445 73.0375 40.4429C73.6002 40.1414 74.2433 40.0243 74.8762 40.108C75.5086 40.1852 76.1017 40.4563 76.5737 40.8842C77.0458 41.3121 77.3737 41.8758 77.5124 42.4976L81.2617 59.382L90.077 32.9424C90.2814 32.3287 90.6737 31.7948 91.1982 31.4163C91.7228 31.0378 92.3531 30.8339 93 30.8334H93.0493C93.7042 30.8438 94.3387 31.0625 94.8609 31.4578C95.3832 31.8531 95.7659 32.4044 95.9538 33.0318L103.32 57.5875L105.851 53.7888C106.133 53.3666 106.514 53.0205 106.962 52.7812C107.41 52.5418 107.909 52.4166 108.417 52.4167H182.417C184.12 52.4167 185.5 53.7972 185.5 55.5C185.5 57.2029 184.12 58.5834 182.417 58.5834H110.066L104.825 66.4613C104.497 66.9441 104.04 67.3253 103.507 67.5619C102.973 67.7984 102.384 67.8807 101.806 67.7995C101.227 67.7139 100.685 67.4656 100.242 67.0834C99.7995 66.7012 99.4746 66.201 99.3054 65.6411L92.8458 44.1287L83.5958 71.8787C83.3932 72.4957 83.0009 73.033 82.4749 73.4139C81.9489 73.7949 81.3161 74 80.6667 74Z" fill="#B0B4C1"/>
</svg>
