<svg width="45" height="44" viewBox="0 0 45 44" fill="none" xmlns="http://www.w3.org/2000/svg">
<rect x="0.904297" width="44" height="44" rx="6" fill="#FBEFEB"/>
<path d="M34.1114 11.2954C32.9019 10.0859 31.2615 9.40643 29.551 9.40643C27.8405 9.40643 26.2001 10.0859 24.9906 11.2954L12.6996 23.5852C11.5154 24.7998 10.8575 26.4322 10.8683 28.1285C10.8791 29.8249 11.5579 31.4486 12.7575 32.6481C13.9571 33.8475 15.5809 34.5261 17.2773 34.5367C18.9736 34.5473 20.6059 33.8891 21.8204 32.7048L34.1126 20.4149C35.3201 19.2045 35.9981 17.5646 35.9978 15.8549C35.9976 14.1452 35.3192 12.5055 34.1114 11.2954ZM20.4508 31.3352C19.6047 32.1814 18.4571 32.6569 17.2604 32.657C16.0637 32.6572 14.916 32.1819 14.0698 31.3358C13.2235 30.4897 12.748 29.3421 12.7479 28.1454C12.7478 26.9487 13.2231 25.801 14.0692 24.9547L19.5293 19.4946L25.9109 25.8751L20.4508 31.3352ZM32.7418 19.0454L27.2793 24.5055L20.9001 18.1251L26.3614 12.6649C27.2108 11.8351 28.3532 11.3736 29.5407 11.3806C30.7282 11.3875 31.8651 11.8623 32.7048 12.702C33.5445 13.5417 34.0193 14.6786 34.0262 15.8661C34.0331 17.0536 33.5717 18.1959 32.7418 19.0454ZM30.8734 16.4709C30.9634 16.5609 31.0349 16.6677 31.0836 16.7853C31.1324 16.9029 31.1575 17.029 31.1575 17.1563C31.1575 17.2836 31.1324 17.4097 31.0836 17.5273C31.0349 17.6449 30.9634 17.7517 30.8734 17.8417L27.9671 20.748C27.8771 20.8379 27.7703 20.9092 27.6527 20.9578C27.5351 21.0065 27.4091 21.0315 27.2819 21.0314C27.1547 21.0314 27.0287 21.0062 26.9112 20.9575C26.7936 20.9088 26.6869 20.8374 26.5969 20.7473C26.507 20.6573 26.4357 20.5505 26.387 20.4329C26.3384 20.3154 26.3134 20.1894 26.3135 20.0621C26.3135 19.9349 26.3386 19.8089 26.3874 19.6914C26.4361 19.5739 26.5075 19.4671 26.5975 19.3772L29.5038 16.4709C29.6854 16.2894 29.9317 16.1874 30.1886 16.1874C30.4454 16.1874 30.6917 16.2894 30.8734 16.4709Z" fill="#E29578"/>
</svg>
