<svg width="2" height="10" viewBox="0 0 2 10" fill="none" xmlns="http://www.w3.org/2000/svg">
<path d="M1.65137 5C1.65137 5.14834 1.60738 5.29334 1.52497 5.41668C1.44256 5.54001 1.32542 5.63614 1.18838 5.69291C1.05133 5.74967 0.900535 5.76453 0.75505 5.73559C0.609564 5.70665 0.475927 5.63522 0.371037 5.53033C0.266148 5.42544 0.194717 5.2918 0.165779 5.14632C0.13684 5.00083 0.151692 4.85003 0.208458 4.71299C0.265224 4.57594 0.361353 4.45881 0.48469 4.3764C0.608027 4.29399 0.753031 4.25 0.901367 4.25C1.10028 4.25 1.29104 4.32902 1.4317 4.46967C1.57235 4.61032 1.65137 4.80109 1.65137 5ZM0.901367 1.5C1.0497 1.5 1.19471 1.45601 1.31804 1.3736C1.44138 1.29119 1.53751 1.17406 1.59428 1.03701C1.65104 0.899968 1.6659 0.749168 1.63696 0.603683C1.60802 0.458197 1.53659 0.32456 1.4317 0.21967C1.32681 0.114781 1.19317 0.0433503 1.04768 0.0144114C0.902199 -0.0145275 0.7514 0.000324964 0.614355 0.0570907C0.47731 0.113856 0.360176 0.209986 0.277765 0.333323C0.195354 0.45666 0.151368 0.601664 0.151368 0.75C0.151368 0.948913 0.230385 1.13968 0.371037 1.28033C0.51169 1.42098 0.702455 1.5 0.901367 1.5ZM0.901367 8.5C0.753031 8.5 0.608027 8.54399 0.48469 8.6264C0.361353 8.70881 0.265224 8.82594 0.208458 8.96299C0.151692 9.10003 0.13684 9.25083 0.165779 9.39632C0.194717 9.5418 0.266148 9.67544 0.371037 9.78033C0.475927 9.88522 0.609564 9.95665 0.75505 9.98559C0.900535 10.0145 1.05133 9.99967 1.18838 9.94291C1.32542 9.88614 1.44256 9.79001 1.52497 9.66668C1.60738 9.54334 1.65137 9.39833 1.65137 9.25C1.65137 9.05109 1.57235 8.86032 1.4317 8.71967C1.29104 8.57902 1.10028 8.5 0.901367 8.5Z" fill="#2B4360"/>
</svg>
