<svg width="41" height="40" viewBox="0 0 41 40" fill="none" xmlns="http://www.w3.org/2000/svg">
<g clip-path="url(#clip0_2225_104662)">
<path d="M20.7482 40C31.7939 40 40.7482 31.0457 40.7482 20C40.7482 8.9543 31.7939 0 20.7482 0C9.70247 0 0.748169 8.9543 0.748169 20C0.748169 31.0457 9.70247 40 20.7482 40Z" fill="#E1F0FF"/>
<path d="M25.4148 15.3333V8H16.0815V15.3333H8.74817V20V24.6667H16.0815V32H25.4148V24.6667H32.7482V20V15.3333H25.4148Z" fill="#FF768C"/>
<path d="M18.7585 24.0003H18.7325C18.6233 23.9929 18.5189 23.9378 18.4354 23.8436C18.3518 23.7495 18.2938 23.6214 18.2701 23.479L17.5762 19.3123L17.2062 20.299C17.1646 20.4097 17.1007 20.5028 17.0217 20.5677C16.9427 20.6327 16.8516 20.6671 16.7588 20.667H6.42692C6.05873 20.667 5.76025 20.3685 5.76025 20.0003C5.76025 19.6321 6.05873 19.3337 6.42692 19.3337H16.4498L17.3112 17.0357C17.3567 16.9117 17.4303 16.8099 17.5215 16.7447C17.6127 16.6795 17.717 16.6542 17.8196 16.6723C17.9222 16.689 18.0183 16.7476 18.0949 16.8401C18.1714 16.9327 18.2246 17.0545 18.2471 17.189L18.855 20.8397L20.2843 15.123C20.3174 14.9903 20.381 14.8749 20.4661 14.793C20.5511 14.7112 20.6533 14.6671 20.7582 14.667H20.7662C20.8724 14.6693 20.9753 14.7165 21.06 14.802C21.1446 14.8875 21.2067 15.0067 21.2372 15.1423L22.4315 20.4517L22.8419 19.6303C22.8876 19.539 22.9495 19.4642 23.022 19.4125C23.0946 19.3607 23.1756 19.3336 23.2579 19.3337H35.0895C35.4577 19.3337 35.7562 19.6321 35.7562 20.0003C35.7562 20.3685 35.4577 20.667 35.0895 20.667H23.5253L22.6755 22.3703C22.6223 22.4747 22.5483 22.5571 22.4618 22.6083C22.3753 22.6594 22.2797 22.6772 22.186 22.6597C22.0922 22.6412 22.0043 22.5875 21.9325 22.5048C21.8607 22.4222 21.808 22.3141 21.7806 22.193L20.7332 17.5417L19.2334 23.5417C19.2006 23.6751 19.137 23.7912 19.0517 23.8736C18.9664 23.956 18.8638 24.0003 18.7585 24.0003Z" fill="#46577A"/>
</g>
<defs>
<clipPath id="clip0_2225_104662">
<rect width="40" height="40" fill="white" transform="translate(0.748169)"/>
</clipPath>
</defs>
</svg>
