<svg width="24" height="25" viewBox="0 0 24 25" fill="none" xmlns="http://www.w3.org/2000/svg">
<path d="M22.5 5.75V11.75C22.5 11.9489 22.421 12.1397 22.2803 12.2803C22.1397 12.421 21.9489 12.5 21.75 12.5C21.5511 12.5 21.3603 12.421 21.2197 12.2803C21.079 12.1397 21 11.9489 21 11.75V7.56031L13.2806 15.2806C13.211 15.3504 13.1282 15.4057 13.0372 15.4434C12.9461 15.4812 12.8486 15.5006 12.75 15.5006C12.6514 15.5006 12.5538 15.4812 12.4628 15.4434C12.3717 15.4057 12.289 15.3504 12.2194 15.2806L8.99999 12.0603L2.78061 18.2806C2.63988 18.4214 2.44901 18.5004 2.24999 18.5004C2.05097 18.5004 1.8601 18.4214 1.71936 18.2806C1.57863 18.1399 1.49957 17.949 1.49957 17.75C1.49957 17.551 1.57863 17.3601 1.71936 17.2194L8.46936 10.4694C8.53902 10.3996 8.62174 10.3443 8.71278 10.3066C8.80383 10.2688 8.90143 10.2494 8.99999 10.2494C9.09855 10.2494 9.19615 10.2688 9.2872 10.3066C9.37824 10.3443 9.46096 10.3996 9.53061 10.4694L12.75 13.6897L19.9397 6.5H15.75C15.5511 6.5 15.3603 6.42098 15.2197 6.28033C15.079 6.13968 15 5.94891 15 5.75C15 5.55109 15.079 5.36032 15.2197 5.21967C15.3603 5.07902 15.5511 5 15.75 5H21.75C21.9489 5 22.1397 5.07902 22.2803 5.21967C22.421 5.36032 22.5 5.55109 22.5 5.75Z" fill="#6FA8DC"/>
</svg>
