<svg width="80" height="80" viewBox="0 0 80 80" fill="none" xmlns="http://www.w3.org/2000/svg">
<g clip-path="url(#clip0_2058_58049)">
<path d="M63.6767 0.000244141H24.7251L19.0477 7.70347H11.6096V48.6893H63.6767V0.000244141Z" fill="#E5E7EB"/>
<path d="M72.7826 9.1073H33.8317L28.1543 16.8105H20.7162V43.9847H72.7826V9.1073Z" fill="#F3F4F6"/>
<path d="M66.6632 23.4951H30.9574C30.6152 23.4951 30.287 23.3591 30.045 23.1171C29.8031 22.8752 29.6671 22.547 29.6671 22.2048C29.6671 21.8625 29.8031 21.5343 30.045 21.2924C30.287 21.0504 30.6152 20.9144 30.9574 20.9144H66.6632C67.0055 20.9144 67.3337 21.0504 67.5756 21.2924C67.8176 21.5343 67.9536 21.8625 67.9536 22.2048C67.9536 22.547 67.8176 22.8752 67.5756 23.1171C67.3337 23.3591 67.0055 23.4951 66.6632 23.4951ZM66.6632 32.6028H30.9574C30.6152 32.6028 30.287 32.4669 30.045 32.2249C29.8031 31.9829 29.6671 31.6547 29.6671 31.3125C29.6671 30.9703 29.8031 30.6421 30.045 30.4001C30.287 30.1581 30.6152 30.0222 30.9574 30.0222H66.6632C67.0055 30.0222 67.3337 30.1581 67.5756 30.4001C67.8176 30.6421 67.9536 30.9703 67.9536 31.3125C67.9536 31.6547 67.8176 31.9829 67.5756 32.2249C67.3337 32.4669 67.0055 32.6028 66.6632 32.6028Z" fill="#B0B4C1"/>
<path d="M4.66704 25.2667C3.75349 24.1699 1.93542 24.8434 1.93542 26.2686V57.7789C1.93542 58.1434 2.02639 58.4163 2.20833 58.6899L16.1412 79.2718C16.6896 79.8221 17.1257 80.0002 17.8716 80.0002V40.7486L4.66704 25.2667Z" fill="#CED3DA"/>
<path d="M76.4251 40.7487H17.8716V80.0003H76.4251C76.6407 80.0012 76.8543 79.9594 77.0536 79.8774C77.2529 79.7953 77.434 79.6746 77.5864 79.5222C77.7388 79.3698 77.8596 79.1887 77.9416 78.9894C78.0237 78.7901 78.0654 78.5765 78.0645 78.3609V42.388C77.9735 41.4777 77.2451 40.7487 76.4251 40.7487Z" fill="#DDE1E8"/>
<path d="M35.1923 63.7404C35.1923 64.1472 35.5179 64.5541 36.0055 64.5541H42.5133V71.0625C42.5133 71.5507 42.8389 71.8763 43.3265 71.8763H50.2412C50.7293 71.8763 51.0544 71.5507 51.0544 71.0625V64.5541H57.5622C58.0504 64.5541 58.3754 64.2285 58.3754 63.7404V56.8256C58.3754 56.3375 58.0498 56.0119 57.5622 56.0119H51.055V49.5035C51.055 49.0153 50.7293 48.6897 50.2418 48.6897H43.327C42.8389 48.6897 42.5139 49.0153 42.5139 49.5035V56.0119H36.0055C35.5173 56.0119 35.1923 56.3375 35.1923 56.8256V63.7404Z" fill="#B0B4C1"/>
</g>
<defs>
<clipPath id="clip0_2058_58049">
<rect width="80" height="80" fill="white" transform="translate(0 0.000244141)"/>
</clipPath>
</defs>
</svg>
