<svg width="20" height="20" viewBox="0 0 20 20" fill="none" xmlns="http://www.w3.org/2000/svg">
<path d="M17.8125 11.2503V16.2503C17.8125 16.4989 17.7137 16.7373 17.5379 16.9132C17.3621 17.089 17.1236 17.1878 16.875 17.1878H3.125C2.87636 17.1878 2.6379 17.089 2.46209 16.9132C2.28627 16.7373 2.1875 16.4989 2.1875 16.2503V11.2503C2.1875 11.0016 2.28627 10.7632 2.46209 10.5873C2.6379 10.4115 2.87636 10.3128 3.125 10.3128C3.37364 10.3128 3.6121 10.4115 3.78791 10.5873C3.96373 10.7632 4.0625 11.0016 4.0625 11.2503V15.3128H15.9375V11.2503C15.9375 11.0016 16.0363 10.7632 16.2121 10.5873C16.3879 10.4115 16.6264 10.3128 16.875 10.3128C17.1236 10.3128 17.3621 10.4115 17.5379 10.5873C17.7137 10.7632 17.8125 11.0016 17.8125 11.2503ZM7.53828 6.28853L9.0625 4.76588V11.2503C9.0625 11.4989 9.16127 11.7373 9.33709 11.9132C9.5129 12.089 9.75136 12.1878 10 12.1878C10.2486 12.1878 10.4871 12.089 10.6629 11.9132C10.8387 11.7373 10.9375 11.4989 10.9375 11.2503V4.76588L12.4617 6.29088C12.5489 6.37808 12.6525 6.44726 12.7664 6.49445C12.8803 6.54165 13.0025 6.56594 13.1258 6.56594C13.2491 6.56594 13.3712 6.54165 13.4852 6.49445C13.5991 6.44726 13.7026 6.37808 13.7898 6.29088C13.8771 6.20367 13.9462 6.10014 13.9934 5.9862C14.0406 5.87226 14.0649 5.75014 14.0649 5.62681C14.0649 5.50349 14.0406 5.38137 13.9934 5.26743C13.9462 5.15349 13.8771 5.04996 13.7898 4.96275L10.6648 1.83775C10.5777 1.75035 10.4743 1.681 10.3603 1.63369C10.2463 1.58637 10.1242 1.56201 10.0008 1.56201C9.87739 1.56201 9.75522 1.58637 9.64126 1.63369C9.52731 1.681 9.42382 1.75035 9.33672 1.83775L6.21172 4.96275C6.12451 5.04996 6.05534 5.15349 6.00814 5.26743C5.96095 5.38137 5.93666 5.50349 5.93666 5.62681C5.93666 5.87589 6.0356 6.11476 6.21172 6.29088C6.38784 6.467 6.62671 6.56594 6.87578 6.56594C7.12485 6.56594 7.36372 6.467 7.53984 6.29088L7.53828 6.28853Z" fill="#2B4360"/>
</svg>
