<svg width="19" height="18" viewBox="0 0 19 18" fill="none" xmlns="http://www.w3.org/2000/svg">
<path d="M6.1618 13.95C6.22091 13.9944 6.28821 14.0268 6.35984 14.0452C6.43147 14.0636 6.50602 14.0676 6.57923 14.0572C6.65244 14.0467 6.72287 14.022 6.78649 13.9843C6.85011 13.9466 6.90567 13.8967 6.95 13.8375C7.29057 13.3834 7.73219 13.0148 8.23988 12.761C8.74757 12.5072 9.30738 12.375 9.875 12.375C10.4426 12.375 11.0024 12.5072 11.5101 12.761C12.0178 13.0148 12.4594 13.3834 12.8 13.8375C12.8443 13.8966 12.8998 13.9464 12.9634 13.984C13.027 14.0217 13.0973 14.0464 13.1705 14.0568C13.2436 14.0673 13.318 14.0632 13.3896 14.0449C13.4612 14.0266 13.5284 13.9943 13.5875 13.95C13.6466 13.9057 13.6964 13.8502 13.734 13.7866C13.7717 13.723 13.7964 13.6527 13.8068 13.5795C13.8173 13.5064 13.8132 13.432 13.7949 13.3604C13.7766 13.2888 13.7443 13.2216 13.7 13.1625C13.2019 12.4947 12.5377 11.9689 11.7734 11.6374C12.1923 11.255 12.4857 10.7549 12.6153 10.2028C12.7448 9.6506 12.7044 9.07218 12.4993 8.54341C12.2942 8.01463 11.9341 7.56021 11.4661 7.23978C10.9982 6.91935 10.4443 6.74788 9.87711 6.74788C9.30996 6.74788 8.75606 6.91935 8.2881 7.23978C7.82014 7.56021 7.45999 8.01463 7.25491 8.54341C7.04984 9.07218 7.00941 9.6506 7.13895 10.2028C7.26849 10.7549 7.56194 11.255 7.98078 11.6374C7.21496 11.9683 6.54925 12.4941 6.05 13.1625C5.96041 13.2818 5.92187 13.4317 5.94283 13.5794C5.9638 13.7271 6.04256 13.8604 6.1618 13.95ZM9.875 7.875C10.2088 7.875 10.535 7.97397 10.8125 8.1594C11.09 8.34482 11.3063 8.60837 11.434 8.91672C11.5618 9.22507 11.5952 9.56437 11.5301 9.89172C11.465 10.2191 11.3042 10.5197 11.0682 10.7557C10.8322 10.9917 10.5316 11.1525 10.2042 11.2176C9.87687 11.2827 9.53757 11.2493 9.22922 11.1215C8.92087 10.9938 8.65732 10.7775 8.4719 10.5C8.28647 10.2225 8.1875 9.89626 8.1875 9.5625C8.1875 9.11495 8.36529 8.68572 8.68176 8.36926C8.99822 8.05279 9.42745 7.875 9.875 7.875ZM14.9375 1.6875H4.8125C4.51413 1.6875 4.22798 1.80603 4.017 2.017C3.80603 2.22798 3.6875 2.51413 3.6875 2.8125V15.1875C3.6875 15.4859 3.80603 15.772 4.017 15.983C4.22798 16.194 4.51413 16.3125 4.8125 16.3125H14.9375C15.2359 16.3125 15.522 16.194 15.733 15.983C15.944 15.772 16.0625 15.4859 16.0625 15.1875V2.8125C16.0625 2.51413 15.944 2.22798 15.733 2.017C15.522 1.80603 15.2359 1.6875 14.9375 1.6875ZM14.9375 15.1875H4.8125V2.8125H14.9375V15.1875ZM7.0625 4.5C7.0625 4.35082 7.12176 4.20774 7.22725 4.10225C7.33274 3.99676 7.47582 3.9375 7.625 3.9375H12.125C12.2742 3.9375 12.4173 3.99676 12.5227 4.10225C12.6282 4.20774 12.6875 4.35082 12.6875 4.5C12.6875 4.64918 12.6282 4.79226 12.5227 4.89775C12.4173 5.00324 12.2742 5.0625 12.125 5.0625H7.625C7.47582 5.0625 7.33274 5.00324 7.22725 4.89775C7.12176 4.79226 7.0625 4.64918 7.0625 4.5Z" fill="#8A8D93"/>
</svg>
