<svg width="81" height="81" viewBox="0 0 81 81" fill="none" xmlns="http://www.w3.org/2000/svg">
<path d="M16.8308 29.5077C16.5023 29.5092 16.1768 29.4452 15.8734 29.3192C15.5701 29.1933 15.2949 29.008 15.0641 28.7743L11.7308 25.441C9.06581 22.7926 7.55607 19.198 7.53076 15.441C7.53502 14.4301 7.74005 13.4301 8.13394 12.499C8.52784 11.568 9.10275 10.7244 9.8253 10.0174C10.5479 9.31032 11.4037 8.75384 12.343 8.38024C13.2824 8.00663 14.2866 7.82334 15.2974 7.84101C16.7924 7.83521 18.255 8.2763 19.4974 9.10768L28.2308 14.941C28.7395 15.3281 29.0806 15.8953 29.184 16.5262C29.2875 17.157 29.1453 17.8035 28.7868 18.3327C28.4282 18.862 27.8806 19.2338 27.2564 19.3717C26.6322 19.5096 25.9789 19.4032 25.4308 19.0743L16.8308 13.2743C16.4019 13.0009 15.906 12.851 15.3974 12.841C14.699 12.841 14.0292 13.1184 13.5354 13.6123C13.0415 14.1061 12.7641 14.7759 12.7641 15.4743C12.7496 16.712 12.9841 17.94 13.4536 19.0853C13.9232 20.2306 14.6182 21.2697 15.4974 22.141L18.8308 25.4743C19.2989 25.9431 19.5619 26.5785 19.5619 27.241C19.5619 27.9035 19.2989 28.5389 18.8308 29.0077C18.5532 29.2304 18.2307 29.3903 17.8855 29.4766C17.5403 29.5629 17.1805 29.5735 16.8308 29.5077Z" fill="#9CA3AF"/>
<path d="M19.464 24.9755C19.0047 23.2922 17.9037 21.8562 16.3974 20.9755C15.8112 20.6122 15.1587 20.3691 14.4777 20.2604C13.7967 20.1516 13.1009 20.1794 12.4307 20.3422C10.947 20.8569 9.72783 21.939 9.04052 23.3511C8.3532 24.7632 8.25378 26.3902 8.76405 27.8755C9.17734 29.3454 10.0688 30.6356 11.2974 31.5422C12.2701 32.2329 13.4379 32.5949 14.6307 32.5755C15.0825 32.5742 15.5317 32.5068 15.964 32.3755C16.7084 32.1459 17.3931 31.7551 17.9692 31.2308C18.5453 30.7065 18.9988 30.0617 19.2974 29.3422C19.8419 27.9467 19.9007 26.4084 19.464 24.9755Z" fill="#DDE1E8"/>
<path d="M63.4976 29.5066C63.1691 29.5081 62.8436 29.4441 62.5403 29.3181C62.2369 29.1922 61.9617 29.0069 61.7309 28.7732C61.2627 28.3045 60.9998 27.6691 60.9998 27.0066C60.9998 26.3441 61.2627 25.7087 61.7309 25.2399L65.0642 21.9066C65.9434 21.0353 66.6385 19.9961 67.108 18.8509C67.5776 17.7056 67.8121 16.4776 67.7976 15.2399C67.7976 14.5415 67.5201 13.8717 67.0263 13.3779C66.5324 12.884 65.8626 12.6066 65.1642 12.6066C64.6557 12.6165 64.1598 12.7664 63.7309 13.0399L54.8976 19.0732C54.6271 19.279 54.3175 19.4275 53.9877 19.5096C53.6578 19.5917 53.3148 19.6057 52.9794 19.5507C52.644 19.4957 52.3233 19.3729 52.0369 19.1898C51.7506 19.0067 51.5046 18.7672 51.314 18.4858C51.1234 18.2044 50.9921 17.8871 50.9283 17.5532C50.8644 17.2194 50.8693 16.8761 50.9427 16.5442C51.016 16.2123 51.1563 15.8989 51.3548 15.6231C51.5534 15.3472 51.8061 15.1148 52.0976 14.9399L60.8309 9.10657C62.0734 8.27519 63.536 7.8341 65.0309 7.8399C67.0554 7.8399 68.997 8.64412 70.4285 10.0757C71.86 11.5072 72.6642 13.4487 72.6642 15.4732C72.6389 19.2302 71.1292 22.8249 68.4642 25.4732L65.1309 28.8066C64.6923 29.2347 64.1101 29.4843 63.4976 29.5066Z" fill="#9CA3AF"/>
<path d="M67.8974 20.3432C67.2338 20.1656 66.5415 20.1214 65.8607 20.2129C65.1799 20.3044 64.5239 20.53 63.9307 20.8765C62.4245 21.7571 61.3235 23.1932 60.8641 24.8765C60.4357 26.3516 60.5299 27.9294 61.1307 29.3432C61.4293 30.0627 61.8828 30.7075 62.4589 31.2318C63.0351 31.7561 63.7197 32.1469 64.4641 32.3765C64.8964 32.5078 65.3456 32.5752 65.7974 32.5765C66.9333 32.5612 68.0378 32.2008 68.9641 31.5431C70.1927 30.6366 71.0841 29.3464 71.4974 27.8765C72.0109 26.3998 71.9208 24.7801 71.2467 23.3695C70.5726 21.9588 69.3689 20.8713 67.8974 20.3432ZM55.5641 15.6098C55.4206 15.3714 55.2273 15.1667 54.9974 15.0098C50.7067 11.8274 45.5062 10.1094 40.1641 10.1094C34.822 10.1094 29.6215 11.8274 25.3307 15.0098C25.1009 15.1667 24.9076 15.3714 24.7641 15.6098C22.5264 18.9623 21.3826 22.9259 21.4901 26.9551C21.5975 30.9844 22.9509 34.8813 25.3641 38.1098L27.6641 41.1765V45.6432C27.6506 48.9475 28.8348 52.1448 30.9974 54.6432V67.0098C31.0062 68.5542 31.6235 70.0329 32.7156 71.1249C33.8077 72.217 35.2863 72.8344 36.8307 72.8432H43.4974C45.0418 72.8344 46.5205 72.217 47.6125 71.1249C48.7046 70.0329 49.322 68.5542 49.3307 67.0098V54.6432C51.4933 52.1448 52.6775 48.9475 52.6641 45.6432V41.1765L54.9641 38.1098C57.3772 34.8813 58.7306 30.9844 58.8381 26.9551C58.9455 22.9259 57.8017 18.9623 55.5641 15.6098Z" fill="#DDE1E8"/>
<path d="M50.1641 22.84C47.3614 20.4907 43.8211 19.2031 40.1641 19.2031C36.507 19.2031 32.9667 20.4907 30.1641 22.84C29.9028 23.0442 29.6854 23.299 29.5249 23.5891C29.3643 23.8793 29.264 24.1988 29.2297 24.5287C29.1955 24.8585 29.2281 25.1919 29.3257 25.5088C29.4232 25.8257 29.5836 26.1198 29.7974 26.3733C32.2974 28.9078 34.2709 31.9123 35.6039 35.2133C36.9369 38.5144 37.6031 42.0468 37.5641 45.6066C37.5641 46.2697 37.8274 46.9055 38.2963 47.3744C38.7651 47.8432 39.401 48.1066 40.0641 48.1066C40.7271 48.1066 41.363 47.8432 41.8318 47.3744C42.3007 46.9055 42.5641 46.2697 42.5641 45.6066C42.525 42.0468 43.1912 38.5144 44.5242 35.2133C45.8572 31.9123 47.8307 28.9078 50.3307 26.3733C50.5561 26.1325 50.7309 25.849 50.8448 25.5395C50.9587 25.23 51.0093 24.9008 50.9938 24.5714C50.9783 24.242 50.8968 23.919 50.7543 23.6216C50.6118 23.3242 50.4111 23.0584 50.1641 22.84Z" fill="#9CA3AF"/>
</svg>
