<svg width="24" height="24" viewBox="0 0 24 24" fill="none" xmlns="http://www.w3.org/2000/svg">
<path d="M21.1871 10.0087C20.8623 9.8199 20.5705 9.57941 20.3231 9.29671C20.3481 8.90312 20.4418 8.51696 20.6001 8.15571C20.8911 7.33471 21.2201 6.40471 20.6921 5.68171C20.1641 4.95871 19.1671 4.98171 18.2921 5.00171C17.9054 5.04149 17.5148 5.01511 17.1371 4.92371C16.9358 4.59622 16.7921 4.23669 16.7121 3.86071C16.4641 3.01571 16.1811 2.06071 15.3121 1.77471C14.4741 1.50471 13.6981 2.09871 13.0121 2.62071C12.7161 2.89103 12.3731 3.10488 12.0001 3.25171C11.6232 3.10608 11.2764 2.89217 10.9771 2.62071C10.2931 2.10171 9.52007 1.50171 8.67807 1.77571C7.81107 2.05771 7.52807 3.01571 7.27807 3.86071C7.1982 4.23547 7.05588 4.59414 6.85707 4.92171C6.47859 5.01287 6.0875 5.03991 5.70007 5.00171C4.82207 4.97771 3.83307 4.95171 3.30007 5.68171C2.76707 6.41171 3.10007 7.33471 3.39207 8.15471C3.55251 8.51542 3.64765 8.90174 3.67307 9.29571C3.42615 9.57878 3.13464 9.81962 2.81007 10.0087C2.07807 10.5087 1.24707 11.0777 1.24707 12.0017C1.24707 12.9257 2.07807 13.4927 2.81007 13.9947C3.13457 14.1835 3.42607 14.424 3.67307 14.7067C3.65033 15.1005 3.55789 15.4872 3.40007 15.8487C3.11007 16.6687 2.78207 17.5987 3.30907 18.3217C3.83607 19.0447 4.83007 19.0217 5.70907 19.0017C6.09604 18.9619 6.48696 18.9883 6.86507 19.0797C7.06545 19.4075 7.20881 19.767 7.28907 20.1427C7.53707 20.9877 7.82007 21.9427 8.68907 22.2287C8.82839 22.2734 8.97376 22.2963 9.12007 22.2967C9.82328 22.1958 10.4769 21.876 10.9881 21.3827C11.2841 21.1124 11.6271 20.8985 12.0001 20.7517C12.377 20.8973 12.7238 21.1112 13.0231 21.3827C13.7081 21.9057 14.4841 22.5027 15.3231 22.2277C16.1901 21.9457 16.4731 20.9877 16.7231 20.1437C16.8032 19.7682 16.9466 19.4091 17.1471 19.0817C17.5241 18.9899 17.914 18.9629 18.3001 19.0017C19.1781 19.0227 20.1671 19.0517 20.7001 18.3217C21.2331 17.5917 20.9001 16.6687 20.6081 15.8477C20.4487 15.4873 20.3536 15.1019 20.3271 14.7087C20.5741 14.4254 20.866 14.1845 21.1911 13.9957C21.9231 13.4957 22.7541 12.9257 22.7541 12.0017C22.7541 11.0777 21.9201 10.5097 21.1871 10.0087Z" fill="#E29578"/>
<path d="M11.0001 14.75C10.9016 14.7502 10.804 14.7308 10.7131 14.6931C10.6221 14.6553 10.5395 14.5999 10.4701 14.53L8.47009 12.53C8.33761 12.3878 8.26549 12.1998 8.26892 12.0055C8.27234 11.8112 8.35106 11.6258 8.48847 11.4884C8.62588 11.351 8.81127 11.2723 9.00557 11.2688C9.19987 11.2654 9.38792 11.3375 9.53009 11.47L11.0701 13.01L14.5501 10.4C14.7092 10.2807 14.9092 10.2294 15.1062 10.2575C15.3031 10.2857 15.4807 10.3909 15.6001 10.55C15.7194 10.7091 15.7707 10.9092 15.7426 11.1061C15.7144 11.303 15.6092 11.4807 15.4501 11.6L11.4501 14.6C11.3202 14.6973 11.1624 14.7499 11.0001 14.75Z" fill="white"/>
</svg>
