<svg width="41" height="41" viewBox="0 0 41 41" fill="none" xmlns="http://www.w3.org/2000/svg">
<rect x="1.3457" y="1.44141" width="39" height="39" rx="7.5" fill="white"/>
<rect x="1.3457" y="1.44141" width="39" height="39" rx="7.5" stroke="#DDE1E8"/>
<path d="M30.1668 20.6883C30.1394 20.6266 29.4777 19.1586 28.0066 17.6875C26.0465 15.7273 23.5707 14.6914 20.8457 14.6914C18.1207 14.6914 15.6449 15.7273 13.6848 17.6875C12.2137 19.1586 11.5488 20.6289 11.5246 20.6883C11.4891 20.7682 11.4707 20.8547 11.4707 20.9422C11.4707 21.0297 11.4891 21.1162 11.5246 21.1961C11.5519 21.2578 12.2137 22.725 13.6848 24.1961C15.6449 26.1555 18.1207 27.1914 20.8457 27.1914C23.5707 27.1914 26.0465 26.1555 28.0066 24.1961C29.4777 22.725 30.1394 21.2578 30.1668 21.1961C30.2023 21.1162 30.2207 21.0297 30.2207 20.9422C30.2207 20.8547 30.2023 20.7682 30.1668 20.6883ZM20.8457 25.9414C18.441 25.9414 16.3402 25.0672 14.6012 23.3438C13.8876 22.6341 13.2805 21.825 12.7988 20.9414C13.2804 20.0578 13.8875 19.2486 14.6012 18.5391C16.3402 16.8156 18.441 15.9414 20.8457 15.9414C23.2504 15.9414 25.3512 16.8156 27.0902 18.5391C27.8052 19.2484 28.4136 20.0576 28.8965 20.9414C28.3332 21.993 25.8793 25.9414 20.8457 25.9414ZM20.8457 17.1914C20.104 17.1914 19.379 17.4113 18.7623 17.8234C18.1456 18.2355 17.665 18.8211 17.3811 19.5063C17.0973 20.1916 17.0231 20.9456 17.1678 21.673C17.3124 22.4004 17.6696 23.0686 18.194 23.5931C18.7185 24.1175 19.3867 24.4747 20.1141 24.6194C20.8415 24.764 21.5955 24.6898 22.2808 24.406C22.966 24.1221 23.5517 23.6415 23.9637 23.0248C24.3758 22.4081 24.5957 21.6831 24.5957 20.9414C24.5947 19.9472 24.1992 18.9939 23.4962 18.2909C22.7932 17.5879 21.8399 17.1924 20.8457 17.1914ZM20.8457 23.4414C20.3512 23.4414 19.8679 23.2948 19.4568 23.0201C19.0456 22.7454 18.7252 22.3549 18.536 21.8981C18.3468 21.4413 18.2973 20.9386 18.3937 20.4537C18.4902 19.9687 18.7283 19.5233 19.0779 19.1736C19.4276 18.824 19.873 18.5859 20.358 18.4894C20.8429 18.393 21.3456 18.4425 21.8024 18.6317C22.2592 18.8209 22.6497 19.1414 22.9244 19.5525C23.1991 19.9636 23.3457 20.447 23.3457 20.9414C23.3457 21.6044 23.0823 22.2403 22.6135 22.7092C22.1446 23.178 21.5087 23.4414 20.8457 23.4414Z" fill="#2B4360"/>
</svg>
