<svg width="14" height="14" viewBox="0 0 14 14" fill="none" xmlns="http://www.w3.org/2000/svg">
<path d="M11.4018 10.4735C11.5251 10.5968 11.5943 10.764 11.5943 10.9383C11.5943 11.1127 11.5251 11.2799 11.4018 11.4032C11.2785 11.5265 11.1113 11.5957 10.9369 11.5957C10.7626 11.5957 10.5954 11.5265 10.4721 11.4032L6.99998 7.92997L3.52677 11.4021C3.40349 11.5254 3.23628 11.5946 3.06193 11.5946C2.88758 11.5946 2.72037 11.5254 2.59709 11.4021C2.4738 11.2788 2.40454 11.1116 2.40454 10.9372C2.40454 10.7629 2.4738 10.5957 2.59709 10.4724L6.07029 7.00028L2.59818 3.52708C2.4749 3.40379 2.40563 3.23658 2.40563 3.06223C2.40563 2.88788 2.4749 2.72067 2.59818 2.59739C2.72146 2.4741 2.88867 2.40484 3.06302 2.40484C3.23737 2.40484 3.40458 2.4741 3.52787 2.59739L6.99998 6.07059L10.4732 2.59684C10.5965 2.47356 10.7637 2.4043 10.938 2.4043C11.1124 2.4043 11.2796 2.47356 11.4029 2.59684C11.5262 2.72013 11.5954 2.88733 11.5954 3.06169C11.5954 3.23604 11.5262 3.40324 11.4029 3.52653L7.92966 7.00028L11.4018 10.4735Z" fill="#E85966"/>
</svg>
