<svg width="48" height="49" viewBox="0 0 48 49" fill="none" xmlns="http://www.w3.org/2000/svg">
<rect y="0.960938" width="48" height="48" rx="24" fill="#FFF3EE"/>
<path d="M34.5 18.8359H32.75V17.9609C32.75 17.2647 32.4734 16.5971 31.9812 16.1048C31.4889 15.6125 30.8212 15.3359 30.125 15.3359H14.375C13.6788 15.3359 13.0111 15.6125 12.5188 16.1048C12.0266 16.5971 11.75 17.2647 11.75 17.9609V28.4609C11.75 29.1571 12.0266 29.8248 12.5188 30.3171C13.0111 30.8094 13.6788 31.0859 14.375 31.0859H26.625V31.9609C26.625 32.6571 26.9016 33.3248 27.3938 33.8171C27.8861 34.3094 28.5538 34.5859 29.25 34.5859H34.5C35.1962 34.5859 35.8639 34.3094 36.3562 33.8171C36.8484 33.3248 37.125 32.6571 37.125 31.9609V21.4609C37.125 20.7647 36.8484 20.0971 36.3562 19.6048C35.8639 19.1125 35.1962 18.8359 34.5 18.8359ZM14.375 29.3359C14.1429 29.3359 13.9204 29.2438 13.7563 29.0797C13.5922 28.9156 13.5 28.693 13.5 28.4609V17.9609C13.5 17.7289 13.5922 17.5063 13.7563 17.3422C13.9204 17.1781 14.1429 17.0859 14.375 17.0859H30.125C30.3571 17.0859 30.5796 17.1781 30.7437 17.3422C30.9078 17.5063 31 17.7289 31 17.9609V18.8359H29.25C28.5538 18.8359 27.8861 19.1125 27.3938 19.6048C26.9016 20.0971 26.625 20.7647 26.625 21.4609V29.3359H14.375ZM35.375 31.9609C35.375 32.193 35.2828 32.4156 35.1187 32.5797C34.9546 32.7438 34.7321 32.8359 34.5 32.8359H29.25C29.0179 32.8359 28.7954 32.7438 28.6313 32.5797C28.4672 32.4156 28.375 32.193 28.375 31.9609V21.4609C28.375 21.2289 28.4672 21.0063 28.6313 20.8422C28.7954 20.6781 29.0179 20.5859 29.25 20.5859H34.5C34.7321 20.5859 34.9546 20.6781 35.1187 20.8422C35.2828 21.0063 35.375 21.2289 35.375 21.4609V31.9609ZM24.875 33.7109C24.875 33.943 24.7828 34.1656 24.6187 34.3297C24.4546 34.4938 24.2321 34.5859 24 34.5859H19.625C19.3929 34.5859 19.1704 34.4938 19.0063 34.3297C18.8422 34.1656 18.75 33.943 18.75 33.7109C18.75 33.4789 18.8422 33.2563 19.0063 33.0922C19.1704 32.9281 19.3929 32.8359 19.625 32.8359H24C24.2321 32.8359 24.4546 32.9281 24.6187 33.0922C24.7828 33.2563 24.875 33.4789 24.875 33.7109ZM33.625 23.2109C33.625 23.443 33.5328 23.6656 33.3687 23.8297C33.2046 23.9937 32.9821 24.0859 32.75 24.0859H31C30.7679 24.0859 30.5454 23.9937 30.3813 23.8297C30.2172 23.6656 30.125 23.443 30.125 23.2109C30.125 22.9789 30.2172 22.7563 30.3813 22.5922C30.5454 22.4281 30.7679 22.3359 31 22.3359H32.75C32.9821 22.3359 33.2046 22.4281 33.3687 22.5922C33.5328 22.7563 33.625 22.9789 33.625 23.2109Z" fill="#E29578"/>
</svg>
